<svg width="1120" height="840" version="1.1" viewBox="0 0 1120 840" xmlns="http://www.w3.org/2000/svg"><path d="m0 420v-420h1120v840h-1120z" fill="#fff"/><path d="m561.54 46.656c-252.64-0.02621-317.12 0.30606-319.93 1.6543-3.5038 1.6839-3.5316 1.8221-9.832 49.023-3.4749 26.033-6.8595 48.232-7.5215 49.332l-1.5879 10.561v3.6367c0 3.5596-6.1022 49.992-15.482 117.8-2.6944 19.478-5.4448 34.853-6.4394 36-0.95486 1.1011-1.7685 3.8147-1.8086 6.0293-0.0637 3.5258-6.7807 54.417-15.043 113.97-1.4752 10.633-3.2262 23.535-3.8906 28.668-0.66443 5.1333-4.5581 33.933-8.6523 64-6.6596 48.905-10.426 76.654-24.611 181.33-12.342 91.075-14.576 108.88-13.883 110.68 0.67551 1.7604 50.045 1.9509 426.96 1.6543l426.19-0.33593 0.39453-6.0312c0.21674-3.3179-2.6078-27.919-6.2773-54.668-3.6695-26.749-14.81-108.03-24.756-180.63s-19.863-144.6-22.037-160c-2.1746-15.4-7.5499-54.401-11.945-86.668-4.3954-32.267-12.525-91.667-18.066-132-5.5413-40.333-10.948-79.933-12.014-88-6.466-48.925-8.5808-61.208-10.943-63.57-2.3076-2.3076-15.555-2.408-318.82-2.4395zm-284.27 65.344h265.2c210.55 0 265.48 0.34292 266.57 1.666 0.75098 0.91666 1.7941 5.718 2.3184 10.668 1.0693 10.097 0.49989 10.625-7.6465 7.1113-11.955-5.1568-14.144-5.9878-19.711-7.4688-12.832-3.4138-39.708-0.84939-50.934 4.8594-2.904 1.4768-15.949 1.8301-67.434 1.8301h-63.832l-9.9004-3.3867c-11.213-3.8354-28.971-7.9236-40-9.2109-8.5392-0.99675-25.614 0.85296-43.9 4.7559-20.543 4.3844-23.415 4.4368-36.287 0.67969-25.812-7.5339-41.662-7.5316-73.436 8e-3 -15.904 3.7737-19.947 3.6758-35.611-0.86328-5.5108-1.597-15.686-3.2074-22.666-3.5861-10.703-0.5808-14.011-0.23524-21.334 2.2285-32.091 10.796-44.8 39.405-32.596 73.375 5.339 14.861 5.246 26.153-0.30273 36.752-8.3763 16-10.227 30.755-6.3457 50.582 2.8238 14.424 1.67 23.469-4.9805 39.035-4.68 10.954-5.4636 14.244-6.0586 25.439-0.47909 9.014-0.0483 15.849 1.4414 22.859l2.125 10-6.043 12.328c-3.3238 6.7807-6.9016 16.381-7.9512 21.334-2.4811 11.708-2.5078 42.873-0.0488 58.021 2.0982 12.926 1.8455 14.472-4.5938 28.059-2.9856 6.2993-4.9146 13.232-6.3047 22.666-2.0215 13.719-1.531 25.229 2.3086 54.258 1.3531 10.229 0.11631 17.927-4.498 28-7.43 16.219-9.4956 34.92-6.2598 56.666 1.8047 12.128 1.8396 42.765 0.0527 46.104-1.2486 2.333-2.8032 2.5814-15.422 2.457-11.236-0.11075-14.188-0.54187-14.811-2.1641-0.83322-2.1713 0.56376-16.955 5.7129-60.396 1.7819-15.033 3.5358-30.032 3.8965-33.332s1.8499-16.201 3.3086-28.668c1.4587-12.467 4.1652-35.867 6.0156-52 1.8505-16.133 4.2683-36.833 5.373-46 1.1048-9.1667 2.9154-25.065 4.0234-35.332 1.108-10.267 2.8831-25.567 3.9434-34 1.0603-8.4333 2.8386-23.434 3.9531-33.334 2.2691-20.155 7.1273-62.274 12.15-105.33 1.8392-15.767 3.9151-34.066 4.6133-40.666 0.69821-6.6 2.4566-21.9 3.9062-34 5.8409-48.753 8.0454-67.767 8.8887-76.666 0.48646-5.1333 1.3839-10.684 1.9941-12.334zm268.33 50.959c0.89776 0.0247 1.7784 0.0743 2.6641 0.14649 11.072 0.90245 13.818 2.3186 14.891 7.6797 0.46353 2.3177 0.84375 40.799 0.84375 85.512v81.295l16.23 26.205c16.755 27.049 20.194 32.153 21.963 32.605 0.56896 0.14553 2.329-5.735 3.9121-13.068 2.7099-12.553 2.969-13.109 4.418-9.498 0.84652 2.1097 1.9182 8.3137 2.3809 13.787 0.56537 6.6882 1.4539 10.186 2.709 10.668 1.0271 0.39415 11.454-0.0405 23.172-0.9668 19.916-1.5745 21.469-1.894 23.826-4.8906l2.5215-3.2051 4.1289 6c2.2704 3.3 4.8643 5.7016 5.7656 5.3379 0.90134-0.36375 4.5819-6.0393 8.1777-12.613 3.5958-6.574 7.0388-11.953 7.6523-11.953 0.61353 0 2.8179 3.7506 4.8984 8.334 4.5121 9.94 11.143 16.174 20.002 18.805 13.684 4.0637 26.989-2.4429 34.434-16.84 3.0112-5.8231 1.9807-19.105-1.9043-24.561-1.6249-2.282-2.9531-6.047-2.9531-8.3652 0-5.0018 7.8417-22.46 11.461-25.516 4.3154-3.6433 19.382-6.6603 26.564-5.3184 9.9694 1.8625 11.724 4.5448 12.029 18.396 0.16409 7.4338 1.5467 16.887 3.7734 25.807 5.0947 20.408 6.1092 31.227 5.25 55.924-1.0172 29.239 0.8226 38.732 11.779 60.789 6.0439 12.167 7.9033 17.239 7.5762 20.668-0.42874 4.4939-0.51356 4.5485-7.6094 4.9531-13.695 0.78081-47.552-11.103-56.037-19.668-2.6328-2.6577-7.7408-10.511-11.35-17.453-17.425-33.519-31.611-47.235-54.412-52.611-16.101-3.7962-22.708-2.6452-57.025 9.9434-45.034 16.52-53.625 21.147-63.342 34.117-12.336 16.466-18.263 33.08-18.156 50.889 0.12612 21.1 8.02 38.869 24.811 55.846 13.279 13.426 24.073 19.047 45.975 23.943 28.574 6.3879 35.829 9.6148 59.379 26.414 19.695 14.049 26.212 16.461 49.334 18.262 35.795 2.788 48.9 6.594 66.666 19.361 9.4604 6.7985 23.358 19.514 23.275 21.295-0.0318 0.68941 23.463 12.763 17.187 17.351-10.672 7.8013-38.414 12.133-48.605 8.0577-2.3561-0.94211-3.4892 2.5693-17.066 2.9609-19.408 0.55984-34.114-1.3398-50.268-6.4941-28.322-9.0373-38.851-9.1677-63.982-0.78906-19.81 6.6045-28.227 7.8011-54.541 7.75-24.974-0.0485-34.027-1.3697-52-7.584-22.011-7.6102-34.847-8.2346-53.334-2.5938-29.337 8.9514-29.756 9.0173-58 9.0918-28.55 0.0754-28.765 0.0433-56.613-8.5879-20.93-6.4872-35.574-5.3428-60.57 4.7344-12.152 4.8991-27.793 7.318-31.406 4.8574-1.5275-1.0401-1.953-5.6477-2.0742-22.404-0.10431-14.419-0.91088-24.888-2.5488-33.074-2.7767-13.877-2.2622-20.094 2.6367-31.793 1.8955-4.5267 4.38-11.529 5.5215-15.562 2.5793-9.1139 2.756-31.076 0.33789-42-0.97394-4.4-1.8102-15.2-1.8594-24-0.0878-15.699 0.0145-16.264 5.4199-30 6.8096-17.304 7.6924-23.992 5.1953-39.334-2.9471-18.107-3.8568-36.328-2.2441-44.932 0.78332-4.1794 3.9438-13.481 7.0234-20.668 6.9043-16.114 8.2244-28.514 4.502-42.266-2.8194-10.416-2.1302-16.324 3.3672-28.85 4.7051-10.72 8.4937-32.414 7.3203-41.918-0.45503-3.6857-1.7367-11.369-2.8477-17.076-2.3528-12.086-1.8698-15.115 4.5703-28.676 4.4326-9.3338 4.8253-11.188 5.3672-25.346 0.63824-16.674-0.74099-25.515-5.9121-37.896-3.6963-8.8502-4.0591-14.654-1.0723-17.133 3.3344-2.7673 13.48-2.0063 27.221 2.041 19.277 5.678 27.887 5.8057 49.334 0.73242 27.633-6.5368 33.275-6.6239 55.682-0.85547 10.344 2.663 21.627 4.8418 25.074 4.8418 3.4473 0 16.838-2.1643 29.756-4.8106 16.302-3.3394 23.472-4.4036 29.756-4.2305zm237.41 7.9531c0.30702-0.0113 0.6339 7e-3 0.98633 0.0469 2.7695 0.31118 3.3924 1.1637 3.6797 5.041 0.43958 5.9335-4.2615 14.356-9.8262 17.605-2.2795 1.3313-8.578 2.9957-13.998 3.6992-19.408 2.5193-37.135 1.1697-59.764-4.5508-25.25-6.383-24.093-6.7173 24.631-7.1055l44.057-0.34961 3.9434-7.3574c2.9188-5.4449 4.1419-6.9504 6.291-7.0293zm-147.32 14.422c15.81 0 28.346 0.39967 27.857 0.88868-0.48901 0.48901-4.816 2.2624-9.6172 3.9414-15.853 5.5437-28.089 14.592-36.707 27.146-1.7536 2.5547-4.6996 7.8549-6.5449 11.777-1.8454 3.9225-3.8042 6.6822-4.3535 6.1328-1.1871-1.1871-1.3598-44.728-0.18945-47.777 0.70336-1.8329 4.5719-2.1094 29.555-2.1094zm118.94 75.754c34.047-2e-3 68.318 0.72405 69.771 2.1777 1.1496 1.1496 2.3105 6.1459 2.8652 12.334 0.51284 5.7206 1.251 11.75 1.6406 13.4 1.0046 4.2543-1.206 3.793-9.9863-2.0801-13.033-8.7176-20.457-11.098-37.08-11.896-13.271-0.63767-16.092-0.34673-27.01 2.7852-23.032 6.6067-32.549 13.446-43.246 31.084-6.8648 11.319-12.281 24.937-14.838 37.301-2.2168 10.719-3.7386 13.86-5.4082 11.158-1.5009-2.4286-6.3365-90.957-5.1387-94.078 0.55788-1.454 34.382-2.1836 68.43-2.1856zm-29.883 90.941c9.3824 0.0702 20.707 8.7796 22.596 17.377 2.0568 9.3646-3.3565 19.728-12.244 23.441-10.372 4.3339-22.753-0.13752-28.035-10.127-3.7608-7.1117-3.8985-13.206-0.44922-19.967 2.9183-5.7203 11.464-10.775 18.133-10.725zm-13.492 0.0195c0.77281 0.0264-0.14126 1.3764-2.0312 3-13.273 11.403-8.7453 33.052 8.4121 40.221 6.6193 2.7657 12.473 2.5575 19.652-0.69922l5.9629-2.7051-3.1582 3.3633c-2.9833 3.1756-7.1468 5.0161-14.766 6.5273-1.8333 0.36364-6.11-0.18037-9.502-1.207-14.712-4.4531-22.361-20.71-16.432-34.926 2.2014-5.2781 9.5213-13.654 11.861-13.574zm-30.879 116.13c2.4913 0.049 4.9682 0.49686 6.9941 1.4199 3.1925 1.4546 8.623 9.6524 8.623 13.018 0 1.6164-2.2352 1.6568-6 0.10938-1.4667-0.60284-7.0449-2.7261-12.396-4.7188-5.5051-2.0499-9.5126-4.2843-9.2285-5.1465 0.97643-2.9632 6.527-4.7894 12.008-4.6816zm-59.615 22.684c2.8251 0.0368 4.1066 1.8539 10.441 12.324l7.6543 12.654 59.568 23.615c32.762 12.989 82.048 32.529 109.52 43.42 27.476 10.891 50.841 20.684 51.92 21.764 1.6455 1.6455 5.1168 22.9 5.3945 33.029 0.11113 4.0531-3.0009 2.4705-12.244-6.2266-11.07-10.416-31.806-24.491-45.07-30.594-13.796-6.3473-35.296-11.308-56.252-12.982-25.965-2.0743-25.053-1.8027-37.746-11.266-21.153-15.771-38.788-24.165-62.623-29.805-31.202-7.3833-33.913-8.7509-40.676-20.543-5.3116-9.2613-5.2321-15.392 0.3418-26.377 3.7706-7.4311 4.8672-8.5924 8.4434-8.9414 0.48584-0.0474 0.92064-0.0775 1.3242-0.0723z" fill="#5B739D"/><path d="m561.54 46.656c-252.64-0.0262-317.12 0.30606-319.93 1.6543-3.5037 1.6839-3.5315 1.8221-9.832 49.023-3.4749 26.033-6.8595 48.232-7.5215 49.332l-1.5879 10.561v3.6367c0 3.5596-6.1022 49.992-15.482 117.8-2.6944 19.478-5.4448 34.853-6.4394 36-0.9548 1.1011-1.7686 3.8147-1.8086 6.0293-0.064 3.5258-6.7808 54.417-15.043 113.97-1.4752 10.633-3.2262 23.535-3.8906 28.668-0.6644 5.1333-4.558 33.933-8.6523 64-6.6596 48.905-10.426 76.654-24.611 181.33-12.342 91.075-14.576 108.88-13.883 110.68 0.6755 1.7604 50.045 1.9509 426.96 1.6543l426.19-0.33593 0.39453-6.0312c0.2167-3.3179-2.6078-27.919-6.2773-54.668-3.6696-26.749-14.81-108.03-24.756-180.63s-19.863-144.6-22.037-160c-2.1746-15.4-7.5499-54.401-11.945-86.668-4.3954-32.267-12.525-91.667-18.066-132-5.5413-40.333-10.948-79.933-12.014-88-6.4661-48.925-8.5809-61.208-10.943-63.57-2.3076-2.3076-15.555-2.408-318.82-2.4395zm-117.05 64.834c156.9-0.09871 368.04 0.40995 380.85 1.3223l16.666 1.1875 0.98633 8c5.4892 44.524 10.25 89.078 9.627 90.086-0.42424 0.68643-7.3023 1.248-15.285 1.248h-14.514l3.4121-7.4531c5.2554-11.479 7.0746-20.096 7.0918-33.592 0.01336-10.451-0.48245-13.356-3.1856-18.666-1.7608-3.459-4.6114-7.5291-6.334-9.043-5.6006-4.9219-20.976-14.167-22.25-13.379-1.6373 1.0119-9.8513-1.868-11.549-4.0488-4.8072-6.176-43.466-5.6642-48.391 0.64063-1.5568 1.9931-8.3232 2.2427-69.969 2.5762-41.272 0.22325-68.752 0.87476-69.525 1.6484-0.81685 0.81685-2.0321 0.63904-3.3633-0.49024-3.2745-2.7778-16.911-7.2909-30.752-10.178-20.765-4.3311-39.098-3.2439-69.631 4.125l-11.633 2.8066-9.0352-2.7148c-30.278-9.094-47.478-9.2318-83.279-0.66993l-14.246 3.4062-9.0879-2.8711c-16.303-5.1514-33.021-7.3524-43.512-5.7285-24.629 3.8122-41.27 19.723-45.027 43.053-1.634 10.146-0.74807 17.013 4.2441 32.926 5.3819 17.155 5.1456 23.311-1.4375 37.602-7.4295 16.129-8.9582 27.903-5.9492 45.822 3.0224 17.999 2.0631 27.306-4.2578 41.297-7.0319 15.565-8.5178 28.642-5.1816 45.609l2.4902 12.662-6.3086 13.154c-4.1259 8.6025-6.959 16.793-8.1836 23.664-2.5008 14.032-2.4382 38.417 0.13477 53.127 2.3745 13.575 1.9146 17.783-2.9414 26.916-8.4845 15.957-10.551 39.25-6.4316 72.504 2.2956 18.532 1.786 24.318-2.9746 33.756-8.1852 16.227-10.268 36.816-6.3262 62.547 1.5638 10.207 1.8676 18.206 1.2012 31.658-1.4612 29.494 3.1712 43.77 19.146 59.008 6.5197 6.2188 9.3549 7.8821 17.66 10.355 8.4592 2.5193 12.024 2.8494 24.564 2.2754 16.072-0.73559 27.955-4.1238 47.297-13.484 12.018-5.8161 17.377-6.0689 29.109-1.375 4.7374 1.8953 15.284 5.0128 23.438 6.9277 13.301 3.1239 17.566 3.488 41.492 3.5508 30.05 0.07883 40.891-1.5043 63.906-9.3359 7.3848-2.5129 15.632-4.5731 18.326-4.5781 2.6946-0.00545 9.2939 1.7372 14.666 3.873 5.3721 2.1359 16.968 5.5558 25.768 7.5996 14.654 3.4034 18.243 3.7177 42.666 3.7344 30.118 0.02051 43.115-2.0323 67.039-10.584 7.1292-2.5483 14.944-4.6326 17.367-4.6328 2.4228-2.3e-4 10.533 2.0504 18.023 4.5566 19.129 6.4 33.221 8.8602 55.725 9.7305 30.592 1.1831 59.503-3.7498 77.711-13.258 10.534-5.5007 26.796-21.791 32.307-32.363 6.9439-13.321 8.8218-20.837 8.2695-33.08-0.42264-9.3692-1.2157-12.407-5.584-21.393-4.2303-8.7015-7.4953-12.845-19.307-24.496-23.217-22.902-46.841-37.996-68.883-44.012-15.225-4.1549-32.909-7.0195-43.326-7.0195-16.077 0-21.809-1.816-33.471-10.604-21.549-16.237-39.202-24.623-63.871-30.34-29.268-6.7827-32.779-8.5533-40.223-20.291-4.8699-7.679-5.0819-16.598-0.61914-26.1 3.972-8.4566 6.1578-10.234 16.957-13.789 4.8294-1.59 16.228-5.9285 25.332-9.6426 25.565-10.43 28.076-11.082 33.689-8.7363 5.28 2.2061 9.3976 8.005 16.057 22.617 6.0245 13.22 14.831 26.828 20.26 31.303 3.604 2.9708-3.3656 0.60673-33.732-11.438-35.578-14.111-38.397-15.015-39.998-12.826-0.94711 1.2952-1.7226 3.4979-1.7226 4.8945 0 1.3966-1.2639 4.3162-2.8106 6.4883-1.5467 2.1721-2.5746 4.1871-2.2832 4.4785 0.6919 0.69192 40.153 16.39 119.76 47.645 18.7 7.3415 41.499 16.303 50.666 19.912 9.1667 3.6094 20.266 7.8108 24.666 9.3379 4.4 1.5271 8.6006 3.2072 9.334 3.7324 0.73333 0.5252 5.834 2.3604 11.334 4.0781 5.5 1.7178 10.9 3.8618 12 4.7656s7.4 2.652 14 3.8848c6.6 1.2327 12.299 2.6712 12.666 3.1953 0.36667 0.52413 5.1226 1.734 10.568 2.6894 10.466 1.8362 20.341 5.2647 15.432 5.3574-1.4667 0.0277-7.7251-0.84155-13.908-1.9297-10.711-1.8848-16.439-1.8263-8.8047 0.08985 2.7661 0.69427 3.44 1.519 2.9082 3.5527-0.3808 1.4561 0.16751 9.6277 1.2188 18.16 1.0512 8.5324 3.3757 28.114 5.166 43.514 1.7904 15.4 5.1246 43.829 7.4082 63.174 2.2836 19.345 3.9699 36.445 3.748 38l-0.40235 2.8262h-359.13c-197.52 0-359.69-0.3461-360.37-0.76953-0.75862-0.46853-0.44777-7.5141 0.79297-18 1.1213-9.4766 2.9335-24.781 4.0274-34.01 1.0938-9.2288 1.9191-20.33 1.834-24.668-0.18324-9.3375 0.24372-13.387 10.812-102.55 2.4913-21.018 3.9402-33.53 10.729-92.666 1.389-12.1 4.0561-35.201 5.9277-51.334s4.5685-39.533 5.9922-52c5.9637-52.222 8.2344-71.835 10.734-92.666 1.4521-12.1 4.7348-40.301 7.2949-62.668 2.5602-22.367 6.2076-54.166 8.1055-70.666s4.4902-39.135 5.7598-50.299c1.2696-11.164 2.7746-20.763 3.3438-21.332 0.54072-0.54075 75.159-0.81968 169.3-0.87891zm-215.65 37.844c1.4048 0 1.8828 1.0995 1.5879 3.6543-0.40066 3.4712-5.0879 6.3358-5.0879 3.1094 0-0.78709 0.74935-1.4405 1.666-1.4512 1.2069-0.01478 1.1607-0.34079-0.16992-1.1836-2.1839-1.3832-0.85163-4.1289 2.0039-4.1289zm371.34 1.5762c0.63389-0.41413 0.95178 14.988 1.6953 61.756 0.61792 38.867 1.5019 91.067 1.9648 116 0.64121 34.538 0.43112 47.398-0.88086 54-0.94715 4.7662-1.5342 9.8668-1.3047 11.334 0.55733 3.5637 7.6876-25.412 7.6836-31.223-0.00659-9.075 1.305-2.8962 3.3828 15.941 1.1668 10.578 2.298 19.409 2.5137 19.625 0.21573 0.21572 10.44-0.44124 22.721-1.459 15.983-1.3245 22.661-2.3764 23.5-3.7012 1.6771-2.6484 1.488-6.2925-1.3828-26.518-2.5405-17.898-4.5511-49.475-6.0703-95.332-0.74521-22.494-0.62798-24.268 1.8828-28.279 3.8234-6.1081 15.922-11.94 17.953-8.6543 0.36247 0.58648-0.73329 5.996-2.4336 12.021-3.4265 12.143-3.4575 7.2643 0.67969 108.24 0.85628 20.9 1.5383 38.9 1.5156 40-0.12876 6.2508 1.7179 5.0658 7.3164-4.6973 3.3544-5.8496 7.274-11.932 8.7109-13.516 2.1912-2.4148 2.5115-4.2421 1.9785-11.332-3.9997-53.204-6.4056-99.218-5.332-102.02 0.72901-1.8998 9.2303-2.0523 86.027-1.5371 66.497 0.44605 85.446 0.94003 86.254 2.248 1.0561 1.7089 1.681 6.3523 7.459 55.518 21.832 185.77 31.322 267.53 31.322 269.86 0 1.5422-0.71547 2.8047-1.5898 2.8047-1.4906 0-19.637-7.0136-53.744-20.771-8.0667-3.2539-15.124-5.9112-15.682-5.9062-1.7792 0.01813-26.406-9.6796-25.891-10.195 0.2723-0.2723 4.6385 1.0719 9.7012 2.9863 7.5521 2.8558 10.521 3.3303 16.537 2.6426 16.69-1.9079 35.04-14.75 42.859-29.994 4.3442-8.4691 4.4746-9.1871 4.4746-24.742 0-18.788-1.2836-23.408-12.529-45.084l-7.4707-14.4-0.1543-28.934c-0.16618-31.122-1.2475-40.912-6.5859-59.602-2.2049-7.7192-3.6995-16.994-4.1875-26-1.0135-18.702-4.5846-26.845-16.742-38.184-9.9463-9.2759-19.853-14.481-32.779-17.221-17.249-3.6558-31.524-1.9454-52.312 6.2695-9.1077 3.599-11.852 5.5005-19.229 13.32-9.1714 9.7222-18.594 26.926-22.539 41.148-2.8904 10.42-4.9191 39.241-3.1328 44.504 2.0962 6.1761 8.5015 14.63 13.182 17.395 2.3036 1.3608 7.7261 2.6829 12.301 3 6.7825 0.47018 9.0805 0.04083 13.451-2.5078 5.7505-3.3533 14.062-13.286 14.062-16.805 0-1.3245-1.3502-0.21792-3.3789 2.7676-13.007 19.141-43.279 9.4729-43.287-13.824-0.00564-16.708 19.605-26.299 35.09-17.162l4.8809 2.8789 1.3477-3.543c0.741-1.949 1.3476-4.1186 1.3476-4.8203 0-1.829 7.5008-17.483 9.582-19.998 6.7896-8.2038 30.871-10.218 37.918-3.1719 2.8154 2.8154 3.166 4.3712 3.166 14.055 0 7.7997 1.229 15.854 4.3301 28.393 4.2675 17.255 4.3284 17.962 4.3711 49.506 0.05203 38.472 1.174 44.695 11.814 65.545 8.554 16.762 9.9314 21.819 6.793 24.957-2.9333 2.9333-7.4081 2.7301-22.137-1.0078-31.291-7.9411-42.883-15.457-51.717-33.527-7.171-14.67-19.85-33.495-26.604-39.502-3.4018-3.0256-10.609-7.6196-16.016-10.209-8.7737-4.2015-11.287-4.7731-23.371-5.3106-15.118-0.67235-16.905-0.20243-58.131 15.271-38.152 14.32-46.232 19.816-57.703 39.252-10.329 17.501-14.274 40.94-9.6777 57.504 5.3356 19.229 18.837 38.717 33.871 48.891 10.722 7.2551 17.913 10.105 35.373 14.021 26.083 5.8512 36.258 10.074 52.455 21.766 26.347 19.018 31.501 21.133 56.148 23.043 41.64 3.2261 53.331 7.6227 80.275 30.186 17.196 14.4 18.357 17.405 10.275 26.609-5.4693 6.2292-8.7433 7.7365-23.994 11.037-25.133 5.4394-51.199 3.3525-81.023-6.4844-9.4159-3.1056-16.089-4.3616-26-4.8984-13.092-0.70916-13.661-0.61491-31.426 5.2559-26.827 8.8658-31.112 9.5928-55.908 9.4941-23.88-0.09505-30.568-1.3047-55.334-10.014-9.1756-3.2266-14.981-4.3641-24.666-4.832-11.901-0.57505-13.752-0.28296-30.631 4.8418-24.006 7.2885-36.187 9.4453-53.369 9.4453-17.129 0-29.395-2.1733-52.666-9.3281-25.497-7.8392-38.102-7.1941-60.801 3.1094-5.4268 2.4633-13.767 5.7167-18.533 7.2305-12.942 4.11-15.699 4.5443-16.918 2.6602-0.59495-0.91936-1.1307-12.173-1.1914-25.006-0.07873-16.648-0.74794-26.129-2.334-33.088-3.5481-15.568-2.7729-22.945 4.0938-38.912 6.303-14.657 7.5026-32.673 3.6504-54.818-1.1974-6.8837-2.2272-17.614-2.2891-23.848-0.10176-10.264 0.42037-12.718 5.5234-26 6.9241-18.022 7.9244-27.664 4.9336-47.506-4.1474-27.516-2.6632-41.654 6.4688-61.631 6.015-13.159 7.398-25.547 4.209-37.723-2.9926-11.425-2.6908-17.882 1.291-27.502 5.9874-14.465 7.2489-19.936 8.0625-34.973 0.60056-11.099 0.27144-16.877-1.3535-23.75-3.23-13.663-2.7951-18.971 2.4434-29.902 7.4666-15.58 9.1717-31.004 5.5176-49.896-1.0408-5.3812-3.127-12.485-4.6367-15.785-3.7389-8.1723-3.6755-15.237 0.16016-17.924 4.2365-2.9674 9.0282-2.5953 26.369 2.0449 19.778 5.2923 30.455 5.427 49.334 0.62695 7.7-1.9578 19.699-3.892 26.666-4.2988 11.264-0.65782 14.438-0.28156 28.666 3.3926 21.463 5.5423 29.803 5.568 55.232 0.17578 27.8-5.895 36.501-5.4196 61.209 3.3359 12.636 4.4777 18.188 5.8844 19.203 4.8691 0.78547-0.78547 2.1058-8.5064 2.9336-17.158 0.38976-4.0738 0.68555-6.6583 0.93359-6.8203zm182.38 17.627c0.86342-0.11315 1.8149 0.52047 3.3516 1.5273 3.0386 1.991 3.3663 2.8882 2.6016 7.1074-1.6616 9.1674-5.5429 14.836-12.266 17.914-5.6521 2.5876-8.5402 2.8603-30.248 2.8633-23.329 0.00352-24.549-0.13499-43.602-4.9727-20.463-5.1956-29.938-6.0062-42.453-3.6328-21.993 4.1709-42.175 21.322-48.639 41.334-4.2644 13.203-4.1323 13.046-5.0859 6.0879-1.235-9.0106-1.0756-47.739 0.20508-49.756 0.81566-1.2844 19.604-1.7336 83.646-2l82.594-0.34375 4.0273-7.582c3.2351-6.0911 4.4282-8.3583 5.8672-8.5469zm-71.299 183.51c0.7728 0.0264-0.14125 1.3764-2.0312 3-13.273 11.403-8.7453 33.052 8.4121 40.221 6.6193 2.7657 12.473 2.5575 19.652-0.69922l5.9629-2.7051-3.1582 3.3633c-2.9833 3.1756-7.1467 5.0161-14.766 6.5273-1.8333 0.36364-6.11-0.18037-9.502-1.207-14.712-4.4531-22.361-20.71-16.432-34.926 2.2014-5.2781 9.5212-13.654 11.861-13.574zm82.738 199.99c0.73333 0 2.234 0.58208 3.334 1.293s1.3994 1.291 0.66602 1.291-2.234-0.58014-3.334-1.291-1.3994-1.293-0.66602-1.293z" fill="#316FD8"/><path d="m561.54 46.656c-252.64-0.0262-317.12 0.30606-319.93 1.6543-3.5038 1.6839-3.5316 1.8221-9.832 49.023-3.475 26.033-6.8595 48.232-7.5215 49.332l-1.5879 10.561v3.6367c0 3.5596-6.1021 49.992-15.482 117.8-2.6944 19.478-5.4448 34.853-6.4394 36-0.9549 1.1011-1.7685 3.8147-1.8086 6.0293-0.064 3.5258-6.7807 54.417-15.043 113.97-1.4752 10.633-3.2261 23.535-3.8906 28.668-0.6644 5.1333-4.558 33.933-8.6523 64-6.6595 48.905-10.426 76.654-24.611 181.33-12.342 91.075-14.576 108.88-13.883 110.68 0.6755 1.7604 50.045 1.9509 426.96 1.6543l426.19-0.33593 0.39453-6.0312c0.2168-3.3179-2.6078-27.919-6.2773-54.668s-14.81-108.03-24.756-180.63c-9.9459-72.6-19.863-144.6-22.037-160s-7.5499-54.401-11.945-86.668c-4.3954-32.267-12.525-91.667-18.066-132-5.5413-40.333-10.948-79.933-12.014-88-6.466-48.925-8.5808-61.208-10.943-63.57-2.3076-2.3076-15.555-2.408-318.82-2.4395zm0.43164 2.6777c248.75 0 313.98 0.3437 315.74 1.666 2.2586 1.6957 2.6554 4.1093 12.229 74.334 4.4157 32.392 14.423 105.3 19.398 141.33 3.6475 26.415 8.4474 61.359 20.701 150.67 2.5658 18.7 5.24 37.899 5.9414 42.666 0.70139 4.7667 2.7842 19.767 4.6289 33.334 1.8447 13.567 5.7869 42.367 8.7598 64 2.9729 21.633 6.5484 47.733 7.9473 58 1.3989 10.267 5.608 40.867 9.3516 68 3.7436 27.133 7.6858 55.933 8.7617 64 1.0759 8.0667 3.4449 25.094 5.2637 37.838 1.8188 12.744 3.3066 25.493 3.3066 28.332v5.1621h-423.92c-233.16 0-424.18-0.45-424.49-1s0.19569-6.4 1.127-13c0.93125-6.6 2.6225-18.899 3.7578-27.332 1.1353-8.4333 4.1942-30.933 6.7988-50 10.028-73.405 14.295-104.85 17.367-128 1.7518-13.2 5.3209-39.601 7.9316-58.668s6.2838-46.067 8.1621-60c1.8782-13.933 4.5636-33.733 5.9687-44 1.4051-10.267 4.0926-30.067 5.9707-44 7.7742-57.675 10.164-73.371 11.357-74.564 3.7593-3.7592 3.3235 1.1948-6.6738 75.898-3.7619 28.11-7.1857 53.942-23.424 176.67-24.73 186.9-26.868 203.02-29.412 221.67-1.1754 8.6185-1.7925 16.57-1.3711 17.668 0.67824 1.7675 48.511 1.9961 416.64 1.9961 331.11 0 416.15-0.33908 417.2-1.666 0.88954-1.1215 0.2777-9.2989-1.8691-25-1.7547-12.833-7.354-54.492-12.443-92.572-5.8996-44.143-9.8754-69.797-10.969-70.781-0.94317-0.84942-4.4148-2.2928-7.7148-3.207s-14.399-4.9803-24.666-9.0371c-10.267-4.0568-31.268-12.347-46.668-18.422-15.4-6.075-41.199-16.271-57.332-22.658-16.133-6.3873-37.434-14.787-47.334-18.666-9.9-3.8788-35.399-13.949-56.666-22.379-21.267-8.4295-43.767-17.289-50-19.688-6.2333-2.3985-12.066-5.3134-12.959-6.4766-1.4174-1.8455-1.6289-1.7155-1.666 1.0137-0.02332 1.7201-1.3068 4.9041-2.8535 7.0762-1.5467 2.1721-2.5746 4.1871-2.2832 4.4785 0.6919 0.69193 40.153 16.39 119.76 47.645 18.7 7.3415 41.499 16.303 50.666 19.912 9.1667 3.6094 20.266 7.8108 24.666 9.3379 4.4 1.5271 8.6006 3.2072 9.334 3.7324 0.73333 0.5252 5.834 2.3604 11.334 4.0781 5.5 1.7178 10.9 3.8618 12 4.7656s7.4 2.652 14 3.8848c6.6 1.2327 12.299 2.6712 12.666 3.1953 0.36667 0.52413 5.1226 1.734 10.568 2.6894 10.466 1.8362 20.341 5.2647 15.432 5.3574-1.4667 0.0277-7.7251-0.84155-13.908-1.9297-10.711-1.8848-16.439-1.8263-8.8047 0.08985 2.7475 0.68959 3.4394 1.5238 2.918 3.5176-0.37585 1.4373 1.0726 17.41 3.2207 35.494 2.1481 18.085 5.0827 42.781 6.5195 54.881 7.1653 60.341 8.3816 71.896 7.7441 73.557-0.57847 1.5074-59.331 1.75-360.37 1.4941-197.83-0.16814-359.92-0.53879-360.2-0.82422-0.28543-0.28542 0.39756-8.2524 1.5176-17.705 1.12-9.4527 2.9307-24.741 4.0234-33.973 1.0928-9.2321 1.9171-20.333 1.832-24.668-0.18306-9.3313 0.24444-13.388 10.812-102.55 2.4913-21.018 3.9402-33.53 10.729-92.666 1.389-12.1 4.0561-35.201 5.9277-51.334s4.5685-39.533 5.9922-52c5.9637-52.222 8.2344-71.835 10.734-92.666 1.4521-12.1 4.7348-40.301 7.2949-62.668 2.5602-22.367 6.2076-54.166 8.1055-70.666s4.4971-39.198 5.7754-50.439c1.6205-14.251 2.9021-20.805 4.2324-21.652 2.3753-1.5124 528.9-0.56549 550.57 0.99024l15.334 1.1016 0.98633 8c5.7857 46.929 10.194 88.846 9.5273 90.584-0.7411 1.9313 1.4434 2.1125 21.664 1.7832l22.488-0.36719 0.40429-3.4746c0.3135-2.7006-18.9-150.51-20.133-154.89-0.15936-0.56516-141.67-1.009-314.46-0.98633-269.41 0.035305-314.28-0.22689-314.9-1.8418-0.39743-1.0358-0.36415-2.2413 0.07421-2.6797 0.43836-0.43836 141.88-0.79688 314.32-0.79688zm-123.83 69.277c-12.56-0.10115-25.81 2.0042-43.711 6.2852l-14.246 3.4062-9.0879-2.8711c-16.303-5.1514-33.021-7.3524-43.512-5.7285-24.629 3.8122-41.27 19.723-45.027 43.053-1.634 10.146-0.74807 17.013 4.2441 32.926 5.3819 17.155 5.1456 23.311-1.4375 37.602-7.4295 16.129-8.9582 27.903-5.9492 45.822 3.0224 17.999 2.0631 27.306-4.2578 41.297-7.0319 15.565-8.5178 28.642-5.1816 45.609l2.4902 12.662-6.3086 13.154c-4.1259 8.6025-6.959 16.793-8.1836 23.664-2.5008 14.032-2.4382 38.417 0.13477 53.127 2.3745 13.575 1.9146 17.783-2.9414 26.916-8.4845 15.957-10.551 39.25-6.4316 72.504 2.2956 18.532 1.786 24.318-2.9746 33.756-8.1852 16.227-10.268 36.816-6.3262 62.547 1.5638 10.207 1.8676 18.206 1.2012 31.658-0.60896 12.292-0.369 20.748 0.75977 26.666 3.5734 18.736 18.129 36.697 34.207 42.211 7.9855 2.7387 10.99 3.0515 25.072 2.6133 17.577-0.54703 28.253-3.4749 48.629-13.336 12.018-5.8161 17.377-6.0689 29.109-1.375 4.7374 1.8953 15.284 5.0128 23.438 6.9277 13.301 3.1239 17.566 3.488 41.492 3.5508 30.05 0.07883 40.891-1.5043 63.906-9.3359 7.3848-2.5129 15.632-4.5731 18.326-4.5781 2.6946-0.00545 9.2939 1.7372 14.666 3.873s16.968 5.5558 25.768 7.5996c14.654 3.4034 18.243 3.7177 42.666 3.7344 30.118 0.02051 43.115-2.0323 67.039-10.584 7.1292-2.5483 14.944-4.6326 17.367-4.6328 2.4228-2.2e-4 10.533 2.0504 18.023 4.5566 19.129 6.4 33.221 8.8602 55.725 9.7305 30.592 1.1831 59.503-3.7498 77.711-13.258 10.534-5.5007 26.796-21.791 32.307-32.363 6.9439-13.321 8.8218-20.837 8.2695-33.08-0.42264-9.3692-1.2157-12.407-5.584-21.393-4.2303-8.7015-7.4953-12.845-19.307-24.496-23.217-22.902-46.841-37.996-68.883-44.012-15.225-4.1549-32.909-7.0195-43.326-7.0195-16.077 0-21.809-1.8161-33.471-10.604-21.549-16.237-39.202-24.623-63.871-30.34-29.268-6.7827-32.779-8.5533-40.223-20.291-4.8699-7.679-5.0819-16.598-0.61914-26.1 3.972-8.4566 6.1578-10.234 16.957-13.789 4.8294-1.59 16.228-5.9285 25.332-9.6426 25.565-10.429 28.076-11.082 33.689-8.7363 5.3043 2.2163 9.3954 8.0031 16.172 22.873 4.8632 10.672 14.893 26.859 18.449 29.779 1.2177 0.99976 1.9002 2.3244 1.5176 2.9434-0.9786 1.5834 7.2192 5.5922 9.582 4.6856 1.2376-0.47492 1.6036-0.1911 1.0039 0.77929-0.64238 1.0394-0.02326 1.2871 1.9336 0.77539 1.5824-0.41378 2.5658-0.25081 2.1875 0.36133-0.93022 1.5051 4.2673 3.054 6.2129 1.8516 0.92856-0.57389 1.1922-0.37959 0.6582 0.48437-1.0799 1.7474 3.8273 3.5292 6.0078 2.1816 0.92856-0.57388 1.1941-0.37958 0.66016 0.48438-1.0799 1.7474 3.8254 3.5312 6.0059 2.1836 0.92856-0.57388 1.1941-0.37959 0.66016 0.48437-1.0799 1.7474 3.8273 3.5293 6.0078 2.1816 1.0318-0.63773 1.1879-0.37262 0.46875 0.79101-0.80546 1.3033-0.34648 1.5566 1.7969 0.99609 1.5824-0.41378 2.5678-0.25081 2.1895 0.36133-0.93021 1.5051 4.2654 3.054 6.2109 1.8516 0.88538-0.54719 1.1951-0.3809 0.72071 0.38671-0.70284 1.1372 9.8103 6.0033 19.752 9.1426 2.1643 0.68343 2.2893 0.57197 0.66602-0.5957-1.1-0.79129-1.3994-1.4394-0.66602-1.4394 1.7833 0 5.7038 2.5729 4 2.625-1.7038 0.05218 2.2167 2.627 4 2.627 0.73333 0 0.43398-0.58209-0.66602-1.293-3.2791-2.1192-0.84551-1.5317 8.8398 2.1309 7.5063 2.8385 10.482 3.312 16.492 2.625 16.69-1.9079 35.04-14.75 42.859-29.994 4.3442-8.4691 4.4746-9.1871 4.4746-24.742 0-18.788-1.2836-23.408-12.529-45.084l-7.4707-14.4-0.1543-28.934c-0.16618-31.122-1.2475-40.912-6.5859-59.602-2.2049-7.7192-3.6995-16.994-4.1875-26-1.0135-18.702-4.5846-26.845-16.742-38.184-9.9463-9.2759-19.853-14.481-32.779-17.221-17.249-3.6558-31.524-1.9454-52.312 6.2695-9.1077 3.599-11.852 5.5005-19.229 13.32-9.1714 9.7222-18.594 26.926-22.539 41.148-2.8904 10.42-4.9191 39.241-3.1328 44.504 2.0962 6.1761 8.5015 14.63 13.182 17.395 2.3036 1.3608 7.7261 2.6829 12.301 3 6.7825 0.47018 9.0805 0.04083 13.451-2.5078 5.7505-3.3533 14.062-13.286 14.062-16.805 0-1.3245-1.3502-0.21792-3.3789 2.7676-13.007 19.141-43.279 9.4729-43.287-13.824-0.00564-16.708 19.605-26.299 35.09-17.162l4.8809 2.8789 1.3477-3.543c0.741-1.949 1.3476-4.1186 1.3476-4.8203 0-1.829 7.5008-17.483 9.582-19.998 6.7896-8.2038 30.871-10.218 37.918-3.1719 2.8154 2.8154 3.166 4.3712 3.166 14.055 0 7.7997 1.229 15.854 4.3301 28.393 4.2675 17.255 4.3284 17.962 4.3711 49.506 0.05203 38.472 1.174 44.695 11.814 65.545 8.554 16.762 9.9314 21.819 6.793 24.957-2.9333 2.9333-7.4081 2.7301-22.137-1.0078-31.291-7.9411-42.883-15.457-51.717-33.527-7.171-14.67-19.85-33.495-26.604-39.502-3.4018-3.0256-10.609-7.6196-16.016-10.209-8.7737-4.2015-11.287-4.7731-23.371-5.3106-15.118-0.67235-16.905-0.20243-58.131 15.271-38.152 14.32-46.232 19.816-57.703 39.252-10.329 17.501-14.274 40.94-9.6777 57.504 5.3356 19.229 18.837 38.717 33.871 48.891 10.722 7.2551 17.913 10.105 35.373 14.021 26.083 5.8512 36.258 10.074 52.455 21.766 26.347 19.018 31.501 21.133 56.148 23.043 41.64 3.2261 53.331 7.6227 80.275 30.186 17.196 14.4 18.357 17.405 10.275 26.609-5.4693 6.2292-8.7433 7.7365-23.994 11.037-25.133 5.4394-51.199 3.3525-81.023-6.4844-9.4159-3.1056-16.089-4.3616-26-4.8984-13.092-0.70916-13.661-0.61491-31.426 5.2559-26.827 8.8658-31.112 9.5928-55.908 9.4941-23.88-0.09505-30.568-1.3047-55.334-10.014-9.1756-3.2266-14.981-4.3641-24.666-4.832-11.901-0.57505-13.752-0.28296-30.631 4.8418-24.015 7.2913-36.187 9.4453-53.398 9.4453-17.208 0-28.79-2.0648-52.994-9.4434-16.697-5.0899-19.037-5.4775-29.555-4.9121-11.714 0.62974-16.769 2.0856-37.422 10.781-14.792 6.2281-26.744 9.3636-28.604 7.5039-0.85994-0.86025-1.438-10.473-1.5059-24.998-0.07901-16.897-0.74231-26.37-2.334-33.354-3.5481-15.568-2.7729-22.945 4.0938-38.912 6.303-14.657 7.5026-32.673 3.6504-54.818-1.1974-6.8837-2.2272-17.614-2.2891-23.848-0.10176-10.264 0.42037-12.718 5.5234-26 6.9241-18.022 7.9244-27.664 4.9336-47.506-4.1474-27.516-2.6632-41.654 6.4688-61.631 6.015-13.159 7.398-25.547 4.209-37.723-2.9926-11.425-2.6908-17.882 1.291-27.502 5.9874-14.465 7.2489-19.936 8.0625-34.973 0.60056-11.099 0.27144-16.877-1.3535-23.75-3.23-13.663-2.7951-18.971 2.4434-29.902 7.4666-15.58 9.1717-31.004 5.5176-49.896-1.0408-5.3812-3.127-12.485-4.6367-15.785-3.7389-8.1723-3.6755-15.237 0.16016-17.924 4.2365-2.9674 9.0282-2.5953 26.369 2.0449 19.778 5.2923 30.455 5.427 49.334 0.62695 7.7-1.9578 19.699-3.892 26.666-4.2988 11.264-0.65782 14.438-0.28156 28.666 3.3926 21.463 5.5423 29.803 5.568 55.232 0.17578 27.8-5.895 36.501-5.4196 61.209 3.3359 12.636 4.4777 18.188 5.8844 19.203 4.8691 0.78547-0.78547 2.128-8.5064 2.9824-17.158 0.96025-9.7238 1.8244-14.203 2.2637-11.73 0.42075 2.368 0.7919 0.237 0.91016-5.2227 0.10988-5.0722-0.20092-8.8206-0.69141-8.3301-0.4905 0.49049-1.8405 0.08591-3-0.89844-3.2945-2.7968-16.895-7.304-30.775-10.199-20.765-4.3311-39.098-3.2439-69.631 4.125l-11.633 2.8066-9.0352-2.7129c-15.139-4.547-27.008-6.8559-39.568-6.957zm327.85 4.2871c-11.536 0.01864-23.072 1.5717-24.25 4.6426-0.37809 0.9853-1.5234 1.793-2.5449 1.793-1.0215 0-1.8574 0.63899-1.8574 1.4219 0 1.6481 55.847 1.2338 56.871-0.42188 0.34016-0.55-0.25159-1-1.3164-1s-2.2597-0.84269-2.6543-1.8711c-1.177-3.0671-12.712-4.5831-24.248-4.5644zm34.801 8.5859c-1.9874-0.04488-3.2933 0.84048-3.9863 2.6465-0.60567 1.5783-15.43 1.8691-95.426 1.8691h-94.709v9.793c0 5.3859 0.39264 16.19 0.87109 24.01l0.86914 14.217 82.125-0.34375 82.125-0.3418 3.4375-6.3672c4.9079-9.0876 5.665-9.6234 9.791-6.9199 3.0671 2.0096 3.3949 2.8989 2.6289 7.125-1.6616 9.1674-5.5429 14.836-12.266 17.914-5.6521 2.5876-8.5402 2.8603-30.248 2.8633-23.329 0.00352-24.549-0.13499-43.602-4.9727-20.463-5.1956-29.938-6.0062-42.453-3.6328-15.713 2.98-32.645 13.905-41.195 26.582-4.6276 6.8609-6.276 10.643-10.756 24.654-1.1427 3.5739-1.6391 13.986-1.5547 32.666 0.18936 41.883 1.7979 86.765 3.0801 85.973 0.63129-0.39013 1.1465-0.34788 1.1465 0.09375 0 2.4726 4.2388 38.704 4.5664 39.031 0.21573 0.21572 10.44-0.44124 22.721-1.459 15.983-1.3245 22.661-2.3764 23.5-3.7012 1.6771-2.6484 1.488-6.2925-1.3828-26.518-2.5405-17.898-4.5511-49.475-6.0703-95.332-0.74521-22.494-0.62798-24.268 1.8828-28.279 3.8234-6.1081 15.922-11.94 17.953-8.6543 0.36247 0.58648-0.73329 5.996-2.4336 12.021-3.4265 12.143-3.4575 7.2643 0.67969 108.24 0.85628 20.9 1.5383 38.9 1.5156 40-0.02267 1.1 0.22252 2.8358 0.54492 3.8574 0.75347 2.3876 0.50252 2.7277 7.7793-10.48l6.2187-11.289-2.043-41.377c-1.1238-22.757-2.6491-55.176-3.3906-72.043-0.74148-16.867-1.679-34.067-2.082-38.223-0.44129-4.55-0.18639-7.8912 0.64062-8.4024 0.75527-0.46678 31.83-0.81659 69.055-0.77539 37.518 0.04155 69.462-0.47022 71.68-1.1484 2.2-0.67291 3.2824-1.2748 2.4062-1.3379-1.0401-0.07482-0.40717-2.7009 1.8203-7.5664 5.2554-11.479 7.0746-20.096 7.0918-33.592 0.01336-10.451-0.48245-13.356-3.1856-18.666-3.7215-7.3108-6.319-9.7904-18.158-17.332-4.9509-3.1537-8.6322-4.749-11.188-4.8066zm-571.95 17.85c1.4048 0 1.8828 1.0995 1.5879 3.6543-0.40066 3.4712-5.0879 6.3358-5.0879 3.1094 0-0.78709 0.74935-1.4405 1.666-1.4512 1.2069-0.01478 1.1607-0.34079-0.16992-1.1836-2.1839-1.3832-0.85163-4.1289 2.0039-4.1289zm373.29 32.635c-0.1321 0.30298-0.22397 7.1014-0.22461 18.697h0.00195c-9.4e-4 16.867 0.18832 23.951 0.42187 15.742 0.23285-8.2086 0.23456-22.008 0.00196-30.666-0.07269-2.7056-0.14113-3.9112-0.20117-3.7734zm293.79 35.805c-0.32171 0.0026-0.66018 0.07453-1.0195 0.21289-1.2271 0.47247-48.582 0.80609-105.23 0.74219l-103-0.11524v8.4883c0 4.6689 0.38858 13.961 0.86328 20.648l0.86328 12.16 68.805 0.66992c87.249 0.84992 101.12 1.4622 101.97 4.498 0.74722 2.6831 2.3125 15.021 6.7988 53.588 1.8341 15.767 9.6757 82.668 17.426 148.67s13.838 121.37 13.527 123.05c-0.70212 3.7925-1.2486 3.5027 28.062 14.908 18.225 7.0919 24.043 8.8513 25.23 7.6309 1.4937-1.5354-0.31545-16.856-12.793-108.25-6.1428-44.996-36.288-269.82-37.008-276-0.87822-7.5469-2.2383-10.911-4.4902-10.893zm-292.46 27.375c-0.13117 0.3213-0.2201 7.4176-0.2207 19.518-8.7e-4 17.6 0.18804 24.985 0.41992 16.41 0.23131-8.5746 0.23296-22.975 0.00195-32-0.07219-2.8204-0.14155-4.0738-0.20117-3.9277zm0.98633 68.852-0.17774 32.666c-0.09786 17.967-0.78384 35.067-1.5254 38-0.74156 2.9333-1.3634 6.4831-1.3809 7.8887-0.05479 4.4014 1.0212 1.7597 2.9434-7.2266 1.4388-6.7268 1.6611-15.657 0.9961-39.994l-0.85547-31.334zm106.81 38.049c0.7728 0.0264-0.14125 1.3764-2.0312 3-13.274 11.403-8.7453 33.052 8.4121 40.221 6.6193 2.7657 12.473 2.5575 19.652-0.69922l5.9629-2.7051-3.1582 3.3633c-2.9833 3.1756-7.1468 5.0161-14.766 6.5273-1.8334 0.36364-6.11-0.18037-9.502-1.207-14.712-4.4531-22.361-20.71-16.432-34.926 2.2015-5.2781 9.5212-13.654 11.861-13.574zm12.326 171.97c0.87339-0.01122 1.9589 0.58112 2.4121 1.3144 1.0231 1.6554 0.56149 1.6554-2 0-1.2017-0.77661-1.3662-1.3024-0.41211-1.3144zm81.078 33.355c-0.73334 0-0.43204 0.58014 0.66796 1.291s2.5987 1.293 3.332 1.293c0.73333 0 0.43398-0.58208-0.66602-1.293s-2.6006-1.291-3.334-1.291zm6.668 2.666c-0.73333 0-0.43398 0.58208 0.66602 1.293s2.6006 1.291 3.334 1.291c0.73334 0 0.43204-0.58014-0.66796-1.291s-2.5987-1.293-3.332-1.293z" fill="#916137"/><path d="m561.54 46.656c-252.64-0.0262-317.12 0.30606-319.93 1.6543-3.5037 1.6839-3.5315 1.8221-9.832 49.023-3.4749 26.033-6.8595 48.232-7.5215 49.332l-1.5879 10.561v3.6367c0 3.5596-6.1022 49.992-15.482 117.8-2.6944 19.478-5.4448 34.853-6.4394 36-0.9548 1.1011-1.7686 3.8147-1.8086 6.0293-0.064 3.5258-6.7808 54.417-15.043 113.97-1.4752 10.633-3.2262 23.535-3.8906 28.668-0.6644 5.1333-4.558 33.933-8.6523 64-6.6596 48.905-10.426 76.654-24.611 181.33-12.342 91.075-14.576 108.88-13.883 110.68 0.6755 1.7604 50.045 1.9509 426.96 1.6543l426.19-0.33593 0.39453-6.0312c0.2167-3.3179-2.6078-27.919-6.2773-54.668-3.6696-26.749-14.81-108.03-24.756-180.63s-19.863-144.6-22.037-160c-2.1746-15.4-7.5499-54.401-11.945-86.668-4.3954-32.267-12.525-91.667-18.066-132-5.5413-40.333-10.947-79.933-12.014-88-6.466-48.925-8.5809-61.208-10.943-63.57-2.3076-2.3076-15.555-2.408-318.82-2.4395zm0.43164 2.6777c248.75 0 313.98 0.3437 315.74 1.666 2.2586 1.6957 2.6554 4.1093 12.229 74.334 4.4157 32.392 14.423 105.3 19.398 141.33 3.6475 26.415 8.4474 61.359 20.701 150.67 2.5658 18.7 5.24 37.899 5.9414 42.666 0.70139 4.7667 2.7842 19.767 4.6289 33.334 1.8447 13.567 5.7869 42.367 8.7598 64 2.9729 21.633 6.5484 47.733 7.9473 58 1.3989 10.267 5.608 40.867 9.3516 68 3.7436 27.133 7.6858 55.933 8.7617 64 1.0759 8.0667 3.4449 25.094 5.2637 37.838 1.8188 12.744 3.3066 25.493 3.3066 28.332v5.1621h-423.92c-233.16 0-424.18-0.45-424.49-1s0.19569-6.4 1.127-13c0.93125-6.6 2.6225-18.899 3.7578-27.332 1.1353-8.4333 4.1942-30.933 6.7988-50 10.028-73.405 14.295-104.85 17.367-128 1.7518-13.2 5.3209-39.601 7.9316-58.668s6.2838-46.067 8.1621-60c1.8782-13.933 4.5636-33.733 5.9687-44 1.4051-10.267 4.0926-30.067 5.9707-44 7.7742-57.675 10.164-73.371 11.357-74.564 3.7593-3.7592 3.3235 1.1948-6.6738 75.898-3.7619 28.11-7.1857 53.942-23.424 176.67-24.73 186.9-26.868 203.02-29.412 221.67-1.1754 8.6185-1.7925 16.57-1.3711 17.668 0.67824 1.7675 48.511 1.9961 416.64 1.9961 331.11 0 416.15-0.33908 417.2-1.666 0.88954-1.1215 0.2777-9.2989-1.8691-25-1.7547-12.833-7.354-54.492-12.443-92.572-5.8996-44.143-9.8754-69.797-10.969-70.781-0.94317-0.84942-4.4148-2.2928-7.7148-3.207s-14.399-4.9803-24.666-9.0371c-10.267-4.0568-31.268-12.347-46.668-18.422-15.4-6.075-41.199-16.271-57.332-22.658-16.133-6.3873-37.434-14.787-47.334-18.666-9.9-3.8788-35.399-13.949-56.666-22.379-21.267-8.4295-43.767-17.289-50-19.688-6.2333-2.3985-12.066-5.3134-12.959-6.4766-1.4174-1.8455-1.6289-1.7155-1.666 1.0137-0.0233 1.7201-1.3068 4.9041-2.8535 7.0762-1.5467 2.1721-2.5746 4.1871-2.2832 4.4785 0.6919 0.69193 40.153 16.39 119.76 47.645 18.7 7.3415 41.499 16.303 50.666 19.912 9.1667 3.6094 20.266 7.8108 24.666 9.3379 4.4 1.5271 8.6006 3.2072 9.334 3.7324 0.73333 0.5252 5.834 2.3604 11.334 4.0781 5.5 1.7178 10.9 3.8618 12 4.7656s7.4 2.652 14 3.8848c6.6 1.2327 12.299 2.6712 12.666 3.1953 0.36667 0.52413 5.1226 1.734 10.568 2.6894 10.466 1.8362 20.341 5.2647 15.432 5.3574-1.4667 0.0277-7.7251-0.84155-13.908-1.9297-10.711-1.8848-16.439-1.8263-8.8047 0.0899 2.7475 0.68959 3.4394 1.5238 2.918 3.5176-0.37585 1.4373 1.0726 17.41 3.2207 35.494 2.1481 18.085 5.0827 42.781 6.5195 54.881 7.1653 60.341 8.3816 71.896 7.7441 73.557-0.57847 1.5074-59.331 1.75-360.37 1.4941-197.83-0.16814-359.92-0.53879-360.2-0.82422-0.28543-0.28542 0.39756-8.2524 1.5176-17.705 1.12-9.4527 2.9307-24.741 4.0234-33.973 1.0928-9.2321 1.9171-20.333 1.832-24.668-0.18306-9.3313 0.24444-13.388 10.812-102.55 2.4913-21.018 3.9402-33.53 10.729-92.666 1.389-12.1 4.0561-35.201 5.9277-51.334s4.5685-39.533 5.9922-52c5.9637-52.222 8.2344-71.835 10.734-92.666 1.4521-12.1 4.7348-40.301 7.2949-62.668 2.5602-22.367 6.2076-54.166 8.1055-70.666s4.4971-39.198 5.7754-50.439c1.6205-14.251 2.9021-20.805 4.2324-21.652 2.3753-1.5124 528.9-0.56549 550.57 0.99024l15.334 1.1015 0.98633 8c5.7857 46.929 10.194 88.846 9.5273 90.584-0.7411 1.9313 1.4434 2.1125 21.664 1.7832l22.488-0.36719 0.40429-3.4746c0.3135-2.7006-18.9-150.51-20.133-154.89-0.15936-0.56516-141.67-1.009-314.46-0.98633-269.41 0.03531-314.28-0.22689-314.9-1.8418-0.39743-1.0358-0.36415-2.2413 0.0742-2.6797 0.43836-0.43836 141.88-0.79688 314.32-0.79688zm204.75 75.227c-8.1029-0.013-16.345 0.85888-21.715 2.6211-4.2167 1.3837-7.666 3.0753-7.666 3.7578 0 1.3274 55.9 0.96555 56.725-0.36718 0.25904-0.41874-2.6488-1.9125-6.4609-3.3203-4.8163-1.7786-12.78-2.6784-20.883-2.6914zm32.744 7.7168c-1.1245 0.0652-1.8435 0.59945-2.3672 1.5352-1.1176 1.997-9.501 2.1875-95.824 2.1875h-94.602v9.793c0 5.3859 0.39264 16.19 0.87109 24.01l0.86914 14.217 164.25-0.68555 3.4375-6.3672c4.9232-9.116 5.6726-9.6628 10.498-7.6641 4.6399 1.9219 4.8872 3.4775 2.0605 12.996-2.3935 8.0598-8.8542 14.393-16.291 15.969-2.7657 0.58616-15.827 1.0312-29.027 0.98828-23.496-0.0764-24.393-0.18392-42.668-5.1348-17.086-4.6289-19.682-4.995-30.666-4.3223-16.674 1.0212-28.749 6.0157-41.473 17.156-6.4511 5.6486-14.424 18.004-17.291 26.795-1.2406 3.8037-2.8508 7.6678-3.5781 8.5859-2.6726 3.3738-0.53296 117.77 2.1934 117.27 0.93442-0.17134 2.421 6.6247 4.0234 18.395 1.3978 10.267 2.6398 18.809 2.7598 18.982 0.32167 0.46458 41.077-3.6162 43.031-4.3086 2.2255-0.78852 2.13-9.6016-0.2793-25.682-2.258-15.071-4.1601-42.731-5.6602-82.326-1.247-32.917-1.0479-37.129 1.9883-42.334 3.4884-5.9806 15.955-11.437 18.121-7.9316 0.36247 0.58648-0.73329 5.996-2.4336 12.021-3.4265 12.143-3.4575 7.2643 0.67969 108.24 0.85628 20.9 1.5383 38.9 1.5156 40s0.22252 2.8358 0.54492 3.8574c0.75347 2.3876 0.50252 2.7277 7.7793-10.48l6.2187-11.289-2.043-41.377c-1.1238-22.757-2.6491-55.176-3.3906-72.043-0.74148-16.867-1.679-34.067-2.082-38.223-0.44158-4.553-0.1856-7.8924 0.64258-8.4043 0.75582-0.46712 31.53-0.80164 68.387-0.74414 62.356 0.0972 77.915-0.42415 74.562-2.4961-0.81226-0.502 0.15326-4.3059 2.4766-9.752 4.4321-10.389 7.298-27.624 6.2617-37.664-0.39835-3.8595-2.2803-10.088-4.1816-13.84-2.9524-5.8262-4.9636-7.709-13.781-12.891-8.6237-5.0677-13.059-7.1864-15.533-7.043zm-197.33 49.691c-0.1321 0.30298-0.22397 7.1014-0.22461 18.697h2e-3c-9.4e-4 16.867 0.18832 23.951 0.42187 15.742 0.23285-8.2086 0.23456-22.008 2e-3 -30.666-0.0727-2.7056-0.14113-3.9112-0.20117-3.7734zm293.79 35.805c-0.32171 3e-3 -0.66018 0.0745-1.0195 0.21289-1.2271 0.47247-48.582 0.80609-105.23 0.74219l-103-0.11524v8.4883c0 4.6689 0.38858 13.961 0.86328 20.648l0.86328 12.16 68.805 0.66992c87.249 0.84992 101.12 1.4622 101.97 4.498 0.74722 2.6831 2.3125 15.021 6.7988 53.588 1.8341 15.767 9.6757 82.668 17.426 148.67s13.838 121.37 13.527 123.05c-0.70212 3.7925-1.2486 3.5027 28.062 14.908 18.225 7.0919 24.043 8.8513 25.23 7.6309 1.4937-1.5354-0.31545-16.856-12.793-108.25-6.1428-44.996-36.288-269.82-37.008-276-0.87822-7.5469-2.2383-10.911-4.4902-10.893zm-292.46 27.375c-0.13117 0.3213-0.2201 7.4176-0.2207 19.518-8.7e-4 17.6 0.18804 24.985 0.41992 16.41 0.23131-8.5746 0.23296-22.975 2e-3 -32-0.0722-2.8204-0.14155-4.0738-0.20117-3.9277zm0.98633 68.852-0.17774 32.666c-0.0979 17.967-0.78384 35.067-1.5254 38-0.74156 2.9333-1.3634 6.4831-1.3809 7.8887-0.0548 4.4014 1.0212 1.7597 2.9434-7.2266 1.4388-6.7268 1.6611-15.657 0.9961-39.994zm172.14 230.45c0.21289-0.0211 0.46915 0.0468 0.74414 0.2168 0.73334 0.45322 1.332 1.0887 1.332 1.4121 0 0.32339-0.5987 0.5879-1.332 0.5879-0.73333 0-1.334-0.6355-1.334-1.4121 0-0.48538 0.23503-0.76957 0.58984-0.80469zm6.666 2.666c0.21289-0.0211 0.46914 0.0488 0.74414 0.21875 0.73333 0.45323 1.334 1.0887 1.334 1.4121s-0.60065 0.58789-1.334 0.58789-1.334-0.63549-1.334-1.4121c0-0.48539 0.23502-0.77152 0.58984-0.80665zm6.666 2.666c0.21289-0.0211 0.46913 0.0488 0.74414 0.21875 0.73333 0.45323 1.334 1.0887 1.334 1.4121 0 0.32338-0.60065 0.58789-1.334 0.58789-0.73334 0-1.332-0.63549-1.332-1.4121 0-0.48538 0.23308-0.77152 0.5879-0.80664zm4 1.334c0.21289-0.0211 0.46913 0.0488 0.74414 0.21875 0.73333 0.45323 1.334 1.0887 1.334 1.4121s-0.60065 0.58789-1.334 0.58789c-0.73334 0-1.332-0.63549-1.332-1.4121 0-0.48539 0.23308-0.77152 0.5879-0.80665zm6.668 2.666c0.21289-0.0211 0.46915 0.0488 0.74414 0.21875 0.73334 0.45323 1.332 1.0887 1.332 1.4121 0 0.32338-0.5987 0.58789-1.332 0.58789-0.73333 0-1.334-0.63549-1.334-1.4121 0-0.48538 0.23503-0.77152 0.58984-0.80664zm10.744 6.2598c-0.73333 0-0.43398 0.58208 0.66602 1.293s2.6006 1.291 3.334 1.291c0.73334 0 0.43204-0.58014-0.66796-1.291s-2.5987-1.293-3.332-1.293z" fill="#2656A8"/><path d="m561.54 46.656c-252.64-0.0262-317.12 0.30606-319.93 1.6543-3.5038 1.6839-3.5316 1.8221-9.832 49.023-3.475 26.033-6.8595 48.232-7.5215 49.332l-1.5879 10.561v3.6367c0 3.5596-6.1021 49.992-15.482 117.8-2.6944 19.478-5.4448 34.853-6.4394 36-0.9549 1.1011-1.7685 3.8147-1.8086 6.0293-0.064 3.5258-6.7807 54.417-15.043 113.97-1.4752 10.633-3.2261 23.535-3.8906 28.668-0.6644 5.1333-4.558 33.933-8.6523 64-6.6595 48.905-10.426 76.654-24.611 181.33-12.342 91.075-14.576 108.88-13.883 110.68 0.6755 1.7604 50.045 1.9509 426.96 1.6543l426.19-0.33593 0.39453-6.0312c0.2168-3.3179-2.6078-27.919-6.2773-54.668s-14.81-108.03-24.756-180.63c-9.9458-72.6-19.863-144.6-22.037-160-2.1746-15.4-7.5499-54.401-11.945-86.668-4.3954-32.267-12.525-91.667-18.066-132-5.5413-40.333-10.948-79.933-12.014-88-6.4661-48.925-8.5809-61.208-10.943-63.57-2.3076-2.3076-15.555-2.408-318.82-2.4395zm176.68 1.5371c131.17-0.0035 139.31 0.47564 140.86 2.1895 1.4928 1.6495 3.2198 10.007 5.5781 27.004 3.6237 26.116 7.9193 57.374 16.668 121.28 5.9754 43.648 10.322 75.275 19.332 140.67 3.3342 24.2 7.5445 54.8 9.3555 68 1.811 13.2 6.0128 43.8 9.3379 68 3.3251 24.2 7.5238 54.8 9.332 68 12.319 89.927 20.983 152.89 30.041 218.34 3.7302 26.952 6.593 50.95 6.3633 53.332l-0.41796 4.332-424.92 0.33399c-269.05 0.21236-425.21-0.13079-425.71-0.9375-0.43302-0.70074-0.46145-2.6522-0.0625-4.3359 0.39894-1.6837 3.7444-25.561 7.4336-53.061 3.6892-27.5 7.557-56.3 8.5957-64 9.5759-70.986 13.246-98.039 16.641-122.67 2.1729-15.767 6.6742-49.067 10.004-74 3.3297-24.933 6.6394-49.233 7.3535-54 0.71412-4.7667 4.9465-35.659 9.4062-68.648 4.4597-32.99 8.4174-60.289 8.7949-60.666l44.311-268.69 315.2-0.33594c75.38-0.08038 132.78-0.13556 176.5-0.13672zm136 8.334c-2.9398 0.55883-62.336 53.127-61.797 54.758 0.25922 0.78474 6.7477 1.6702 15.016 2.0488l14.561 0.66602 0.98633 8c0.54247 4.4 3.1153 26.279 5.7168 48.619 2.9889 25.667 5.324 40.997 6.3457 41.646 2.2218 1.4119 39.29 1.3453 40.166-0.0723 0.38781-0.62751-0.16267-7.6788-1.2226-15.668-2.7116-20.438-11.969-88.723-17.742-130.86-0.62804-4.5843-1.499-8.6904-1.9336-9.125-0.0177-0.01775-0.049-0.02059-0.0957-0.01172zm-329.32 63.643c-12.195-0.13091-25.479 1.9743-46.117 6.6953l-7.627 1.7461c-2.9849 0.32877-5.5528 0.3959-8.0664 0.20703l-6.3066-1.8496c-28.38-8.3215-46.707-8.8558-74.779-2.1797-19.574 4.6549-23.143 4.6538-40-0.0156-16.672-4.618-32.503-5.1947-43.334-1.5781-30.397 10.149-42.087 37.162-30.768 71.1 5.8824 17.637 5.6493 25.434-1.209 40.322-7.1028 15.419-8.8438 27.524-6.0547 42.1 3.7898 19.806 2.5422 30.267-5.8145 48.758-4.076 9.019-5.7727 23.306-4.0605 34.189 3.2472 20.642 3.2567 20.486-1.8926 30.451-7.1601 13.857-8.7374 19.435-10.375 36.684-1.1467 12.079-1.1129 19.13 0.14843 30.15 3.4237 29.912 3.5074 28.244-2.0098 40.463-7.4867 16.581-9.6187 31.238-7.584 52.135 0.88106 9.049 2.3326 21.146 3.2246 26.883 1.633 10.502 1.2754 13.336-3.582 28.406-0.78008 2.4201-0.45845 2.7597 2.1973 2.3125 1.712-0.2883 12.113-0.0634 23.113 0.49804l20 1.0195 1.9336-4c2.7441-5.6781 3.3892-27.131 1.2227-40.666-0.99774-6.2333-1.8154-17.933-1.8184-26-4e-3 -14.142 0.19653-15.167 5.6211-28.666 6.9709-17.347 7.8992-24.841 5.1582-41.652-1.1644-7.1421-2.1172-20.287-2.1172-29.211v-16.225l6.4805-16.123c8.0259-19.97 8.9952-26.574 5.9297-40.355-2.9982-13.479-2.6416-20.232 1.5469-29.381 7.872-17.195 10.385-37.864 6.8691-56.49-3.078-16.305-2.7768-20.062 2.5957-32.281 8.7695-19.945 9.2582-42.796 1.3379-62.594-5.3959-13.488-5.6221-16.28-1.6367-20.266 4.625-4.625 10.726-4.4776 30.096 0.72656 18.473 4.9632 29.42 5.2651 44.781 1.2363 28.41-7.4511 38.116-7.5671 62.666-0.75 7.0589 1.9601 13.006 3.0323 19.453 3.1934 0.87374 0.0945 1.6497 0.15929 2.1934 0.1582 0.63784-1e-3 1.6832-0.092 2.8965-0.22265 6.9857-0.31558 14.926-1.588 25.58-3.8594 22.017-4.6941 36.139-5.3094 45.211-1.9688 3.3 1.2152 9.3006 3.3837 13.334 4.8184 4.0333 1.4346 7.9327 2.8245 8.666 3.0898 0.73333 0.26537 1.6333 0.45824 2 0.42774 0.36667-0.0306 2.0563 0.68717 3.7539 1.5957 5.7341 3.0688 8.2736 2.9004 9.6191-0.63867 0.69151-1.8188 1.1856-4.639 1.0976-6.2676-0.0878-1.6285 0.58048-9.4724 1.4844-17.43 0.95382-8.3967 1.148-14.963 0.46289-15.648-2.1756-2.1756-19.82-7.7103-33.395-10.477-7.8859-1.607-14.81-2.4918-22.127-2.5703zm222.32 4.2246c-10.143-0.0947-20.682 1.1839-24.645 3.6914-1.1757 0.74402 7.8162 1.1735 23.426 1.1191 23.371-0.0815 24.988-0.23986 20.885-2.0312-4.1278-1.8021-11.777-2.7056-19.666-2.7793zm33.846 7.6055c-0.86547 0-18.398 33.499-18.398 35.152 0 0.28818 1.8 1.2704 4 2.1816 4.56 1.8888 4.804 3.4767 1.9863 12.965-2.3935 8.0598-8.8542 14.393-16.291 15.969-2.7657 0.58616-15.827 1.0312-29.027 0.98828-23.496-0.0764-24.393-0.18392-42.668-5.1348-15.258-4.1336-19-4.8595-27.439-4.4902-0.61332 0.0212-1.268 0.0573-1.918 0.0996-0.44691 0.025-0.83196 0.0392-1.3086 0.0684-28.475 1.7439-50.392 18.669-59.459 45.914-2.924 8.7867-2.949 9.5239-2.1562 65.361 0.47005 33.105 1.3344 57.122 2.0898 58.035 0.70879 0.85703 2.361 9.857 3.6699 20.002l2.3789 18.445 5.4043-0.73242c2.9726-0.40343 12.601-1.4081 21.395-2.2324 8.7936-0.82429 16.444-1.7792 17-2.123 1.5748-0.97324 1.1972-11.242-0.93555-25.477-2.258-15.071-4.1601-42.731-5.6602-82.326-1.247-32.917-1.0479-37.129 1.9883-42.334 3.4884-5.9806 15.955-11.437 18.121-7.9316 0.36247 0.58648-0.73329 5.996-2.4336 12.021-2.9944 10.611-3.0569 11.886-1.9844 40.6 2.7452 73.494 4.1128 105.62 4.5117 106.02 0.23687 0.23686 2.7066-3.6392 5.4883-8.6133 4.8463-8.666 5.0471-9.5182 4.8047-20.402-0.35384-15.888-2.7153-66.938-4.7812-103.36-1.573-27.731-1.2811-43.27 0.85351-45.404 0.42769-0.4277 31.895-0.71688 69.928-0.64258 54.438 0.10635 69.594-0.22989 71.244-1.5762 3.9046-3.1858 9.2054-18.37 10.768-30.844 1.8299-14.612 0.88141-21.994-3.9512-30.762-3.0554-5.5434-5.3683-7.5633-14.895-13-6.2032-3.5403-11.749-6.4375-12.324-6.4375zm95.086 88.76c-1.4003-0.86542-65.78 38.13-66.496 40.277-0.4062 1.2186 3.1782 1.6289 14.209 1.6289 14.217 0 14.776 0.1088 15.402 3 0.94749 4.3751 2.806 19.063 6.791 53.668 1.9423 16.867 9.9338 85.255 17.76 151.97l14.23 121.31 23.977 9.5762c13.187 5.2673 24.726 9.6287 25.643 9.6914 2.3162 0.15828 2.3013-0.0332-3.6562-43.963-7.2125-53.183-14.547-107.64-21.99-163.26-1.8646-13.933-4.5641-34.033-5.998-44.666-3.4143-25.319-8.4358-62.774-13.406-100-5.0242-37.628-5.1551-38.431-6.4648-39.24zm-119.53 55.482c-1.9002 0.0203-3.7922 0.12441-5.666 0.3164-11.181 1.1455-31.303 7.6372-39.205 12.648-11.806 7.4874-24.385 27.287-30.15 47.459-1.4672 5.1333-3.592 16.392-4.7226 25.018-2.2935 17.498-1.816 20.514 4.7031 29.715 5.1846 7.3171 10.491 10.158 20.244 10.834 6.7825 0.47018 9.0805 0.0408 13.451-2.5078 5.7505-3.3533 14.062-13.286 14.062-16.805 0-1.3245-1.3502-0.21792-3.3789 2.7676-1.8583 2.7347-5.864 6.2381-8.9004 7.7871-15.381 7.8468-34.38-3.8701-34.387-21.207-6e-3 -16.593 18.567-27.034 33.68-18.934 2.7365 1.4667 5.2123 2.666 5.5 2.666 0.28772 0 0.91704-2.1071 1.4004-4.6836 1.3326-7.1035 7.9928-20.929 11.75-24.393 3.896-3.5914 15.138-6.8855 23.58-6.9082 7.487-0.02 17.224 4.5408 18.018 8.4395 0.32243 1.5832 0.86375 8.2789 1.2031 14.879s2.1782 18.3 4.0859 26c4.9404 19.941 6.1951 33.28 4.7734 50.771-2.0598 25.343 1.4445 43.69 12.115 63.426 8.2087 15.182 9.9948 24.584 5.1602 27.172-6.9054 3.6957-32.486-1.888-52.846-11.535-11.087-5.2534-16.344-10.758-22.967-24.047-7.3636-14.775-19.965-33.423-26.43-39.113-12.288-10.817-26.035-16.008-42.393-16.008-9.7012 0-16.891 2.1252-52.633 15.561-30.45 11.446-39.973 16.487-47.852 25.326-12.007 13.471-21.48 37.339-21.48 54.115 0 7.5961 4.7924 24.134 9.666 33.355 7.8439 14.842 26.215 31.73 40.697 37.41 3.1339 1.2292 11.535 3.4696 18.668 4.9766 18.541 3.9173 35.349 9.7406 47.551 16.475 5.8203 3.2121 11.22 5.6318 12 5.377 0.77965-0.25481 25.006 7.6613 55.073 6.8798s59.223-10.564 63.556-11.026c6.8956-0.73635 7.5827-1.0581 5.5039-2.5781-8.3621-6.1146-45.742-15.197-62.615-15.213-17.319-0.0165-22.035-1.6174-36.307-12.334-7.22-5.4217-15.848-11.411-19.172-13.311-11.555-6.6017-29.808-13.273-46.814-17.107-9.4093-2.1216-19.083-4.6825-21.498-5.6914-10.82-4.521-20.621-20.383-19.164-31.014 0.90449-6.599 5.9804-17.429 9.7109-20.719 1.3626-1.2017 4.5779-2.6178 7.1445-3.1465 6.8231-1.4054 35.448-12.415 44.236-17.014 9.922-5.1922 17.706-6.0082 23.373-2.4492 3.3619 2.1112 6.4197 7.0779 14.285 23.203 11.383 23.337 19.859 34.008 29.771 37.484 3.1167 1.093 5.6768 1.5643 5.6875 1.0469 0.0112-0.51747 0.46123-0.30601 1 0.46875 1.3124 1.8873 21.695 10.051 23.031 9.2246 0.57942-0.35809 1.2627-0.0205 1.5195 0.75s1.8081 1.5015 3.4473 1.625c1.6391 0.12347 2.9805 0.76224 2.9805 1.418 0 0.65574 0.9 0.84595 2 0.42383 1.1-0.42211 2-0.15009 2 0.60351s0.55952 1.0235 1.2422 0.60157c0.68266-0.42192 1.6238-0.14593 2.0918 0.61132 0.46801 0.75726 1.4091 1.0313 2.0918 0.60938 0.68266-0.4219 1.2422-0.0972 1.2422 0.72266 0 0.81991 0.55759 1.1465 1.2402 0.7246 0.68267-0.42192 1.6238-0.14787 2.0918 0.60938 0.46801 0.75725 1.4111 1.0313 2.0938 0.60938 0.68265-0.42193 1.2402-0.0953 1.2402 0.7246 0 0.81992 0.55758 1.1446 1.2402 0.72266 0.68267-0.42192 1.6257-0.14788 2.0938 0.60938 0.46802 0.75716 1.368 1.0586 2 0.66796 0.63199-0.39058 1.532-0.0912 2 0.66602 0.46802 0.75725 1.4091 1.0313 2.0918 0.60938 0.68265-0.42193 1.2402-0.0317 1.2402 0.86718 0 0.89884 0.39638 1.2403 0.8789 0.75782 0.48253-0.48253 1.6819-0.20934 2.666 0.60742 0.98415 0.81676 1.7891 1.0897 1.7891 0.60742 0-0.48225 1.35-0.13376 3 0.77344 4.6272 2.5441 6.3323 2.8347 15.941 2.7148 16.473-0.20554 36.139-11.976 44.395-26.57 10.192-18.018 8.0048-43.668-5.8789-68.965-7.8124-14.234-8.5583-18.306-8.2598-45.066 0.29971-26.867-1.0434-39.389-6.4727-60.336-2.211-8.5302-4.1469-20.245-4.627-28-0.6334-10.231-1.5819-14.885-4.0742-20-9.3419-19.174-34.949-33.302-59.504-33.75-0.63503-0.0116-1.2689-0.0146-1.9023-8e-3zm-65.355 75.807c0.0966 3e-3 0.16761 0.0277 0.21289 0.0703 0.0905 0.0852 0.0805 0.24503-0.0176 0.46289-0.24523 0.54465-1.0453 1.452-2.2266 2.4668-0.40222 0.34553-0.7886 0.70081-1.1582 1.0644-0.14221 0.13991-0.27079 0.28724-0.40821 0.42969-0.22671 0.23505-0.45621 0.4673-0.66992 0.70898-0.12379 0.13995-0.23601 0.28566-0.35547 0.42774-0.2078 0.24724-0.4166 0.49463-0.61133 0.74804-0.1258 0.16363-0.24094 0.33197-0.36132 0.49805-0.17263 0.23832-0.34631 0.47564-0.50782 0.71875-0.12666 0.19051-0.2434 0.38483-0.36328 0.57813-0.13568 0.21898-0.27338 0.43777-0.40039 0.66015-0.1333 0.23316-0.25509 0.47036-0.37891 0.70703-0.0965 0.18474-0.19633 0.36794-0.2871 0.55469-0.12349 0.25369-0.2367 0.51041-0.34961 0.76758-0.0818 0.18644-0.16402 0.3724-0.24024 0.56055-0.1081 0.26641-0.20762 0.53511-0.30469 0.80468-0.0617 0.17158-0.12247 0.34287-0.17968 0.51563-0.0968 0.29152-0.18538 0.58432-0.26953 0.87891-0.0432 0.15148-0.0871 0.30285-0.12696 0.45507-0.0864 0.32921-0.1634 0.65991-0.23437 0.99219-0.024 0.11258-0.0481 0.225-0.0703 0.33789-0.0709 0.35934-0.13239 0.71994-0.18554 1.082-0.014 0.0957-0.0283 0.19121-0.041 0.28711-0.0484 0.36236-0.0883 0.72553-0.11914 1.0898-9e-3 0.10934-0.0158 0.21864-0.0234 0.32812-0.0265 0.37708-0.0449 0.75454-0.0527 1.1328-1e-3 0.0645-1e-3 0.12887-2e-3 0.19336-5e-3 0.41084-9.8e-4 0.82118 0.0156 1.2324 2e-3 0.0436 4e-3 0.0872 6e-3 0.13086 0.0198 0.43139 0.0483 0.86226 0.0918 1.293 2e-3 0.0183 6e-3 0.0364 8e-3 0.0547 0.0467 0.45235 0.10517 0.90313 0.17773 1.3535 1.1541 7.1634 5.5535 14.003 12.709 18.104 0.0932 0.0534 0.19105 0.10184 0.28516 0.1543 0.38367 0.21388 0.77087 0.42515 1.1699 0.62304 2e-3 1e-3 4e-3 3e-3 6e-3 4e-3 0.5346 0.26496 1.0826 0.51523 1.6445 0.75 6.6192 2.7657 12.473 2.5575 19.652-0.69922l5.9629-2.7051-0.0684 0.0723-1.457 1.5527-1.6328 1.7383c-2.9833 3.1756-7.1468 5.0161-14.766 6.5273-1.2195 0.24188-3.5217 0.0768-5.9238-0.35938-3e-3 -4.6e-4 -6e-3 -1e-3 -0.01-2e-3 -0.54277-0.0986-1.0894-0.21354-1.6309-0.33789-0.0971-0.0225-0.19438-0.0451-0.29101-0.0684-0.56088-0.13416-1.1158-0.27883-1.6465-0.43945-0.61176-0.18517-1.2067-0.39775-1.793-0.62305-0.12506-0.0479-0.24914-0.0968-0.37304-0.14648-0.54872-0.22062-1.0892-0.45325-1.6152-0.70703-0.0211-0.0102-0.0434-0.0191-0.0645-0.0293-0.0539-0.0262-0.10842-0.0516-0.16211-0.0781-3.8014-1.8791-6.972-4.6172-9.3672-7.8848-6e-3 -7e-3 -0.01-0.0145-0.0156-0.0215-1.9766-2.7029-3.4202-5.768-4.2461-9.0156-0.81114-3.1888-1.0285-6.5503-0.5664-9.916-1.4e-4 7e-3 1.3e-4 0.0147 0 0.0215 0.0712-0.52193 0.16016-1.0449 0.26367-1.5664 0.0133-0.0665 0.0292-0.13274 0.043-0.19922 0.0914-0.44233 0.19522-0.88321 0.31054-1.3242 0.029-0.11002 0.0574-0.22017 0.0879-0.33007 0.11606-0.42114 0.24614-0.84078 0.38477-1.2598 0.0352-0.10602 0.0668-0.2125 0.10352-0.31836 0.17642-0.51099 0.36694-1.021 0.57812-1.5273 2.2014-5.2781 9.5213-13.654 11.861-13.574zm186.3 263.16c-2.2522-0.0167-2.1622 0.59088 1.7246 1.5664 2.7475 0.68959 3.4394 1.5238 2.918 3.5176-0.37585 1.4373 1.0726 17.41 3.2207 35.494 2.1481 18.085 5.0827 42.781 6.5195 54.881 7.1653 60.341 8.3816 71.896 7.7441 73.557-0.57847 1.5074-59.331 1.75-360.37 1.4941-197.83-0.16814-359.92-0.53879-360.2-0.82422-0.28543-0.28542 0.40235-8.2524 1.5293-17.705 5.9656-50.038 6.4226-55.322 4.9082-56.836-0.82911-0.82916-1.7098-1.2475-1.9551-0.92968-0.24524 0.31776-6.7618 10.777-14.482 23.244-25.676 41.459-37.342 59.967-39.943 63.365-1.4162 1.8505-2.9374 5.6012-3.3809 8.334l-0.80664 4.9688h415.51c337.23 0 415.51-0.32248 415.51-1.7109 0-0.94092-1.818-15.192-4.0391-31.668-2.2211-16.476-7.3545-54.554-11.408-84.621-4.0537-30.067-7.7233-57.542-8.1543-61.057-0.49059-4-1.617-6.8365-3.0137-7.584-1.227-0.65669-10.419-2.1428-20.428-3.3027-10.008-1.16-21.316-2.6992-25.127-3.4219-2.7218-0.51618-4.9163-0.7517-6.2676-0.76172zm-211.65-2.6113 9.418 8.8086 4.666 3.9199c7.2455 6.0861 18.456 9.251 38 10.725 26.359 1.9874 39.34 4.6282 50.666 10.307 17.126 8.5866 44.668 33.017 44.668 39.623 0 6.0673-12.068 17.232-21.334 19.738-30.787 8.327-56.594 7.4582-89.951-3.0312-25.426-7.9954-33.478-8.0792-56.049-0.58594-23.766 7.89-40.235 10.586-62 10.154-15.68-0.31116-29.129-2.9527-50.666-9.9551-20.899-6.7951-32.777-7.1901-50.668-1.6816-21.105 6.4981-24.47 7.2694-41.152 9.4199-24.047 3.0999-42.602 0.95104-71.514-8.2812-14.225-4.5424-29.526-5.9408-39.512-3.6113-4.2261 0.98588-13.397 4.1697-20.381 7.0762-11.865 4.9381-30.23 10.779-33.893 10.779-3.3485 0-4.6323-7.7249-4.877-29.334-0.17474-15.434-0.95872-25.183-2.627-32.666-1.6304-7.3135-2.155-13.601-1.6699-20l6.959-25.334c-12.069-2.1469-32.344-4.2938-36.206-6.4407-12.581 0.63602-16.051 24.99-16.364 25.279-0.59052 0.54359-0.56474 6.1653 0.26953 59.83 0.57153 36.763 1.1418 41.269 6.5098 51.445 6.1162 11.595 16.498 21.003 27.371 24.801 8.1196 2.836 10.86 3.1193 25.754 2.6699 17.958-0.54179 22.665-1.8443 48.666-13.455 12.372-5.5247 16.613-5.8432 26.283-1.9766 20.361 8.1412 43.077 12.18 68.383 12.156 22.685-0.0213 39.19-2.6664 61.83-9.9043 19.16-6.1254 20.299-6.1048 39.504 0.70508 41.561 14.737 84.009 14.555 128.81-0.55469 17.568-5.9247 22.053-6.2838 30.521-2.4375 15.882 7.2131 44.293 12.239 69.332 12.264 43.13 0.042 73.089-10.265 90.537-31.146 18.861-22.573 23.389-42.391 14.539-63.648-3.8194-9.1746-8.1591-9.6813-19-24.727-10.087-13.999-44.249-37.08-50.693-37.654-61.067 0.91706-72.283 8.7002-124.13 6.7246z" fill="#811035"/><path d="m561.54 46.656c-252.64-0.02621-317.12 0.30606-319.93 1.6543-3.5038 1.6839-3.5316 1.8221-9.832 49.023-3.475 26.033-6.8595 48.232-7.5215 49.332l-1.5879 10.561v3.6367c0 3.5596-6.1021 49.992-15.482 117.8-2.6944 19.478-5.4448 34.853-6.4394 36-0.9549 1.1011-1.7685 3.8147-1.8086 6.0293-0.064 3.5258-6.7807 54.417-15.043 113.97-1.4752 10.633-3.2261 23.535-3.8906 28.668-0.6644 5.1333-4.558 33.933-8.6523 64-6.6595 48.905-10.426 76.654-24.611 181.33-12.342 91.075-14.576 108.88-13.883 110.68 0.6755 1.7604 50.045 1.9509 426.96 1.6543l426.19-0.33593 0.39453-6.0312c0.2168-3.3179-2.6078-27.919-6.2773-54.668s-14.81-108.03-24.756-180.63c-9.9458-72.6-19.863-144.6-22.037-160-2.1746-15.4-7.5499-54.401-11.945-86.668-4.3954-32.267-12.525-91.667-18.066-132-5.5413-40.333-10.948-79.933-12.014-88-6.4661-48.925-8.5809-61.208-10.943-63.57-2.3076-2.3076-15.555-2.408-318.82-2.4395zm176.68 1.5371c131.17-0.0035 139.31 0.47564 140.86 2.1895 1.4928 1.6495 3.2198 10.007 5.5781 27.004 3.6237 26.116 7.9193 57.374 16.668 121.28 5.9754 43.648 10.322 75.275 19.332 140.67 3.3342 24.2 7.5445 54.8 9.3555 68 1.811 13.2 6.0128 43.8 9.3379 68 3.3251 24.2 7.5238 54.8 9.332 68 12.319 89.927 20.983 152.89 30.041 218.34 3.7302 26.952 6.593 50.95 6.3633 53.332l-0.41796 4.332-424.92 0.33399c-269.05 0.21236-425.21-0.13079-425.71-0.9375-0.43302-0.70074-0.46145-2.6522-0.0625-4.3359 0.39894-1.6837 3.7444-25.561 7.4336-53.061 3.6892-27.5 7.557-56.3 8.5957-64 9.5759-70.986 13.246-98.039 16.641-122.67 2.1729-15.767 6.6742-49.067 10.004-74 3.3297-24.933 6.6394-49.233 7.3535-54 0.71412-4.7667 4.9465-35.659 9.4062-68.648 4.4597-32.99 8.4174-60.289 8.7949-60.666l44.311-268.69 315.2-0.33594c75.38-0.08038 132.78-0.13556 176.5-0.13672zm136 8.334c-2.9398 0.55883-62.336 53.127-61.797 54.758 0.25922 0.78474 6.7477 1.6702 15.016 2.0488l14.561 0.66602 0.98633 8c0.54247 4.4 3.1153 26.279 5.7168 48.619 2.9889 25.667 5.324 40.997 6.3457 41.646 2.2218 1.4119 39.29 1.3452 40.166-0.0723 0.38781-0.62751-0.16267-7.6788-1.2226-15.668-2.7116-20.438-11.969-88.723-17.742-130.86-0.62804-4.5843-1.499-8.6904-1.9336-9.125-0.0177-0.01775-0.049-0.02059-0.0957-0.01172zm21.93 164.23c-1.4003-0.86542-65.78 38.13-66.496 40.277-0.4062 1.2186 3.1782 1.6289 14.209 1.6289 14.217 0 14.776 0.1088 15.402 3 0.94748 4.3751 2.806 19.063 6.791 53.668 1.9423 16.867 9.9338 85.255 17.76 151.97l14.23 121.31 23.977 9.5762c13.187 5.2673 24.726 9.6287 25.643 9.6914 2.3162 0.15828 2.3013-0.0332-3.6562-43.963-7.2125-53.183-14.547-107.64-21.99-163.26-1.8646-13.933-4.5641-34.033-5.998-44.666-3.4143-25.319-8.4358-62.774-13.406-100-5.0242-37.628-5.1551-38.431-6.4648-39.24zm1.4121 394.45c-2.2522-0.0167-2.1622 0.59088 1.7246 1.5664 2.7475 0.68959 3.4394 1.5238 2.918 3.5176-0.37585 1.4373 1.0726 17.41 3.2207 35.494 2.1481 18.085 5.0827 42.781 6.5195 54.881 7.1653 60.341 8.3816 71.896 7.7441 73.557-0.57847 1.5074-59.331 1.75-360.37 1.4941-197.83-0.16814-359.92-0.53879-360.2-0.82422-0.28543-0.28542 0.40235-8.2524 1.5293-17.705 5.9656-50.038 6.4226-55.322 4.9082-56.836-0.82911-0.82916-1.7098-1.2475-1.9551-0.92968-0.24524 0.31777-6.7618 10.777-14.482 23.244-25.676 41.459-37.342 59.967-39.943 63.365-1.4162 1.8505-2.9374 5.6012-3.3809 8.334l-0.80664 4.9688h415.51c337.23 0 415.51-0.32248 415.51-1.7109 0-0.94092-1.818-15.192-4.0391-31.668-2.2211-16.476-7.3545-54.554-11.408-84.621-4.0537-30.067-7.7233-57.542-8.1543-61.057-0.49059-4-1.617-6.8365-3.0137-7.584-1.227-0.65669-10.419-2.1428-20.428-3.3027-10.008-1.16-21.316-2.6992-25.127-3.4219-2.7218-0.51618-4.9163-0.7517-6.2676-0.76172z" fill="#2C4C81"/><path d="m0 420v-420h1120v840h-1120zm986.39 394.63c0.21674-3.3179-2.6082-27.918-6.2777-54.667-3.6695-26.749-14.809-108.03-24.755-180.63s-19.863-144.6-22.037-160c-2.1746-15.4-7.55-54.4-11.945-86.667-4.3954-32.267-12.525-91.667-18.067-132-5.5413-40.333-10.947-79.933-12.013-88-6.466-48.925-8.5804-61.208-10.943-63.571-2.3076-2.3076-15.555-2.409-318.82-2.4405-252.64-0.02621-317.12 0.30752-319.93 1.6558-3.5038 1.6839-3.5312 1.8206-9.8316 49.022-3.4749 26.033-6.8597 48.233-7.5216 49.333l-1.5877 10.56v3.636c0 3.5596-6.103 49.994-15.483 117.8-2.6944 19.478-5.4446 34.853-6.4392 36-0.95486 1.1011-1.7689 3.814-1.8089 6.0286-0.0637 3.5258-6.7809 54.418-15.043 113.97-1.4752 10.633-3.2257 23.533-3.8902 28.667-0.66443 5.1333-4.5579 33.933-8.6522 64-6.6596 48.905-10.426 76.655-24.611 181.33-12.342 91.075-14.575 108.88-13.882 110.68 0.67551 1.7604 50.043 1.9517 426.95 1.6551l426.19-0.33533zm-270.56-414.08c-14.712-4.4531-22.361-20.71-16.432-34.926 2.2014-5.2781 9.5206-13.656 11.861-13.576 0.77281 0.0264-0.14124 1.3764-2.0312 3-13.273 11.403-8.7457 33.053 8.4117 40.222 6.6193 2.7657 12.474 2.5574 19.653-0.69938l5.9621-2.7045-3.1582 3.3617c-2.9833 3.1756-7.1472 5.0162-14.766 6.5274-1.8333 0.36364-6.1086-0.17883-9.5005-1.2055z" fill="#191919"/></svg>
