<svg xmlns="http://www.w3.org/2000/svg" width="512" height="512" version="1.1" viewBox="0 0 512 512">
 <rect style="fill:#FFFFFF" width="512" height="512" x="0" y="0" rx="47.729" ry="47.729"/>
 <path style="fill:#333333" d="m80.129493 327.21318c-0.161305-0.16089-0.292878-32.22604-0.292878-71.25522 0-64.33768 0.05942-70.98484 0.635139-71.20575 1.084886-0.41634 37.505816-0.26777 42.973666 0.17556 6.2184 0.50383 9.92906 1.21019 15.01551 2.8579 18.55547 6.01087 32.25394 21.09023 37.51166 41.293 1.84997 7.1086 2.03969 9.61071 2.03969 26.90296 0 17.59332-0.16789 19.67616-2.22665 27.64796-5.02787 19.46683-18.65226 34.47747-36.92316 40.68007-8.39524 2.85002-8.5698 2.86529-34.74093 3.039-13.034283 0.0863-23.830582 0.0235-23.991773-0.13566zm50.398407-6.1286c11.74438-2.61832 21.33868-8.35027 28.74509-17.17317 6.67147-7.94744 10.69312-16.8256 12.79851-28.2542 0.59488-3.22932 0.70058-6.24799 0.68874-19.67529-0.0164-17.60265-0.35069-20.88045-2.94611-28.81263-5.30154-16.20246-17.37998-28.84645-32.65224-34.18117-7.47771-2.61197-8.00823-2.65741-31.02487-2.65741h-20.879955l-0.101842 65.6268c-0.08097 52.22867 0.0011 65.69572 0.401313 65.96449 0.276912 0.18555 9.628057 0.26952 20.780754 0.18614 19.03062-0.1421 20.51815-0.20493 24.19011-1.02369zm68.24376 5.26663c0.0941-0.60729 8.51701-14.44663 18.71699-30.75402 10.19997-16.30744 18.54402-29.85928 18.54237-30.11524-0.002-0.25603-1.46077-0.87148-3.24251-1.36774-12.99673-3.61998-23.62971-14.65538-27.07364-28.09841-1.57997-6.16718-1.48456-15.45458 0.22573-21.98243 4.01437-15.32116 16.46866-25.52225 34.9118-28.59566 3.09251-0.51557 8.54874-0.67107 28.82394-0.82257 13.75512-0.10275 25.45491-0.0746 25.99949 0.0617l0.99014 0.24838v142.56843l-2.50961-0.11978-2.50961-0.11979-0.20095-30.31596-0.20095-30.31602h-49.30801l-18.20892 29.31219c-10.01496 16.12165-18.57622 29.80901-19.02511 30.41637-0.74666 1.01012-1.0414 1.10419-3.45969 1.10419h-2.64354zm92.47364-100.6853v-35.3352h-23.69064c-25.36611 0-26.429 0.0675-32.92601 2.10115-10.30678 3.22562-18.25499 9.98659-21.95107 18.67227-2.58581 6.07646-3.47137 15.17378-2.14953 22.08155 2.94737 15.40267 15.07007 25.98004 31.6175 27.58719 1.82853 0.17734 13.62405 0.30182 26.21219 0.27539l22.88756-0.047zm28.52627 101.41573c-0.31597-0.51146 52.59136-141.80171 53.25698-142.22374 0.67537-0.42807 5.18521-0.44218 5.85326-0.0177 0.63963 0.40636 53.58388 141.75909 53.28027 142.25029-0.12385 0.20083-1.29756 0.36524-2.60772 0.36524-1.84801 0-2.48209-0.16031-2.82791-0.71387-0.245-0.39284-3.90577-9.9241-8.13452-21.18105l-7.68871-20.4672-34.78233-0.10275c-27.52941-0.0811-34.86382 0.002-35.17314 0.40166-0.21528 0.27716-3.78058 9.62902-7.92357 20.78174-4.14299 11.15267-7.71634 20.50344-7.94078 20.77948-0.47676 0.58603-4.96177 0.69456-5.31183 0.12802zm88.64262-48.11174c0.18222-0.3265-31.45305-85.34188-32.14852-86.39453-0.35509-0.53728-0.51969-0.41044-1.0392 0.80051-0.75183 1.75251-31.60638 84.20228-31.88096 85.19248-0.18445 0.66508 1.54846 0.70271 32.35274 0.70271 17.90113 0 32.62335-0.13563 32.71594-0.30122z"/>
</svg>
