<svg width="64" height="64" version="1.1" viewBox="0 0 16.933 16.933" xmlns="http://www.w3.org/2000/svg" xmlns:xlink="http://www.w3.org/1999/xlink"><defs><linearGradient id="a" x1=".72389" x2="15.835" y1="288.91" y2="288.91" gradientTransform="translate(-1.4e-7 -279.34)" gradientUnits="userSpaceOnUse"><stop stop-color="#fd4949" offset="0"/><stop stop-color="#fd7d00" offset=".7"/><stop stop-color="#f8de68" offset="1"/></linearGradient><clipPath id="h"><path d="m111 119h177v23h-177z"/></clipPath><clipPath id="g"><path d="m177 130h45v89h-45z"/></clipPath><clipPath id="e"><path d="m111 207h177v89h-177z"/></clipPath><clipPath id="i"><rect width="384" height="384"/></clipPath><g clip-path="url(#i)"></g><linearGradient id="c" x1="17.346" x2="2.9858" y1="292.85" y2="288.17" gradientTransform="translate(0,-280.07)" gradientUnits="userSpaceOnUse"><stop stop-color="#fd7d00" offset="0"/><stop stop-color="#ffd86e" offset="1"/></linearGradient><linearGradient id="b" x1="-1.2564" x2="5.1789" y1="13.354" y2="10.064" gradientUnits="userSpaceOnUse"><stop stop-color="#fd7d00" offset="0"/><stop stop-color="#ff7e00" stop-opacity="0" offset="1"/></linearGradient></defs><g shape-rendering="auto"><path d="m0.39648 6.24v5.9102h1.5254v-2.9238h0.66797v0.73047h0.73047v2.1934h1.5234v-0.73047h0.66797v0.73047h3.7168v-0.73047h0.66797v0.73047h6.6406v-5.9102h-2.9863v1.4629h-1.4609v1.4609h-1.4004v-1.4609h-1.5234v0.73046h-0.66797v-0.73046h-2.9863v0.73046h-0.66797v-2.1934h-1.5234v1.4629h-0.66797v-0.73047h-0.73047v-0.73243z" color="#000000" color-rendering="auto" dominant-baseline="auto" fill="url(#a)" image-rendering="auto" solid-color="#000000" style="font-feature-settings:normal;font-variant-alternates:normal;font-variant-caps:normal;font-variant-ligatures:normal;font-variant-numeric:normal;font-variant-position:normal;isolation:auto;mix-blend-mode:normal;paint-order:stroke markers fill;shape-padding:0;text-decoration-color:#000000;text-decoration-line:none;text-decoration-style:solid;text-indent:0;text-orientation:mixed;text-transform:none;white-space:normal"/><path d="m0.39648 5.51v5.9102h1.5254v-2.9238h0.66797v0.73047h0.73047v2.1934h1.5234v-0.73047h0.66797v0.73047h3.7168v-0.73047h0.66797v0.73047h6.6406v-5.9102h-2.9863v1.4629h-1.4609v1.4609h-1.4004v-1.4609h-1.5234v0.73046h-0.66797v-0.73046h-2.9863v0.73046h-0.66797v-2.1934h-1.5234v1.4629h-0.66797v-0.73047h-0.73047v-0.73243z" color="#000000" color-rendering="auto" dominant-baseline="auto" fill="url(#c)" image-rendering="auto" solid-color="#000000" style="font-feature-settings:normal;font-variant-alternates:normal;font-variant-caps:normal;font-variant-ligatures:normal;font-variant-numeric:normal;font-variant-position:normal;isolation:auto;mix-blend-mode:normal;paint-order:stroke markers fill;shape-padding:0;text-decoration-color:#000000;text-decoration-line:none;text-decoration-style:solid;text-indent:0;text-orientation:mixed;text-transform:none;white-space:normal"/><path d="m0.39648 5.51v5.9102h1.5254v-2.9238h0.66797v0.73047h0.73047v2.1934h1.5234v-0.73047h0.66797v0.73047h3.7168v-0.73047h0.66797v0.73047h6.6406v-5.9102h-2.9863v1.4629h-1.4609v1.4609h-1.4004v-1.4609h-1.5234v0.73046h-0.66797v-0.73046h-2.9863v0.73046h-0.66797v-2.1934h-1.5234v1.4629h-0.66797v-0.73047h-0.73047v-0.73243z" color="#000000" color-rendering="auto" dominant-baseline="auto" fill="url(#b)" image-rendering="auto" solid-color="#000000" style="font-feature-settings:normal;font-variant-alternates:normal;font-variant-caps:normal;font-variant-ligatures:normal;font-variant-numeric:normal;font-variant-position:normal;isolation:auto;mix-blend-mode:normal;paint-order:stroke markers fill;shape-padding:0;text-decoration-color:#000000;text-decoration-line:none;text-decoration-style:solid;text-indent:0;text-orientation:mixed;text-transform:none;white-space:normal"/></g><path d="m0.79375 5.68v5.1149h0.7307v-3.6535h0.7307v-0.73071h-0.7307v-0.7307zm1.4614 1.4614v0.7307h0.7307v-0.7307zm0.7307 0.7307v0.73071h0.7307v2.1921h0.7307v-5.1149h-0.7307v2.1921zm10.962-2.1921v3.6535h0.7307v-3.6535zm1.4614 0v3.6535h0.7307v-3.6535zm-9.4997 1.4614v0.7307h2.1921v-0.7307h-1.4614zm2.1921 0.7307v0.73071h-2.1921v-0.73071h-0.7307v2.1921h0.7307v-0.73071h2.9228v-1.4614zm-2.1921 2.1921v0.7307h2.9228v-0.7307h-2.1921zm3.6535-2.9228v2.9228h0.7307v-2.9228zm0.7307 2.9228v0.7307h2.9233v-3.6535h-0.7307v2.9228h-0.73122v-1.4614h-0.7307v1.4614zm3.654 0v0.7307h0.7307v-0.7307zm1.4614 0v0.7307h0.7307v-0.7307z" fill="#020100" opacity=".3" style="paint-order:stroke markers fill"/><path d="m0.79374 5.9091v5.1148h0.73069v-3.6535h0.73069v-0.73069h-0.73069v-0.73069zm1.4614 1.4614v0.73069h0.73069v-0.73069zm0.73069 0.73069v0.73069h0.73069v2.1921h0.73069v-5.1148h-0.73069v2.1921zm10.962-2.1921v3.6535h0.73069v-3.6535zm1.4614 0v3.6535h0.73069v-3.6535zm-9.4995 1.4614v0.73069h2.1921v-0.73069h-1.4614zm2.1921 0.73069v0.73069h-2.1921v-0.73069h-0.73069v2.1921h0.73069v-0.73069h2.9228v-1.4614zm-2.1921 2.1921v0.73069h2.9228v-0.73069h-2.1921zm3.6536-2.9228v2.9228h0.73069v-2.9228zm0.73069 2.9228v0.73069h2.9233v-3.6535h-0.73069v2.9228h-0.73122v-1.4614h-0.73069v1.4614zm3.6541 0v0.73069h0.73069v-0.73069zm1.4614 0v0.73069h0.73069v-0.73069z" fill="#020100" stroke-width=".26458" style="paint-order:stroke markers fill"/></svg>
