<svg xmlns="http://www.w3.org/2000/svg" width="1120" height="840" version="1.1" viewBox="0 0 1120 840">
 <path style="fill:#f7f7f9" d="M 0,420 V 0 h 560 560 V 420 840 H 560 0 Z"/>
 <path d="M 561.53516,46.65625 C 308.898,46.63004 244.41281,46.962306 241.60742,48.310547 c -3.50376,1.683883 -3.5316,1.822131 -9.83203,49.023437 -3.47493,26.033346 -6.8595,48.232036 -7.52148,49.332036 l -1.58789,10.56054 v 3.63672 c 0,3.55956 -6.10221,49.99245 -15.48243,117.80078 -2.6944,19.47753 -5.44483,34.85303 -6.43945,36 -0.95486,1.10112 -1.76853,3.8147 -1.80859,6.0293 -0.0637,3.52582 -6.78071,54.41674 -15.04297,113.97266 -1.47517,10.63333 -3.2262,23.53462 -3.89063,28.66796 -0.66443,5.13333 -4.55806,33.93333 -8.65234,64 -6.65957,48.90512 -10.42575,76.65355 -24.61133,181.33204 -12.34204,91.07451 -14.57551,108.87648 -13.88281,110.68164 0.67551,1.76036 50.04454,1.9509 426.95508,1.65429 L 986,820.66602 l 0.39453,-6.03125 c 0.21674,-3.31786 -2.60783,-27.91917 -6.27734,-54.66797 -3.66952,-26.7488 -14.80998,-108.03282 -24.75586,-180.63282 -9.94588,-72.6 -19.86256,-144.6 -22.03711,-160 -2.17456,-15.4 -7.54991,-54.4013 -11.94531,-86.66796 -4.39542,-32.26667 -12.52512,-91.66667 -18.06641,-132 -5.54131,-40.33334 -10.94755,-79.93334 -12.01367,-88 -6.46604,-48.924885 -8.58084,-61.207805 -10.94336,-63.570317 -2.30763,-2.307628 -15.5548,-2.407989 -318.82031,-2.439453 z M 277.26758,112 H 542.4707 c 210.54535,0 265.48441,0.34292 266.56836,1.66602 0.75098,0.91666 1.79412,5.71796 2.31836,10.66796 1.0693,10.09654 0.49989,10.6254 -7.64648,7.11133 -11.95458,-5.1568 -14.14434,-5.98777 -19.71094,-7.46875 -12.83169,-3.41383 -39.70796,-0.84939 -50.93359,4.85938 -2.90398,1.47682 -15.94871,1.83008 -67.4336,1.83008 h -63.83203 l -9.90039,-3.38672 c -11.21279,-3.83541 -28.97112,-7.92359 -40,-9.21094 -8.53925,-0.99675 -25.61371,0.85296 -43.90039,4.75586 -20.54296,4.38445 -23.41482,4.43681 -36.28711,0.67969 -25.81195,-7.53386 -41.66206,-7.53155 -73.43555,0.008 -15.90375,3.77372 -19.94674,3.67578 -35.61132,-0.86328 C 357.1552,121.0516 346.98036,119.44128 340,119.0625 c -10.70341,-0.5808 -14.0106,-0.23524 -21.33398,2.22852 -32.09095,10.79614 -44.79976,39.40533 -32.59571,73.375 5.33898,14.86089 5.24604,26.1526 -0.30273,36.75195 -8.37628,16.00047 -10.22737,30.75466 -6.3457,50.58203 2.82377,14.42379 1.66998,23.46933 -4.98047,39.03516 -4.67997,10.95381 -5.46355,14.24361 -6.0586,25.43945 -0.47909,9.01403 -0.0483,15.84924 1.44141,22.85937 l 2.125,10 -6.04297,12.32813 c -3.32385,6.78068 -6.90164,16.38133 -7.95117,21.33398 -2.48106,11.70789 -2.50779,42.87307 -0.0488,58.02149 2.09818,12.92581 1.84554,14.47225 -4.59375,28.05859 -2.98559,6.29934 -4.91465,13.23227 -6.30469,22.66602 -2.02146,13.71905 -1.53101,25.22946 2.3086,54.25781 1.35306,10.22939 0.11631,17.92749 -4.49805,28 -7.42996,16.21855 -9.49564,34.9198 -6.25977,56.66602 1.80474,12.12802 1.83962,42.76469 0.0527,46.10351 -1.2486,2.333 -2.80317,2.58143 -15.42188,2.45703 -11.23585,-0.11075 -14.18805,-0.54187 -14.81054,-2.16406 -0.83322,-2.17133 0.56376,-16.95519 5.71289,-60.39648 1.78192,-15.03334 3.53585,-30.03204 3.89648,-33.33204 0.36063,-3.3 1.84993,-16.2013 3.3086,-28.66796 1.45867,-12.46667 4.16515,-35.86667 6.01562,-52 1.85046,-16.13334 4.26826,-36.83334 5.37305,-46 1.10478,-9.16667 2.91539,-25.06537 4.02343,-35.33204 1.10802,-10.26666 2.88311,-25.56666 3.94336,-34 1.06027,-8.43333 2.8386,-23.43398 3.95313,-33.33398 2.2691,-20.15545 7.12732,-62.27413 12.15039,-105.33398 C 258.5951,262.89935 260.67091,244.6 261.36914,238 c 0.69821,-6.6 2.4566,-21.9 3.90625,-34 5.84088,-48.75296 8.04539,-67.76722 8.88867,-76.66602 C 274.65052,122.20065 275.54797,116.65 276.1582,115 Z m 268.33398,50.95898 c 0.89776,0.0247 1.77843,0.0743 2.66406,0.14649 11.07209,0.90245 13.81842,2.31865 14.89063,7.67969 0.46353,2.31772 0.84375,40.79873 0.84375,85.51172 v 81.29492 l 16.23047,26.20508 c 16.7551,27.04921 20.19419,32.15304 21.96289,32.60546 0.56896,0.14553 2.32899,-5.73502 3.91211,-13.06836 2.70988,-12.55262 2.96898,-13.10924 4.41797,-9.49804 0.84652,2.10968 1.91819,8.31367 2.38086,13.78711 0.56537,6.68824 1.45392,10.18636 2.70898,10.66797 1.02712,0.39415 11.45419,-0.0405 23.17188,-0.9668 19.91588,-1.57447 21.469,-1.89396 23.82617,-4.89063 l 2.52148,-3.20507 4.12891,6 c 2.27044,3.29996 4.8643,5.70164 5.76562,5.33789 0.90134,-0.36375 4.58191,-6.03926 8.17774,-12.61329 3.59584,-6.574 7.0388,-11.95312 7.65234,-11.95312 0.61353,0 2.81791,3.75065 4.89844,8.33398 4.51213,9.94004 11.14297,16.17386 20.00195,18.80469 13.68393,4.06369 26.98865,-2.4429 34.4336,-16.83984 3.01122,-5.82307 1.9807,-19.10457 -1.9043,-24.56055 -1.62493,-2.28201 -2.95313,-6.04704 -2.95313,-8.36523 0,-5.00185 7.84174,-22.4601 11.46094,-25.51563 4.31543,-3.64332 19.38156,-6.66027 26.56446,-5.31836 9.96935,1.86248 11.72353,4.54477 12.02929,18.39649 0.16409,7.43381 1.54673,16.88703 3.77344,25.80664 5.0947,20.4082 6.10917,31.22687 5.25,55.92383 -1.0172,29.23914 0.8226,38.73191 11.7793,60.78906 6.0439,12.16705 7.90333,17.23881 7.57617,20.66797 -0.42874,4.49392 -0.51356,4.54854 -7.60938,4.95312 -13.69477,0.78081 -47.5522,-11.10287 -56.03711,-19.66797 -2.63276,-2.65766 -7.74081,-10.51133 -11.34961,-17.45312 -17.42518,-33.51869 -31.61067,-47.23542 -54.4121,-52.61133 -16.10142,-3.79623 -22.7082,-2.64518 -57.0254,9.94336 -45.03441,16.51992 -53.62517,21.14713 -63.34179,34.11719 -12.33584,16.46627 -18.26265,33.08017 -18.15625,50.88867 0.12612,21.1005 8.02003,38.86933 24.81054,55.8457 13.27873,13.42572 24.07253,19.04703 45.97461,23.94336 28.57421,6.38793 35.82864,9.6148 59.37891,26.41406 19.69505,14.04918 26.21204,16.46084 49.33398,18.26172 35.7952,2.78796 48.89982,6.59399 66.66602,19.36133 9.46039,6.79854 23.35753,19.51353 23.27539,21.29492 -0.0318,0.68941 23.46271,12.76304 17.18706,17.35053 -10.67214,7.80132 -38.41411,12.13257 -48.60503,8.05768 -2.35613,-0.94211 -3.48919,2.56928 -17.0664,2.96093 -19.40823,0.55984 -34.11439,-1.33984 -50.26758,-6.49414 -28.32211,-9.03727 -38.85074,-9.16774 -63.98242,-0.78906 -19.81004,6.60449 -28.22738,7.8011 -54.54102,7.75 -24.97385,-0.0485 -34.02691,-1.36973 -52,-7.58398 -22.01057,-7.61023 -34.84673,-8.23463 -53.33398,-2.59375 -29.33719,8.95145 -29.75566,9.01729 -58,9.09179 -28.5496,0.0754 -28.76547,0.0433 -56.61329,-8.58789 -20.93036,-6.48719 -35.57383,-5.34284 -60.57031,4.73438 -12.15236,4.89909 -27.79252,7.31799 -31.40625,4.85742 -1.52752,-1.04008 -1.95302,-5.64767 -2.07422,-22.4043 -0.10431,-14.41937 -0.91088,-24.88816 -2.54883,-33.07422 -2.77671,-13.87748 -2.26224,-20.09359 2.63672,-31.79297 1.89548,-4.52666 4.38005,-11.52916 5.52149,-15.5625 2.57926,-9.11392 2.756,-31.0758 0.33789,-42 -0.97394,-4.4 -1.81018,-15.2 -1.85938,-24 -0.0878,-15.69857 0.0145,-16.26374 5.41993,-30 6.80962,-17.30441 7.69245,-23.99173 5.19531,-39.33398 -2.9471,-18.10663 -3.85677,-36.32764 -2.24414,-44.93164 0.78332,-4.17936 3.94385,-13.48066 7.02344,-20.66797 6.90428,-16.11358 8.22443,-28.51365 4.50195,-42.26562 -2.81944,-10.41586 -2.13025,-16.3242 3.36719,-28.84961 4.70511,-10.72015 8.49371,-32.41353 7.32031,-41.91797 -0.45503,-3.68569 -1.73671,-11.36927 -2.84766,-17.07617 -2.3528,-12.08625 -1.86978,-15.11479 4.57031,-28.67579 4.43259,-9.33376 4.82527,-11.18809 5.36719,-25.3457 0.63824,-16.67427 -0.74099,-25.51496 -5.91211,-37.89648 -3.69628,-8.85019 -4.05906,-14.654 -1.07226,-17.13282 3.33437,-2.7673 13.48001,-2.00629 27.2207,2.04102 19.27673,5.67796 27.88729,5.80573 49.33398,0.73242 27.63344,-6.53681 33.27503,-6.62387 55.68164,-0.85547 10.34397,2.66296 21.62694,4.8418 25.07422,4.8418 3.44729,0 16.83761,-2.16433 29.75586,-4.81055 16.30208,-3.33936 23.47155,-4.40356 29.75586,-4.23047 z m 237.41211,7.95313 c 0.30702,-0.0113 0.6339,0.007 0.98633,0.0469 2.76949,0.31118 3.39243,1.16373 3.67969,5.04102 0.43958,5.93353 -4.26146,14.35551 -9.82617,17.60547 -2.27954,1.33133 -8.578,2.99566 -13.99805,3.69922 -19.40768,2.51927 -37.13466,1.16967 -59.76367,-4.55078 -25.24983,-6.38297 -24.09296,-6.71732 24.63086,-7.10547 l 44.05664,-0.34961 3.94336,-7.35742 c 2.91875,-5.44489 4.14186,-6.95042 6.29101,-7.0293 z m -147.3164,14.42187 c 15.81043,0 28.34644,0.39967 27.85742,0.88868 -0.48901,0.48901 -4.81599,2.26245 -9.61719,3.9414 -15.85305,5.5437 -28.08933,14.59234 -36.70703,27.14649 -1.75363,2.55467 -4.69955,7.85488 -6.54492,11.77734 -1.84536,3.92248 -3.80416,6.68217 -4.35352,6.13281 -1.18713,-1.18714 -1.35978,-44.72753 -0.18945,-47.77734 0.70336,-1.83294 4.57187,-2.10938 29.55469,-2.10938 z m 118.93945,75.75391 c 34.04731,-0.002 68.31779,0.72405 69.77148,2.17773 1.14957,1.14959 2.3105,6.14589 2.86524,12.33399 0.51284,5.7206 1.25097,11.75039 1.64062,13.40039 1.00464,4.25427 -1.20596,3.793 -9.98633,-2.08008 -13.03296,-8.71759 -20.45668,-11.09774 -37.08007,-11.89648 -13.27124,-0.63767 -16.09151,-0.34673 -27.00977,2.78515 -23.0322,6.60673 -32.54926,13.44624 -43.24609,31.08399 -6.86484,11.31928 -12.28109,24.93742 -14.83789,37.30078 -2.21682,10.71939 -3.73861,13.85968 -5.40821,11.1582 -1.50092,-2.42855 -6.33653,-90.95654 -5.13867,-94.07812 0.55788,-1.45403 34.38237,-2.18363 68.42969,-2.18555 z m -29.88281,90.94141 c 9.38243,0.0702 20.7074,8.77956 22.5957,17.37695 2.05682,9.3646 -3.35654,19.72794 -12.24414,23.44141 -10.37239,4.33387 -22.75261,-0.13752 -28.03516,-10.12696 -3.76077,-7.11173 -3.89854,-13.20556 -0.44922,-19.96679 2.91828,-5.72031 11.46428,-10.77451 18.13282,-10.72461 z m -13.49219,0.0195 c 0.77281,0.0264 -0.14126,1.37637 -2.03125,3 -13.27344,11.4028 -8.74528,33.05189 8.41211,40.2207 6.61928,2.76572 12.47266,2.55754 19.65234,-0.69922 l 5.96289,-2.70508 -3.1582,3.36329 c -2.98329,3.17556 -7.14677,5.01614 -14.76563,6.52734 -1.83333,0.36364 -6.10998,-0.18037 -9.50195,-1.20703 -14.7125,-4.4531 -22.36083,-20.71009 -16.43164,-34.92578 2.20144,-5.27812 9.52128,-13.65408 11.86133,-13.57422 z m -30.87891,116.12695 c 2.49129,0.049 4.96824,0.49686 6.99414,1.41992 3.19249,1.4546 8.62305,9.6524 8.62305,13.01758 0,1.61638 -2.23521,1.65682 -6,0.10938 -1.46667,-0.60284 -7.04486,-2.72606 -12.39648,-4.71875 -5.50509,-2.04986 -9.51262,-4.2843 -9.22852,-5.14649 0.97643,-2.96321 6.52699,-4.78939 12.00781,-4.68164 z m -59.61523,22.6836 c 2.82507,0.0368 4.10661,1.85386 10.4414,12.32421 l 7.6543,12.6543 59.56836,23.61523 c 32.76239,12.98904 82.04762,32.52892 109.52344,43.41993 27.47583,10.89101 50.84074,20.6845 51.91992,21.76367 1.64546,1.64547 5.1168,22.9004 5.39453,33.0293 0.11113,4.05308 -3.00087,2.47051 -12.24414,-6.22657 -11.06999,-10.41587 -31.80557,-24.49089 -45.07031,-30.59375 -13.79606,-6.3473 -35.29608,-11.3083 -56.25196,-12.98242 -25.96486,-2.07427 -25.05337,-1.8027 -37.74609,-11.26562 -21.15339,-15.7707 -38.78761,-24.16456 -62.62305,-29.80469 -31.20212,-7.38328 -33.91274,-8.75086 -40.67578,-20.54297 -5.31159,-9.26132 -5.23207,-15.39187 0.3418,-26.37695 3.77056,-7.43111 4.8672,-8.59236 8.44336,-8.94141 0.48584,-0.0474 0.92064,-0.0775 1.32422,-0.0723 z" style="fill:#5a7297"/>
 <path d="M 561.53516 46.65625 C 308.89796 46.63005 244.41282 46.962307 241.60742 48.310547 C 238.10372 49.994437 238.07589 50.132675 231.77539 97.333984 C 228.30049 123.36733 224.91591 145.56602 224.25391 146.66602 L 222.66602 157.22656 L 222.66602 160.86328 C 222.66602 164.42284 216.56379 210.85573 207.18359 278.66406 C 204.48919 298.14159 201.73874 313.51709 200.74414 314.66406 C 199.78934 315.76518 198.97555 318.47876 198.93555 320.69336 C 198.87155 324.21918 192.15478 375.1101 183.89258 434.66602 C 182.41738 445.29935 180.66635 458.20064 180.00195 463.33398 C 179.33755 468.46731 175.44391 497.26731 171.34961 527.33398 C 164.69001 576.2391 160.92388 603.98753 146.73828 708.66602 C 134.39628 799.74053 132.16277 817.5425 132.85547 819.34766 C 133.53097 821.10802 182.90005 821.29856 559.81055 821.00195 L 986 820.66602 L 986.39453 814.63477 C 986.61123 811.31691 983.78669 786.7156 980.11719 759.9668 C 976.44759 733.218 965.30723 651.93398 955.36133 579.33398 C 945.41543 506.73398 935.49872 434.73398 933.32422 419.33398 C 931.14962 403.93398 925.77431 364.93268 921.37891 332.66602 C 916.98351 300.39935 908.8538 240.99935 903.3125 200.66602 C 897.7712 160.33268 892.36493 120.73268 891.29883 112.66602 C 884.83273 63.741136 882.71797 51.458213 880.35547 49.095703 C 878.04787 46.788073 864.80066 46.68771 561.53516 46.65625 z M 444.48828 111.49023 C 601.39119 111.39152 812.52705 111.90018 825.33398 112.8125 L 842 114 L 842.98633 122 C 848.47556 166.52436 853.23632 211.07788 852.61328 212.08594 C 852.18904 212.77237 845.31094 213.33398 837.32812 213.33398 L 822.81445 213.33398 L 826.22656 205.88086 C 831.482 194.40147 833.30116 185.78534 833.31836 172.28906 C 833.33172 161.8378 832.83591 158.93326 830.13281 153.62305 C 828.37206 150.16409 825.52142 146.09392 823.79883 144.58008 C 818.19825 139.65818 802.82332 130.41349 801.54883 131.20117 C 799.91156 132.21306 791.69752 129.33321 790 127.15234 C 785.19283 120.97635 746.5339 121.48812 741.60938 127.79297 C 740.05262 129.78608 733.2862 130.03568 671.64062 130.36914 C 630.36816 130.59239 602.8889 131.2439 602.11523 132.01758 C 601.29838 132.83443 600.08317 132.65662 598.75195 131.52734 C 595.47743 128.74953 581.8406 124.23643 568 121.34961 C 547.23488 117.0185 528.90216 118.10573 498.36914 125.47461 L 486.73633 128.28125 L 477.70117 125.56641 C 447.42294 116.47243 430.2231 116.33465 394.42188 124.89648 L 380.17578 128.30273 L 371.08789 125.43164 C 354.78497 120.28021 338.0673 118.07925 327.57617 119.70312 C 302.94722 123.51533 286.30591 139.42659 282.54883 162.75586 C 280.91487 172.90182 281.80076 179.76885 286.79297 195.68164 C 292.17489 212.83658 291.93853 218.99223 285.35547 233.2832 C 277.92596 249.41172 276.39724 261.18637 279.40625 279.10547 C 282.42865 297.10436 281.46932 306.41136 275.14844 320.40234 C 268.11653 335.96714 266.63068 349.04445 269.9668 366.01172 L 272.45703 378.67383 L 266.14844 391.82812 C 262.02257 400.4306 259.1894 408.62087 257.96484 415.49219 C 255.46407 429.52457 255.52666 453.90936 258.09961 468.61914 C 260.47414 482.19454 260.01418 486.40246 255.1582 495.53516 C 246.67371 511.4921 244.60727 534.78542 248.72656 568.03906 C 251.02217 586.57067 250.51257 592.35742 245.75195 601.79492 C 237.56671 618.02147 235.48382 638.61129 239.42578 664.3418 C 240.98954 674.54891 241.29339 682.5478 240.62695 696 C 239.16577 725.49399 243.79813 739.76994 259.77344 755.00781 C 266.29317 761.22658 269.12833 762.88987 277.43359 765.36328 C 285.89278 767.88255 289.45719 768.21266 301.99805 767.63867 C 318.06996 766.90308 329.95299 763.51487 349.29492 754.1543 C 361.31288 748.33818 366.67144 748.08542 378.4043 752.7793 C 383.1417 754.67456 393.68834 757.79207 401.8418 759.70703 C 415.14284 762.83096 419.40776 763.19501 443.33398 763.25781 C 473.3838 763.33664 484.22465 761.7535 507.24023 753.92188 C 514.62505 751.40902 522.87182 749.34875 525.56641 749.34375 C 528.261 749.3383 534.86034 751.08094 540.23242 753.2168 C 545.6045 755.35267 557.2 758.77264 566 760.81641 C 580.65408 764.21977 584.24255 764.53408 608.66602 764.55078 C 638.78372 764.57129 651.78095 762.51844 675.70508 753.9668 C 682.83428 751.41846 690.64946 749.33419 693.07227 749.33398 C 695.49509 749.33375 703.6049 751.38441 711.0957 753.89062 C 730.22458 760.29061 744.31657 762.75081 766.82031 763.62109 C 797.41231 764.80415 826.32364 759.8713 844.53125 750.36328 C 855.06503 744.86255 871.3268 728.57271 876.83789 718 C 883.78177 704.6786 885.65969 697.163 885.10742 684.91992 C 884.68478 675.55072 883.89173 672.51262 879.52344 663.52734 C 875.29313 654.82587 872.02811 650.68198 860.2168 639.03125 C 836.99931 616.12939 813.3757 601.03488 791.33398 595.01953 C 776.10944 590.86465 758.42505 588 748.00781 588 C 731.93049 588 726.19895 586.18395 714.53711 577.39648 C 692.98854 561.15915 675.33548 552.77366 650.66602 547.05664 C 621.39784 540.27391 617.88722 538.50337 610.44336 526.76562 C 605.57347 519.08661 605.36149 510.1673 609.82422 500.66602 C 613.79626 492.20946 615.98206 490.43245 626.78125 486.87695 C 631.61064 485.28693 643.00934 480.94846 652.11328 477.23438 C 677.6781 466.80488 680.18944 466.15267 685.80273 468.49805 C 691.08274 470.70419 695.20038 476.50306 701.85938 491.11523 C 707.88387 504.33512 716.69063 517.94334 722.11914 522.41797 C 725.72319 525.38874 718.75356 523.0247 688.38672 510.98047 C 652.80853 496.86931 649.98932 495.96527 648.38867 498.1543 C 647.44156 499.44954 646.66602 501.65219 646.66602 503.04883 C 646.66602 504.44545 645.40213 507.36502 643.85547 509.53711 C 642.3088 511.70921 641.28089 513.72425 641.57227 514.01562 C 642.26417 514.70754 681.7248 530.40609 761.33398 561.66016 C 780.03398 569.00166 802.83333 577.96291 812 581.57227 C 821.16667 585.18165 832.26602 589.38303 836.66602 590.91016 C 841.06602 592.43728 845.26667 594.1174 846 594.64258 C 846.73333 595.16778 851.83398 597.00296 857.33398 598.7207 C 862.83398 600.43846 868.23398 602.58251 869.33398 603.48633 C 870.43398 604.39015 876.73398 606.13838 883.33398 607.37109 C 889.93398 608.60379 895.63333 610.04229 896 610.56641 C 896.36667 611.09054 901.12265 612.30045 906.56836 613.25586 C 917.03416 615.09201 926.90932 618.52058 922 618.61328 C 920.53333 618.64098 914.27489 617.77173 908.0918 616.68359 C 897.38121 614.79876 891.65257 614.85731 899.28711 616.77344 C 902.05325 617.46771 902.72712 618.29247 902.19531 620.32617 C 901.81451 621.78231 902.36282 629.95389 903.41406 638.48633 C 904.4653 647.01876 906.78974 666.6 908.58008 682 C 910.37043 697.4 913.70464 725.82858 915.98828 745.17383 C 918.27192 764.51907 919.95818 781.61907 919.73633 783.17383 L 919.33398 786 L 560.20703 786 C 362.6875 786 200.5196 785.6539 199.83398 785.23047 C 199.07536 784.76194 199.38621 777.71635 200.62695 767.23047 C 201.74827 757.7539 203.56047 742.44951 204.6543 733.2207 C 205.74814 723.99188 206.57338 712.89058 206.48828 708.55273 C 206.30504 699.21522 206.732 695.16529 217.30078 606 C 219.7921 584.98151 221.24094 572.46952 228.0293 513.33398 C 229.4183 501.23398 232.08543 478.13333 233.95703 462 C 235.82863 445.86667 238.52554 422.46667 239.94922 410 C 245.91293 357.77777 248.18366 338.16521 250.68359 317.33398 C 252.1357 305.23398 255.41835 277.03268 257.97852 254.66602 C 260.53868 232.29935 264.18609 200.5 266.08398 184 C 267.98187 167.5 270.57413 144.86533 271.84375 133.70117 C 273.11339 122.53703 274.61834 112.93832 275.1875 112.36914 C 275.72822 111.82839 350.34653 111.54946 444.48828 111.49023 z M 228.83398 149.33398 C 230.23875 149.33398 230.71676 150.43348 230.42188 152.98828 C 230.02122 156.45948 225.33398 159.32407 225.33398 156.09766 C 225.33398 155.31057 226.08333 154.65718 227 154.64648 C 228.20691 154.6317 228.1607 154.30569 226.83008 153.46289 C 224.64622 152.07965 225.97845 149.33398 228.83398 149.33398 z M 600.17773 150.91016 C 600.81162 150.49603 601.12951 165.89799 601.87305 212.66602 C 602.49097 251.53268 603.37498 303.73268 603.83789 328.66602 C 604.4791 363.20363 604.26901 376.06396 602.95703 382.66602 C 602.00988 387.43218 601.42287 392.53282 601.65234 394 C 602.20967 397.56366 609.33994 368.58828 609.33594 362.77734 C 609.32935 353.70232 610.64092 359.88116 612.71875 378.71875 C 613.88551 389.29661 615.0167 398.12801 615.23242 398.34375 C 615.44815 398.55947 625.67237 397.90251 637.95312 396.88477 C 653.93604 395.56023 660.61419 394.50832 661.45312 393.18359 C 663.13026 390.53524 662.94116 386.89112 660.07031 366.66602 C 657.52981 348.76824 655.51919 317.19136 654 271.33398 C 653.25479 248.83966 653.37202 247.06575 655.88281 243.05469 C 659.70626 236.94655 671.80514 231.11447 673.83594 234.40039 C 674.19841 234.98687 673.10265 240.39635 671.40234 246.42188 C 667.97585 258.56456 667.94484 253.68619 672.08203 354.66602 C 672.93831 375.56602 673.62036 393.56602 673.59766 394.66602 C 673.4689 400.91683 675.31558 399.73183 680.91406 389.96875 C 684.26845 384.11911 688.18801 378.03679 689.625 376.45312 C 691.81615 374.03831 692.13652 372.21103 691.60352 365.12109 C 687.60383 311.91684 685.19797 265.90302 686.27148 263.10547 C 687.00049 261.2057 695.50175 261.05321 772.29883 261.56836 C 838.79631 262.01441 857.74433 262.50839 858.55273 263.81641 C 859.60887 265.52527 860.23368 270.16873 866.01172 319.33398 C 887.844 505.10449 897.33398 586.8663 897.33398 589.19531 C 897.33398 590.73748 896.61851 592 895.74414 592 C 894.2535 592 876.10672 584.9864 842 571.22852 C 833.93333 567.97461 826.87622 565.31727 826.31836 565.32227 C 824.53915 565.3404 799.91201 555.64266 800.42773 555.12695 C 800.70003 554.85465 805.06624 556.19884 810.12891 558.11328 C 817.68099 560.96908 820.64943 561.44362 826.66602 560.75586 C 843.35639 558.84796 861.70583 546.00621 869.52539 530.76172 C 873.86959 522.29265 874 521.57461 874 506.01953 C 874 487.23178 872.71641 482.61201 861.4707 460.93555 L 854 446.53516 L 853.8457 417.60156 C 853.67952 386.4798 852.59819 376.68913 847.25977 358 C 845.05483 350.28081 843.56031 341.00571 843.07227 332 C 842.05878 313.29848 838.48768 305.15454 826.33008 293.81641 C 816.38374 284.54048 806.47729 279.33544 793.55078 276.5957 C 776.30189 272.93985 762.02699 274.65028 741.23828 282.86523 C 732.13057 286.46426 729.38657 288.36575 722.00977 296.18555 C 712.83833 305.90775 703.41556 323.11184 699.4707 337.33398 C 696.58034 347.7544 694.55156 376.57463 696.33789 381.83789 C 698.43404 388.01399 704.8394 396.4678 709.51953 399.23242 C 711.8231 400.59317 717.24562 401.9153 721.82031 402.23242 C 728.60281 402.7026 730.90085 402.27325 735.27148 399.72461 C 741.022 396.37132 749.33398 386.4389 749.33398 382.91992 C 749.33398 381.59546 747.98378 382.702 745.95508 385.6875 C 732.94839 404.82856 702.67597 395.16036 702.66797 371.86328 C 702.66233 355.15492 722.27253 345.56464 737.75781 354.70117 L 742.63867 357.58008 L 743.98633 354.03711 C 744.72733 352.08812 745.33398 349.9185 745.33398 349.2168 C 745.33398 347.38783 752.8348 331.73347 754.91602 329.21875 C 761.70562 321.01495 785.78746 319.00036 792.83398 326.04688 C 795.64943 328.86232 796 330.41811 796 340.10156 C 796 347.9013 797.229 355.95516 800.33008 368.49414 C 804.59757 385.7496 804.6585 386.45632 804.70117 418 C 804.7532 456.47215 805.87516 462.6951 816.51562 483.54492 C 825.06967 500.30642 826.447 505.36355 823.30859 508.50195 C 820.3753 511.43524 815.90049 511.23203 801.17188 507.49414 C 769.88123 499.55304 758.28847 492.03747 749.45508 473.9668 C 742.28412 459.297 729.60535 440.47167 722.85156 434.46484 C 719.44974 431.43924 712.24302 426.84521 706.83594 424.25586 C 698.06226 420.05432 695.54848 419.48272 683.46484 418.94531 C 668.3472 418.27296 666.5595 418.74288 625.33398 434.2168 C 587.18216 448.53701 579.10193 454.03309 567.63086 473.46875 C 557.30138 490.97023 553.35702 514.40876 557.95312 530.97266 C 563.28874 550.20166 576.78967 569.69004 591.82422 579.86328 C 602.5461 587.11834 609.73708 589.96796 627.19727 593.88477 C 653.28058 599.73599 663.45555 603.95865 679.65234 615.65039 C 705.99903 634.66889 711.15367 636.78381 735.80078 638.69336 C 777.4411 641.91947 789.13216 646.3161 816.07617 668.87891 C 833.27177 683.27846 834.43324 686.28376 826.35156 695.48828 C 820.88227 701.71747 817.6083 703.22474 802.35742 706.52539 C 777.22442 711.96478 751.15846 709.87792 721.33398 700.04102 C 711.91809 696.93541 705.24545 695.67944 695.33398 695.14258 C 682.24172 694.43342 681.67252 694.52767 663.9082 700.39844 C 637.08138 709.26421 632.79603 709.99128 608 709.89258 C 584.12024 709.79753 577.4319 708.58788 552.66602 699.87891 C 543.49038 696.65227 537.6854 695.51483 528 695.04688 C 516.09855 694.47183 514.2481 694.76392 497.36914 699.88867 C 473.36359 707.17717 461.18215 709.33398 444 709.33398 C 426.87148 709.33398 414.60518 707.1607 391.33398 700.00586 C 365.83688 692.16665 353.2322 692.81178 330.5332 703.11523 C 325.10643 705.57853 316.76667 708.83196 312 710.3457 C 299.05811 714.45569 296.30128 714.88997 295.08203 713.00586 C 294.48708 712.0865 293.95132 700.83333 293.89062 688 C 293.81189 671.35233 293.14268 661.8712 291.55664 654.91211 C 288.00851 639.34389 288.78371 631.9676 295.65039 616 C 301.95334 601.34333 303.15301 583.32704 299.30078 561.18164 C 298.10334 554.2979 297.07362 543.56732 297.01172 537.33398 C 296.90996 527.07036 297.43209 524.61633 302.53516 511.33398 C 309.45925 493.31178 310.45952 483.67036 307.46875 463.82812 C 303.32135 436.31222 304.80555 422.17441 313.9375 402.19727 C 319.95254 389.03871 321.33548 376.64981 318.14648 364.47461 C 315.15384 353.04913 315.4557 346.59224 319.4375 336.97266 C 325.42493 322.50767 326.6864 317.03657 327.5 302 C 328.10056 290.9008 327.77144 285.12348 326.14648 278.25 C 322.91652 264.58745 323.35134 259.27857 328.58984 248.34766 C 336.05641 232.76755 337.76157 217.34398 334.10742 198.45117 C 333.06663 193.06999 330.98046 185.96602 329.4707 182.66602 C 325.73182 174.4937 325.79521 167.42879 329.63086 164.74219 C 333.86738 161.77481 338.65911 162.14685 356 166.78711 C 375.77757 172.07942 386.45502 172.21413 405.33398 167.41406 C 413.03398 165.45629 425.03333 163.52208 432 163.11523 C 443.26392 162.45741 446.43791 162.83367 460.66602 166.50781 C 482.12863 172.0501 490.46944 172.07584 515.89844 166.68359 C 543.69824 160.78861 552.39927 161.26402 577.10742 170.01953 C 589.74354 174.49722 595.29531 175.90391 596.31055 174.88867 C 597.09602 174.1032 598.41637 166.3823 599.24414 157.73047 C 599.6339 153.65672 599.92969 151.07221 600.17773 150.91016 z M 782.56055 168.53711 C 783.42397 168.42396 784.37543 169.05758 785.91211 170.06445 C 788.95074 172.05542 789.2784 172.95267 788.51367 177.17188 C 786.85205 186.33927 782.97078 192.00824 776.24805 195.08594 C 770.59591 197.67353 767.70787 197.94622 746 197.94922 C 722.67059 197.95274 721.45144 197.81423 702.39844 192.97656 C 681.9355 187.78091 672.46012 186.97037 659.94531 189.34375 C 637.95248 193.51461 617.77044 210.66602 611.30664 230.67773 C 607.04219 243.88033 607.17435 243.72326 606.2207 236.76562 C 604.98566 227.755 605.14512 189.02635 606.42578 187.00977 C 607.24144 185.72541 626.02941 185.27619 690.07227 185.00977 L 772.66602 184.66602 L 776.69336 177.08398 C 779.92848 170.99292 781.12151 168.7257 782.56055 168.53711 z M 711.26172 352.04883 C 712.03452 352.07523 711.12047 353.4252 709.23047 355.04883 C 695.95707 366.45163 700.48518 388.10072 717.64258 395.26953 C 724.26188 398.03525 730.11532 397.82707 737.29492 394.57031 L 743.25781 391.86523 L 740.09961 395.22852 C 737.11631 398.40408 732.95288 400.24466 725.33398 401.75586 C 723.50068 402.1195 719.22403 401.57549 715.83203 400.54883 C 701.11953 396.09573 693.47119 379.83874 699.40039 365.62305 C 701.60179 360.34493 708.92162 351.96897 711.26172 352.04883 z M 794 552.04102 C 794.73333 552.04102 796.23398 552.6231 797.33398 553.33398 C 798.43398 554.04486 798.73333 554.625 798 554.625 C 797.26667 554.625 795.76602 554.04486 794.66602 553.33398 C 793.56602 552.6231 793.26667 552.04102 794 552.04102 z" style="fill:#1875cd"/>
 <path d="M 561.53516 46.65625 C 308.89806 46.63005 244.41282 46.962307 241.60742 48.310547 C 238.10362 49.994427 238.07579 50.132674 231.77539 97.333984 C 228.30039 123.36731 224.91591 145.56602 224.25391 146.66602 L 222.66602 157.22656 L 222.66602 160.86328 C 222.66602 164.42284 216.56389 210.85573 207.18359 278.66406 C 204.48919 298.14159 201.73874 313.51709 200.74414 314.66406 C 199.78924 315.76518 198.97565 318.47876 198.93555 320.69336 C 198.87155 324.21918 192.15488 375.1101 183.89258 434.66602 C 182.41738 445.29935 180.66645 458.20064 180.00195 463.33398 C 179.33755 468.46731 175.44391 497.26731 171.34961 527.33398 C 164.69011 576.2391 160.92378 603.98753 146.73828 708.66602 C 134.39618 799.74053 132.16277 817.5425 132.85547 819.34766 C 133.53097 821.10802 182.90005 821.29856 559.81055 821.00195 L 986 820.66602 L 986.39453 814.63477 C 986.61133 811.31691 983.78669 786.7156 980.11719 759.9668 C 976.44769 733.218 965.30713 651.93398 955.36133 579.33398 C 945.41543 506.73398 935.49882 434.73398 933.32422 419.33398 C 931.14962 403.93398 925.77431 364.93268 921.37891 332.66602 C 916.98351 300.39935 908.8538 240.99935 903.3125 200.66602 C 897.7712 160.33268 892.36493 120.73268 891.29883 112.66602 C 884.83283 63.741146 882.71807 51.458213 880.35547 49.095703 C 878.04787 46.788073 864.80066 46.68771 561.53516 46.65625 z M 561.9668 49.333984 C 810.7123 49.333984 875.9497 49.677685 877.71094 51 C 879.96954 52.695708 880.36629 55.109298 889.93945 125.33398 C 894.35517 157.72581 904.36234 230.63319 909.33789 266.66602 C 912.98537 293.0809 917.78527 328.02536 930.03906 417.33398 C 932.60485 436.03398 935.27907 455.23333 935.98047 460 C 936.68186 464.76667 938.76465 479.76732 940.60938 493.33398 C 942.45408 506.90065 946.39626 535.70065 949.36914 557.33398 C 952.34203 578.96732 955.91751 605.06732 957.31641 615.33398 C 958.71529 625.60065 962.92439 656.20065 966.66797 683.33398 C 970.41157 710.46732 974.35375 739.26732 975.42969 747.33398 C 976.50563 755.40065 978.87456 772.42754 980.69336 785.17188 C 982.51216 797.9162 984 810.6649 984 813.50391 L 984 818.66602 L 560.07812 818.66602 C 326.9214 818.66602 135.90168 818.21602 135.58984 817.66602 C 135.278 817.11602 135.78553 811.26602 136.7168 804.66602 C 137.64805 798.06602 139.33934 785.76731 140.47461 777.33398 C 141.60987 768.90064 144.66876 746.40064 147.27344 727.33398 C 157.30118 653.92946 161.568 622.48582 164.64062 599.33398 C 166.39247 586.13398 169.96154 559.73269 172.57227 540.66602 C 175.183 521.59935 178.85612 494.59935 180.73438 480.66602 C 182.61262 466.73269 185.29801 446.93269 186.70312 436.66602 C 188.10822 426.39935 190.7957 406.59935 192.67383 392.66602 C 200.44804 334.99137 202.838 319.29482 204.03125 318.10156 C 207.79051 314.34231 207.35471 319.29635 197.35742 394 C 193.59552 422.11026 190.17176 447.94206 173.93359 570.66602 C 149.20372 757.56805 147.06521 773.68457 144.52148 792.33594 C 143.34606 800.95444 142.72897 808.90574 143.15039 810.00391 C 143.82863 811.77138 191.66178 812 559.79492 812 C 890.90387 812 975.94359 811.66092 976.99609 810.33398 C 977.88563 809.21247 977.27379 801.03504 975.12695 785.33398 C 973.37222 772.50064 967.77296 730.84236 962.68359 692.76172 C 956.78395 648.61841 952.80816 622.96514 951.71484 621.98047 C 950.77167 621.13105 947.3 619.68772 944 618.77344 C 940.7 617.85916 929.60065 613.79311 919.33398 609.73633 C 909.06732 605.67955 888.06602 597.38942 872.66602 591.31445 C 857.26602 585.23946 831.46732 575.04351 815.33398 568.65625 C 799.20065 562.26897 777.9 553.86901 768 549.99023 C 758.1 546.11146 732.60065 536.04087 711.33398 527.61133 C 690.06732 519.18183 667.56732 510.32234 661.33398 507.92383 C 655.10065 505.52533 649.26835 502.61044 648.375 501.44727 C 646.95762 499.60178 646.74608 499.73177 646.70898 502.46094 C 646.68566 504.18108 645.40213 507.36502 643.85547 509.53711 C 642.3088 511.70921 641.28089 513.72425 641.57227 514.01562 C 642.26417 514.70755 681.7248 530.40609 761.33398 561.66016 C 780.03398 569.00166 802.83333 577.96291 812 581.57227 C 821.16667 585.18165 832.26602 589.38303 836.66602 590.91016 C 841.06602 592.43728 845.26667 594.1174 846 594.64258 C 846.73333 595.16778 851.83398 597.00296 857.33398 598.7207 C 862.83398 600.43846 868.23398 602.58251 869.33398 603.48633 C 870.43398 604.39015 876.73398 606.13838 883.33398 607.37109 C 889.93398 608.60379 895.63333 610.04229 896 610.56641 C 896.36667 611.09054 901.12265 612.30045 906.56836 613.25586 C 917.03416 615.09201 926.90932 618.52058 922 618.61328 C 920.53333 618.64098 914.27489 617.77173 908.0918 616.68359 C 897.38121 614.79876 891.65257 614.85731 899.28711 616.77344 C 902.03463 617.46303 902.72648 618.2972 902.20508 620.29102 C 901.82923 621.72832 903.27773 637.70052 905.42578 655.78516 C 907.57385 673.86979 910.50847 698.56602 911.94531 710.66602 C 919.11058 771.00664 920.32687 782.56153 919.68945 784.22266 C 919.11098 785.73002 860.35821 785.97268 559.31641 785.7168 C 361.49135 785.54866 199.40066 785.17801 199.11523 784.89258 C 198.8298 784.60716 199.51279 776.64019 200.63281 767.1875 C 201.75285 757.7348 203.56351 742.44689 204.65625 733.21484 C 205.749 723.98277 206.57338 712.88148 206.48828 708.54688 C 206.30522 699.2156 206.73272 695.1592 217.30078 606 C 219.7921 584.98151 221.24094 572.46952 228.0293 513.33398 C 229.4183 501.23398 232.08543 478.13333 233.95703 462 C 235.82863 445.86667 238.52554 422.46667 239.94922 410 C 245.91293 357.77777 248.18366 338.16521 250.68359 317.33398 C 252.1357 305.23398 255.41835 277.03268 257.97852 254.66602 C 260.53868 232.29935 264.18609 200.5 266.08398 184 C 267.98187 167.5 270.58105 144.80191 271.85938 133.56055 C 273.4799 119.30989 274.7615 112.75524 276.0918 111.9082 C 278.46708 110.3958 804.993 111.34271 826.66602 112.89844 L 842 114 L 842.98633 122 C 848.77204 168.92913 853.18071 210.84569 852.51367 212.58398 C 851.77257 214.51524 853.95704 214.69652 874.17773 214.36719 L 896.66602 214 L 897.07031 210.52539 C 897.38381 207.82483 878.17032 60.010869 876.9375 55.638672 C 876.77814 55.073512 735.26962 54.629704 562.47266 54.652344 C 293.06399 54.687649 248.19196 54.425454 247.57227 52.810547 C 247.17484 51.774758 247.20812 50.56922 247.64648 50.130859 C 248.08484 49.692497 389.52917 49.333984 561.9668 49.333984 z M 438.13281 118.61133 C 425.5726 118.51018 412.32249 120.61557 394.42188 124.89648 L 380.17578 128.30273 L 371.08789 125.43164 C 354.78497 120.28021 338.0673 118.07926 327.57617 119.70312 C 302.94722 123.51534 286.30591 139.42659 282.54883 162.75586 C 280.91487 172.90182 281.80076 179.76886 286.79297 195.68164 C 292.17489 212.83659 291.93853 218.99223 285.35547 233.2832 C 277.92596 249.41172 276.39724 261.18638 279.40625 279.10547 C 282.42865 297.10437 281.46932 306.41137 275.14844 320.40234 C 268.11653 335.96714 266.63068 349.04445 269.9668 366.01172 L 272.45703 378.67383 L 266.14844 391.82812 C 262.02257 400.43061 259.1894 408.62087 257.96484 415.49219 C 255.46407 429.52456 255.52666 453.90937 258.09961 468.61914 C 260.47414 482.19454 260.01418 486.40245 255.1582 495.53516 C 246.67371 511.49209 244.60727 534.78542 248.72656 568.03906 C 251.02217 586.57068 250.51257 592.35741 245.75195 601.79492 C 237.56671 618.02147 235.48382 638.61129 239.42578 664.3418 C 240.98954 674.5489 241.29339 682.5478 240.62695 696 C 240.01799 708.29185 240.25795 716.74779 241.38672 722.66602 C 244.96015 741.4016 259.51549 759.36266 275.59375 764.87695 C 283.57929 767.61567 286.58368 767.92848 300.66602 767.49023 C 318.24347 766.9432 328.91893 764.0153 349.29492 754.1543 C 361.31288 748.33818 366.67144 748.08542 378.4043 752.7793 C 383.1417 754.67457 393.68834 757.79207 401.8418 759.70703 C 415.14284 762.83097 419.40776 763.19501 443.33398 763.25781 C 473.3838 763.33664 484.22465 761.75348 507.24023 753.92188 C 514.62505 751.40901 522.87182 749.34875 525.56641 749.34375 C 528.261 749.3383 534.86034 751.08093 540.23242 753.2168 C 545.6045 755.35267 557.2 758.77263 566 760.81641 C 580.65408 764.21977 584.24255 764.53408 608.66602 764.55078 C 638.78372 764.57129 651.78095 762.51844 675.70508 753.9668 C 682.83428 751.41847 690.64946 749.3342 693.07227 749.33398 C 695.49509 749.33376 703.6049 751.38441 711.0957 753.89062 C 730.22458 760.29061 744.31657 762.75081 766.82031 763.62109 C 797.41231 764.80416 826.32364 759.87129 844.53125 750.36328 C 855.06503 744.86255 871.3268 728.57271 876.83789 718 C 883.78177 704.6786 885.65969 697.163 885.10742 684.91992 C 884.68478 675.55072 883.89173 672.51262 879.52344 663.52734 C 875.29313 654.82588 872.02811 650.68199 860.2168 639.03125 C 836.99931 616.1294 813.3757 601.03488 791.33398 595.01953 C 776.10944 590.86465 758.42505 588 748.00781 588 C 731.93049 588 726.19895 586.18394 714.53711 577.39648 C 692.98854 561.15914 675.33548 552.77365 650.66602 547.05664 C 621.39784 540.27391 617.88722 538.50338 610.44336 526.76562 C 605.57347 519.08661 605.36149 510.1673 609.82422 500.66602 C 613.79626 492.20946 615.98206 490.43246 626.78125 486.87695 C 631.61064 485.28694 643.00934 480.94846 652.11328 477.23438 C 677.6781 466.80489 680.18944 466.15266 685.80273 468.49805 C 691.10702 470.71433 695.19816 476.50114 701.97461 491.37109 C 706.83783 502.04269 716.86735 518.23054 720.42383 521.15039 C 721.64156 522.15015 722.32398 523.47474 721.94141 524.09375 C 720.96281 525.67718 729.16063 529.686 731.52344 528.7793 C 732.76105 528.30438 733.12706 528.5882 732.52734 529.55859 C 731.88496 530.59796 732.50408 530.84572 734.46094 530.33398 C 736.04329 529.9202 737.02676 530.08317 736.64844 530.69531 C 735.71822 532.20042 740.91577 533.74931 742.86133 532.54688 C 743.78989 531.97299 744.05349 532.16729 743.51953 533.03125 C 742.43959 534.77861 747.34686 536.5605 749.52734 535.21289 C 750.4559 534.63901 750.72146 534.83331 750.1875 535.69727 C 749.10757 537.44463 754.01288 539.22848 756.19336 537.88086 C 757.12192 537.30698 757.38748 537.50127 756.85352 538.36523 C 755.77359 540.11259 760.68085 541.89449 762.86133 540.54688 C 763.89318 539.90915 764.04923 540.17426 763.33008 541.33789 C 762.52462 542.64116 762.9836 542.89448 765.12695 542.33398 C 766.7093 541.9202 767.69473 542.08317 767.31641 542.69531 C 766.3862 544.20042 771.58178 545.74931 773.52734 544.54688 C 774.41272 543.99969 774.72247 544.16598 774.24805 544.93359 C 773.54521 546.07083 784.05839 550.93689 794 554.07617 C 796.16432 554.7596 796.28926 554.64814 794.66602 553.48047 C 793.56602 552.68918 793.26667 552.04102 794 552.04102 C 795.78331 552.04102 799.70381 554.61392 798 554.66602 C 796.29619 554.7182 800.21669 557.29297 802 557.29297 C 802.73333 557.29297 802.43398 556.71088 801.33398 556 C 798.05484 553.88085 800.48847 554.46827 810.17383 558.13086 C 817.68012 560.9694 820.65579 561.44288 826.66602 560.75586 C 843.35639 558.84796 861.70583 546.00621 869.52539 530.76172 C 873.86959 522.29265 874 521.57461 874 506.01953 C 874 487.23178 872.71641 482.61201 861.4707 460.93555 L 854 446.53516 L 853.8457 417.60156 C 853.67952 386.4798 852.59819 376.68913 847.25977 358 C 845.05483 350.28081 843.56031 341.00571 843.07227 332 C 842.05878 313.29848 838.48768 305.15454 826.33008 293.81641 C 816.38374 284.54048 806.47729 279.33544 793.55078 276.5957 C 776.30189 272.93985 762.02699 274.65028 741.23828 282.86523 C 732.13057 286.46426 729.38657 288.36575 722.00977 296.18555 C 712.83833 305.90775 703.41556 323.11184 699.4707 337.33398 C 696.58034 347.7544 694.55156 376.57463 696.33789 381.83789 C 698.43404 388.01399 704.8394 396.4678 709.51953 399.23242 C 711.8231 400.59317 717.24562 401.9153 721.82031 402.23242 C 728.60281 402.7026 730.90085 402.27325 735.27148 399.72461 C 741.022 396.37132 749.33398 386.4389 749.33398 382.91992 C 749.33398 381.59546 747.98378 382.702 745.95508 385.6875 C 732.94839 404.82856 702.67597 395.16036 702.66797 371.86328 C 702.66233 355.15492 722.27253 345.56464 737.75781 354.70117 L 742.63867 357.58008 L 743.98633 354.03711 C 744.72733 352.08812 745.33398 349.9185 745.33398 349.2168 C 745.33398 347.38783 752.8348 331.73347 754.91602 329.21875 C 761.70562 321.01495 785.78746 319.00036 792.83398 326.04688 C 795.64943 328.86232 796 330.41811 796 340.10156 C 796 347.9013 797.229 355.95516 800.33008 368.49414 C 804.59757 385.7496 804.6585 386.45632 804.70117 418 C 804.7532 456.47215 805.87516 462.6951 816.51562 483.54492 C 825.06967 500.30642 826.447 505.36355 823.30859 508.50195 C 820.3753 511.43524 815.90049 511.23203 801.17188 507.49414 C 769.88122 499.55304 758.28847 492.03747 749.45508 473.9668 C 742.28412 459.297 729.60535 440.47167 722.85156 434.46484 C 719.44974 431.43924 712.24302 426.84521 706.83594 424.25586 C 698.06226 420.05432 695.54848 419.48272 683.46484 418.94531 C 668.3472 418.27296 666.5595 418.74288 625.33398 434.2168 C 587.18216 448.53701 579.10193 454.03309 567.63086 473.46875 C 557.30138 490.97023 553.35702 514.40876 557.95312 530.97266 C 563.28874 550.20166 576.78967 569.69004 591.82422 579.86328 C 602.5461 587.11834 609.73708 589.96796 627.19727 593.88477 C 653.28058 599.73599 663.45555 603.95865 679.65234 615.65039 C 705.99903 634.66889 711.15367 636.78381 735.80078 638.69336 C 777.4411 641.91947 789.13216 646.3161 816.07617 668.87891 C 833.27177 683.27846 834.43324 686.28376 826.35156 695.48828 C 820.88227 701.71747 817.6083 703.22474 802.35742 706.52539 C 777.22442 711.96478 751.15846 709.87792 721.33398 700.04102 C 711.91809 696.93541 705.24545 695.67944 695.33398 695.14258 C 682.24172 694.43342 681.67252 694.52767 663.9082 700.39844 C 637.08138 709.26421 632.79603 709.99128 608 709.89258 C 584.12024 709.79753 577.4319 708.58788 552.66602 699.87891 C 543.49038 696.65227 537.6854 695.51483 528 695.04688 C 516.09855 694.47183 514.2481 694.76392 497.36914 699.88867 C 473.35442 707.17996 461.18258 709.33398 443.9707 709.33398 C 426.76259 709.33398 415.18097 707.26923 390.97656 699.89062 C 374.27993 694.80072 371.93982 694.4131 361.42188 694.97852 C 349.70758 695.60826 344.65303 697.0641 324 705.75977 C 309.20776 711.98785 297.25559 715.12342 295.39648 713.26367 C 294.53654 712.40342 293.95853 702.79047 293.89062 688.26562 C 293.81161 671.36826 293.14831 661.89591 291.55664 654.91211 C 288.00851 639.34389 288.78371 631.9676 295.65039 616 C 301.95334 601.34333 303.15301 583.32704 299.30078 561.18164 C 298.10334 554.2979 297.07362 543.56732 297.01172 537.33398 C 296.90996 527.07036 297.43209 524.61633 302.53516 511.33398 C 309.45925 493.31178 310.45952 483.67036 307.46875 463.82812 C 303.32135 436.31222 304.80555 422.17441 313.9375 402.19727 C 319.95254 389.03871 321.33548 376.64981 318.14648 364.47461 C 315.15384 353.04913 315.4557 346.59224 319.4375 336.97266 C 325.42493 322.50767 326.6864 317.03657 327.5 302 C 328.10056 290.9008 327.77144 285.12348 326.14648 278.25 C 322.91652 264.58745 323.35134 259.27857 328.58984 248.34766 C 336.05641 232.76755 337.76157 217.34398 334.10742 198.45117 C 333.06663 193.06999 330.98046 185.96602 329.4707 182.66602 C 325.73182 174.4937 325.79521 167.42879 329.63086 164.74219 C 333.86738 161.77481 338.65911 162.14685 356 166.78711 C 375.77757 172.07942 386.45502 172.21413 405.33398 167.41406 C 413.03398 165.45629 425.03333 163.52208 432 163.11523 C 443.26392 162.45741 446.43791 162.83367 460.66602 166.50781 C 482.12863 172.0501 490.46944 172.07584 515.89844 166.68359 C 543.69824 160.78861 552.39927 161.26402 577.10742 170.01953 C 589.74354 174.49722 595.29531 175.90391 596.31055 174.88867 C 597.09602 174.1032 598.43858 166.3823 599.29297 157.73047 C 600.25322 148.00667 601.11732 143.52741 601.55664 146 C 601.97739 148.36804 602.34854 146.237 602.4668 140.77734 C 602.57668 135.70513 602.26588 131.95678 601.77539 132.44727 C 601.28489 132.93776 599.93489 132.53318 598.77539 131.54883 C 595.48089 128.75201 581.88085 124.24482 568 121.34961 C 547.23488 117.0185 528.90216 118.1057 498.36914 125.47461 L 486.73633 128.28125 L 477.70117 125.56836 C 462.56206 121.02137 450.69302 118.71248 438.13281 118.61133 z M 765.98633 122.89844 C 754.45043 122.91708 742.91474 124.47011 741.73633 127.54102 C 741.35824 128.52632 740.21296 129.33398 739.19141 129.33398 C 738.16988 129.33398 737.33398 129.97297 737.33398 130.75586 C 737.33398 132.40395 793.18107 131.9897 794.20508 130.33398 C 794.54524 129.78398 793.95349 129.33398 792.88867 129.33398 C 791.82385 129.33398 790.62901 128.49129 790.23438 127.46289 C 789.05741 124.39581 777.52223 122.87979 765.98633 122.89844 z M 800.78711 131.48438 C 798.79967 131.4395 797.49381 132.32486 796.80078 134.13086 C 796.19511 135.70919 781.37067 136 701.375 136 L 606.66602 136 L 606.66602 145.79297 C 606.66602 151.17889 607.05866 161.98312 607.53711 169.80273 L 608.40625 184.01953 L 690.53125 183.67578 L 772.65625 183.33398 L 776.09375 176.9668 C 781.00163 167.87918 781.75875 167.34341 785.88477 170.04688 C 788.95187 172.05652 789.27965 172.94575 788.51367 177.17188 C 786.85205 186.33926 782.97078 192.00823 776.24805 195.08594 C 770.59591 197.67352 767.70787 197.94622 746 197.94922 C 722.67059 197.95274 721.45144 197.81423 702.39844 192.97656 C 681.9355 187.78091 672.46012 186.97036 659.94531 189.34375 C 644.23183 192.32375 627.30068 203.24834 618.75 215.92578 C 614.12245 222.78671 612.47399 226.56903 607.99414 240.58008 C 606.85143 244.15398 606.35505 254.56648 606.43945 273.24609 C 606.62881 315.12885 608.23731 360.0112 609.51953 359.21875 C 610.15082 358.82862 610.66602 358.87087 610.66602 359.3125 C 610.66602 361.78513 614.90487 398.0162 615.23242 398.34375 C 615.44815 398.55947 625.67237 397.90251 637.95312 396.88477 C 653.93605 395.56023 660.61419 394.50832 661.45312 393.18359 C 663.13025 390.53524 662.94116 386.89112 660.07031 366.66602 C 657.52981 348.76824 655.51919 317.19136 654 271.33398 C 653.25479 248.83966 653.37202 247.06575 655.88281 243.05469 C 659.70626 236.94655 671.80514 231.11447 673.83594 234.40039 C 674.19841 234.98687 673.10265 240.39635 671.40234 246.42188 C 667.97585 258.56456 667.94484 253.68619 672.08203 354.66602 C 672.93831 375.56602 673.62036 393.56602 673.59766 394.66602 C 673.57499 395.76602 673.82018 397.50182 674.14258 398.52344 C 674.89605 400.91104 674.6451 401.25117 681.92188 388.04297 L 688.14062 376.75391 L 686.09766 335.37695 C 684.97384 312.61973 683.44852 280.20065 682.70703 263.33398 C 681.96555 246.46732 681.02802 229.26651 680.625 225.11133 C 680.18371 220.56137 680.43861 217.22011 681.26562 216.70898 C 682.02089 216.2422 713.09611 215.89239 750.32031 215.93359 C 787.83859 215.97514 819.78261 215.46337 822 214.78516 C 824.2 214.11225 825.28236 213.51037 824.40625 213.44727 C 823.36619 213.37245 823.99908 210.74633 826.22656 205.88086 C 831.482 194.40147 833.30116 185.78534 833.31836 172.28906 C 833.33172 161.8378 832.83591 158.93326 830.13281 153.62305 C 826.41134 146.31229 823.81385 143.83265 811.97461 136.29102 C 807.02371 133.13728 803.34239 131.54207 800.78711 131.48438 z M 228.83398 149.33398 C 230.23875 149.33398 230.71676 150.43348 230.42188 152.98828 C 230.02122 156.45948 225.33398 159.32407 225.33398 156.09766 C 225.33398 155.31057 226.08333 154.65718 227 154.64648 C 228.20691 154.6317 228.1607 154.30569 226.83008 153.46289 C 224.64622 152.07965 225.97845 149.33398 228.83398 149.33398 z M 602.12891 181.96875 C 601.99681 182.27173 601.90494 189.07018 601.9043 200.66602 L 601.90625 200.66602 C 601.90531 217.53268 602.09457 224.61683 602.32812 216.4082 C 602.56097 208.19957 602.56268 194.40023 602.33008 185.74219 C 602.25739 183.03655 602.18895 181.83103 602.12891 181.96875 z M 895.91797 217.77344 C 895.59626 217.77604 895.25779 217.84797 894.89844 217.98633 C 893.67134 218.4588 846.31602 218.79242 789.66602 218.72852 L 686.66602 218.61328 L 686.66602 227.10156 C 686.66602 231.77043 687.0546 241.06224 687.5293 247.75 L 688.39258 259.91016 L 757.19727 260.58008 C 844.44599 261.43 858.31862 262.0423 859.16406 265.07812 C 859.91128 267.76122 861.47652 280.09875 865.96289 318.66602 C 867.79696 334.43268 875.63863 401.33398 883.38867 467.33398 C 891.13871 533.33398 897.2263 588.70488 896.91602 590.38086 C 896.2139 594.17334 895.66741 593.88358 924.97852 605.28906 C 943.20401 612.38094 949.02176 614.14032 950.20898 612.91992 C 951.70268 611.38448 949.89353 596.0642 937.41602 504.66602 C 931.2732 459.66965 901.12754 234.84742 900.4082 228.66602 C 899.52998 221.11912 898.16992 217.75524 895.91797 217.77344 z M 603.46289 245.14844 C 603.33172 245.46974 603.24279 252.56602 603.24219 264.66602 C 603.24132 282.26602 603.43023 289.65078 603.66211 281.07617 C 603.89342 272.50155 603.89507 258.10155 603.66406 249.07617 C 603.59187 246.25574 603.52251 245.00239 603.46289 245.14844 z M 604.44922 314 L 604.27148 346.66602 C 604.17362 364.63268 603.48764 381.73268 602.74609 384.66602 C 602.00453 387.59935 601.38273 391.14913 601.36523 392.55469 C 601.31044 396.95604 602.38644 394.31441 604.30859 385.32812 C 605.74744 378.60134 605.96966 369.67101 605.30469 345.33398 L 604.44922 314 z M 711.26172 352.04883 C 712.03452 352.07523 711.12047 353.4252 709.23047 355.04883 C 695.95697 366.45163 700.48518 388.10072 717.64258 395.26953 C 724.26188 398.03525 730.11522 397.82707 737.29492 394.57031 L 743.25781 391.86523 L 740.09961 395.22852 C 737.11631 398.40408 732.95278 400.24466 725.33398 401.75586 C 723.50058 402.1195 719.22403 401.57549 715.83203 400.54883 C 701.11953 396.09573 693.47129 379.83874 699.40039 365.62305 C 701.60189 360.34493 708.92162 351.96897 711.26172 352.04883 z M 723.58789 524.01953 C 724.46128 524.00831 725.54677 524.60065 726 525.33398 C 727.02307 526.98936 726.56149 526.98936 724 525.33398 C 722.79828 524.55737 722.63375 524.03153 723.58789 524.01953 z M 804.66602 557.375 C 803.93268 557.375 804.23398 557.95514 805.33398 558.66602 C 806.43398 559.3769 807.93268 559.95898 808.66602 559.95898 C 809.39935 559.95898 809.1 559.3769 808 558.66602 C 806.9 557.95514 805.39935 557.375 804.66602 557.375 z M 811.33398 560.04102 C 810.60065 560.04102 810.9 560.6231 812 561.33398 C 813.1 562.04486 814.60065 562.625 815.33398 562.625 C 816.06732 562.625 815.76602 562.04486 814.66602 561.33398 C 813.56602 560.6231 812.06732 560.04102 811.33398 560.04102 z" style="fill:#955252"/>
 <path d="m 561.53516,46.65625 c -252.6372,-0.0262 -317.12234,0.306057 -319.92774,1.654297 -3.5037,1.68389 -3.53153,1.822127 -9.83203,49.023437 -3.4749,26.033336 -6.85948,48.232036 -7.52148,49.332036 l -1.58789,10.56054 v 3.63672 c 0,3.55956 -6.10223,49.99245 -15.48243,117.80078 -2.6944,19.47753 -5.44485,34.85303 -6.43945,36 -0.9548,1.10112 -1.76859,3.8147 -1.80859,6.0293 -0.064,3.52582 -6.78077,54.41674 -15.04297,113.97266 -1.4752,10.63333 -3.22623,23.53462 -3.89063,28.66796 -0.6644,5.13333 -4.55804,33.93333 -8.65234,64 -6.6596,48.90512 -10.42573,76.65355 -24.61133,181.33204 -12.342,91.07451 -14.57551,108.87648 -13.88281,110.68164 0.6755,1.76036 50.04458,1.9509 426.95508,1.65429 L 986,820.66602 l 0.39453,-6.03125 c 0.2167,-3.31786 -2.60784,-27.91917 -6.27734,-54.66797 -3.6696,-26.7488 -14.80996,-108.03282 -24.75586,-180.63282 -9.9459,-72.6 -19.86261,-144.6 -22.03711,-160 -2.1746,-15.4 -7.54991,-54.4013 -11.94531,-86.66796 -4.3954,-32.26667 -12.52511,-91.66667 -18.06641,-132 -5.5413,-40.33334 -10.94747,-79.93334 -12.01367,-88 -6.466,-48.924884 -8.58086,-61.207807 -10.94336,-63.570317 -2.3076,-2.30763 -15.55481,-2.407993 -318.82031,-2.439453 z m 0.43164,2.677734 c 248.7455,0 313.9829,0.343701 315.74414,1.666016 2.2586,1.695708 2.65535,4.109298 12.22851,74.33398 4.41572,32.39183 14.42289,105.29921 19.39844,141.33204 3.64748,26.41488 8.44738,61.35934 20.70117,150.66796 2.56579,18.7 5.24001,37.89935 5.94141,42.66602 0.70139,4.76667 2.78418,19.76732 4.62891,33.33398 1.8447,13.56667 5.78688,42.36667 8.75976,64 2.97289,21.63334 6.54837,47.73334 7.94727,58 1.39888,10.26667 5.60798,40.86667 9.35156,68 3.7436,27.13334 7.68578,55.93334 8.76172,64 1.07594,8.06667 3.44487,25.09356 5.26367,37.8379 C 982.51216,797.9162 984,810.6649 984,813.50391 v 5.16211 H 560.07812 c -233.15672,0 -424.17644,-0.45 -424.48828,-1 -0.31184,-0.55 0.19569,-6.4 1.12696,-13 0.93125,-6.6 2.62254,-18.89871 3.75781,-27.33204 1.13526,-8.43334 4.19415,-30.93334 6.79883,-50 10.02774,-73.40452 14.29456,-104.84816 17.36718,-128 1.75185,-13.2 5.32092,-39.60129 7.93165,-58.66796 2.61073,-19.06667 6.28385,-46.06667 8.16211,-60 1.87824,-13.93333 4.56363,-33.73333 5.96874,-44 1.4051,-10.26667 4.09258,-30.06667 5.97071,-44 7.77421,-57.67465 10.16417,-73.3712 11.35742,-74.56446 3.75926,-3.75925 3.32346,1.19479 -6.67383,75.89844 -3.7619,28.11026 -7.18566,53.94206 -23.42383,176.66602 -24.72987,186.90203 -26.86838,203.01855 -29.41211,221.66992 -1.17542,8.6185 -1.79251,16.5698 -1.37109,17.66797 0.67824,1.76747 48.51139,1.99609 416.64453,1.99609 331.10895,0 416.14867,-0.33908 417.20117,-1.66602 0.88954,-1.12151 0.2777,-9.29894 -1.86914,-25 -1.75473,-12.83334 -7.35399,-54.49162 -12.44336,-92.57226 -5.89964,-44.14331 -9.87543,-69.79658 -10.96875,-70.78125 -0.94317,-0.84942 -4.41484,-2.29275 -7.71484,-3.20703 -3.3,-0.91428 -14.39935,-4.98033 -24.66602,-9.03711 -10.26666,-4.05678 -31.26796,-12.34691 -46.66796,-18.42188 -15.4,-6.07499 -41.1987,-16.27094 -57.33204,-22.6582 C 799.20065,562.26897 777.9,553.86901 768,549.99023 c -9.9,-3.87877 -35.39935,-13.94936 -56.66602,-22.3789 -21.26666,-8.4295 -43.76666,-17.28899 -50,-19.6875 -6.23333,-2.3985 -12.06563,-5.31339 -12.95898,-6.47656 -1.41738,-1.84549 -1.62892,-1.7155 -1.66602,1.01367 -0.0233,1.72014 -1.30685,4.90408 -2.85351,7.07617 -1.54667,2.1721 -2.57458,4.18714 -2.2832,4.47851 0.6919,0.69193 40.15253,16.39047 119.76171,47.64454 18.7,7.3415 41.49935,16.30275 50.66602,19.91211 9.16667,3.60938 20.26602,7.81076 24.66602,9.33789 4.4,1.52712 8.60065,3.20724 9.33398,3.73242 0.73333,0.5252 5.83398,2.36038 11.33398,4.07812 5.5,1.71776 10.9,3.86181 12,4.76563 1.1,0.90382 7.4,2.65205 14,3.88476 6.6,1.2327 12.29935,2.6712 12.66602,3.19532 0.36667,0.52413 5.12265,1.73404 10.56836,2.68945 10.4658,1.83615 20.34096,5.26472 15.43164,5.35742 -1.46667,0.0277 -7.72511,-0.84155 -13.9082,-1.92969 -10.71059,-1.88483 -16.43923,-1.82628 -8.80469,0.0899 2.74752,0.68959 3.43937,1.52376 2.91797,3.51758 -0.37585,1.4373 1.07265,17.4095 3.2207,35.49414 2.14807,18.08463 5.08269,42.78086 6.51953,54.88086 7.16527,60.34062 8.38156,71.89551 7.74414,73.55664 -0.57847,1.50736 -59.33124,1.75002 -360.37304,1.49414 -197.82506,-0.16814 -359.91575,-0.53879 -360.20118,-0.82422 -0.28543,-0.28542 0.39756,-8.25239 1.51758,-17.70508 1.12004,-9.4527 2.9307,-24.74061 4.02344,-33.97266 1.09275,-9.23207 1.91713,-20.33336 1.83203,-24.66796 -0.18306,-9.33128 0.24444,-13.38768 10.8125,-102.54688 2.49132,-21.01849 3.94016,-33.53048 10.72852,-92.66602 1.389,-12.1 4.05613,-35.20065 5.92773,-51.33398 1.8716,-16.13333 4.56851,-39.53333 5.99219,-52 5.96371,-52.22223 8.23444,-71.83479 10.73437,-92.66602 1.45211,-12.1 4.73476,-40.3013 7.29493,-62.66796 2.56016,-22.36667 6.20757,-54.16602 8.10546,-70.66602 1.89789,-16.5 4.49707,-39.19809 5.7754,-50.43945 1.62052,-14.25066 2.90212,-20.80531 4.23242,-21.65235 2.37528,-1.5124 528.9012,-0.56549 550.57422,0.99024 L 842,114 l 0.98633,8 c 5.78571,46.92913 10.19438,88.84569 9.52734,90.58398 -0.7411,1.93126 1.44337,2.11254 21.66406,1.78321 L 896.66602,214 l 0.40429,-3.47461 c 0.3135,-2.70056 -18.89999,-150.514521 -20.13281,-154.886718 -0.15936,-0.56516 -141.66788,-1.008968 -314.46484,-0.986328 -269.40867,0.03531 -314.2807,-0.22689 -314.90039,-1.841797 -0.39743,-1.035789 -0.36415,-2.241327 0.0742,-2.679688 0.43836,-0.438362 141.88269,-0.796875 314.32032,-0.796875 z m 204.74804,75.226566 c -8.10288,-0.013 -16.34477,0.85888 -21.71484,2.62109 -4.21667,1.38372 -7.66602,3.07531 -7.66602,3.75781 0,1.3274 55.90017,0.96555 56.72461,-0.36718 0.25904,-0.41874 -2.64879,-1.91254 -6.46093,-3.32032 -4.81627,-1.77859 -12.77993,-2.67837 -20.88282,-2.6914 z m 32.74414,7.71679 c -1.12446,0.0652 -1.84353,0.59945 -2.36718,1.53516 -1.11755,1.99696 -9.50105,2.1875 -95.82422,2.1875 h -94.60156 v 9.79297 c 0,5.38592 0.39264,16.19012 0.87109,24.00976 l 0.86914,14.2168 82.125,-0.3418 82.125,-0.34375 3.4375,-6.36718 c 4.92321,-9.11601 5.67264,-9.66283 10.49805,-7.66407 4.63988,1.9219 4.88725,3.47753 2.06054,12.9961 -2.39351,8.0598 -8.85418,14.39255 -16.29101,15.96875 -2.76568,0.58616 -15.82735,1.03118 -29.02735,0.98828 -23.4958,-0.0764 -24.39346,-0.18392 -42.66796,-5.13477 -17.08612,-4.6289 -19.68209,-4.99496 -30.66602,-4.32226 -16.67369,1.02116 -28.74933,6.01568 -41.47266,17.15625 -6.45111,5.64862 -14.42371,18.00362 -17.29101,26.79492 -1.24059,3.8037 -2.85079,7.66776 -3.57813,8.58594 -2.67258,3.37378 -0.53296,117.76949 2.19336,117.26953 0.93442,-0.17134 2.42103,6.62472 4.02344,18.39453 1.39778,10.26667 2.63977,18.80905 2.75977,18.98242 0.32167,0.46458 41.07701,-3.61619 43.03125,-4.30859 2.22549,-0.78852 2.12996,-9.60156 -0.2793,-25.68164 -2.25804,-15.07071 -4.16014,-42.73083 -5.66016,-82.32617 -1.24701,-32.91694 -1.04788,-37.12874 1.98828,-42.33399 3.48841,-5.9806 15.95469,-11.43697 18.1211,-7.93164 0.36247,0.58648 -0.73329,5.99596 -2.4336,12.02149 -3.42649,12.14268 -3.4575,7.26431 0.67969,108.24414 0.85628,20.9 1.53833,38.9 1.51563,40 -0.0227,1.1 0.22252,2.8358 0.54492,3.85742 0.75347,2.3876 0.50252,2.72773 7.7793,-10.48047 l 6.21874,-11.28906 -2.04296,-41.37696 c -1.12382,-22.75722 -2.64914,-55.1763 -3.39063,-72.04297 -0.74148,-16.86666 -1.67901,-34.06747 -2.08203,-38.22265 -0.44158,-4.55302 -0.1856,-7.89245 0.64258,-8.4043 0.75582,-0.46712 31.52974,-0.80164 68.38672,-0.74414 62.35606,0.0972 77.91498,-0.42415 74.5625,-2.49609 -0.81226,-0.502 0.15326,-4.30588 2.47656,-9.75196 4.43206,-10.38923 7.29797,-27.62367 6.26172,-37.66406 -0.39835,-3.85954 -2.28028,-10.08766 -4.18164,-13.83984 -2.95239,-5.82624 -4.96357,-7.70898 -13.78125,-12.89063 -8.62368,-5.06766 -13.05939,-7.18643 -15.53321,-7.04297 z m -197.33007,49.69141 c -0.1321,0.30298 -0.22397,7.10143 -0.22461,18.69727 h 0.002 c -9.4e-4,16.86666 0.18832,23.95081 0.42187,15.74218 0.23285,-8.20863 0.23456,-22.00797 0.002,-30.66601 -0.0727,-2.70564 -0.14113,-3.91116 -0.20117,-3.77344 z m 293.78906,35.80469 c -0.32171,0.003 -0.66018,0.0745 -1.01953,0.21289 -1.2271,0.47247 -48.58242,0.80609 -105.23242,0.74219 l -103,-0.11524 v 8.48828 c 0,4.66887 0.38858,13.96068 0.86328,20.64844 l 0.86328,12.16016 68.80469,0.66992 c 87.24872,0.84992 101.12135,1.46222 101.96679,4.49804 0.74722,2.6831 2.31246,15.02063 6.79883,53.5879 1.83407,15.76666 9.67574,82.66796 17.42578,148.66796 7.75004,66 13.83763,121.3709 13.52735,123.04688 -0.70212,3.79248 -1.24861,3.50272 28.0625,14.9082 18.22549,7.09188 24.04324,8.85126 25.23046,7.63086 1.4937,-1.53544 -0.31545,-16.85572 -12.79296,-108.2539 -6.14282,-44.99637 -36.28848,-269.8186 -37.00782,-276 -0.87822,-7.5469 -2.23828,-10.91078 -4.49023,-10.89258 z m -292.45508,27.375 c -0.13117,0.3213 -0.2201,7.41758 -0.2207,19.51758 -8.7e-4,17.6 0.18804,24.98476 0.41992,16.41015 0.23131,-8.57462 0.23296,-22.97462 0.002,-32 -0.0722,-2.82043 -0.14155,-4.07378 -0.20117,-3.92773 z M 604.44922,314 l -0.17774,32.66602 c -0.0979,17.96666 -0.78384,35.06666 -1.52539,38 -0.74156,2.93333 -1.36336,6.48311 -1.38086,7.88867 -0.0548,4.40135 1.02121,1.75972 2.94336,-7.22657 1.43885,-6.72678 1.66107,-15.65711 0.9961,-39.99414 z m 172.14062,230.44922 c 0.21289,-0.0211 0.46915,0.0468 0.74414,0.2168 0.73334,0.45322 1.33204,1.08872 1.33204,1.4121 0,0.32339 -0.5987,0.5879 -1.33204,0.5879 -0.73333,0 -1.33398,-0.6355 -1.33398,-1.41211 0,-0.48538 0.23503,-0.76957 0.58984,-0.80469 z m 6.66602,2.66601 c 0.21289,-0.0211 0.46914,0.0488 0.74414,0.21875 0.73333,0.45323 1.33398,1.08872 1.33398,1.41211 0,0.32339 -0.60065,0.58789 -1.33398,0.58789 -0.73333,0 -1.33398,-0.63549 -1.33398,-1.4121 0,-0.48539 0.23502,-0.77152 0.58984,-0.80665 z m 6.66602,2.66602 c 0.21289,-0.0211 0.46913,0.0488 0.74414,0.21875 0.73333,0.45323 1.33398,1.08872 1.33398,1.41211 0,0.32338 -0.60065,0.58789 -1.33398,0.58789 -0.73334,0 -1.33204,-0.63549 -1.33204,-1.41211 0,-0.48538 0.23308,-0.77152 0.5879,-0.80664 z m 4,1.33398 c 0.21289,-0.0211 0.46913,0.0488 0.74414,0.21875 0.73333,0.45323 1.33398,1.08872 1.33398,1.41211 0,0.32339 -0.60065,0.58789 -1.33398,0.58789 -0.73334,0 -1.33204,-0.63549 -1.33204,-1.4121 0,-0.48539 0.23308,-0.77152 0.5879,-0.80665 z m 6.66796,2.66602 c 0.21289,-0.0211 0.46915,0.0488 0.74414,0.21875 0.73334,0.45323 1.33204,1.08872 1.33204,1.41211 0,0.32338 -0.5987,0.58789 -1.33204,0.58789 C 800.60065,556 800,555.36451 800,554.58789 c 0,-0.48538 0.23503,-0.77152 0.58984,-0.80664 z m 10.74414,6.25977 c -0.73333,0 -0.43398,0.58208 0.66602,1.29296 1.1,0.71088 2.60065,1.29102 3.33398,1.29102 0.73334,0 0.43204,-0.58014 -0.66796,-1.29102 -1.1,-0.71088 -2.5987,-1.29296 -3.33204,-1.29296 z" style="fill:#2066a3"/>
 <path d="m 561.53516,46.65625 c -252.6372,-0.0262 -317.12234,0.306057 -319.92774,1.654297 -3.5038,1.68388 -3.53163,1.822127 -9.83203,49.023437 -3.475,26.033336 -6.85948,48.232036 -7.52148,49.332036 l -1.58789,10.56054 v 3.63672 c 0,3.55956 -6.10213,49.99245 -15.48243,117.80078 -2.6944,19.47753 -5.44485,34.85303 -6.43945,36 -0.9549,1.10112 -1.76849,3.8147 -1.80859,6.0293 -0.064,3.52582 -6.78067,54.41674 -15.04297,113.97266 -1.4752,10.63333 -3.22613,23.53462 -3.89063,28.66796 -0.6644,5.13333 -4.55804,33.93333 -8.65234,64 -6.6595,48.90512 -10.42583,76.65355 -24.61133,181.33204 -12.3421,91.07451 -14.57551,108.87648 -13.88281,110.68164 0.6755,1.76036 50.04458,1.9509 426.95508,1.65429 L 986,820.66602 l 0.39453,-6.03125 c 0.2168,-3.31786 -2.60784,-27.91917 -6.27734,-54.66797 -3.6695,-26.7488 -14.80996,-108.03282 -24.75586,-180.63282 -9.9458,-72.6 -19.86261,-144.6 -22.03711,-160 -2.1746,-15.4 -7.54991,-54.4013 -11.94531,-86.66796 -4.3954,-32.26667 -12.52511,-91.66667 -18.06641,-132 -5.5413,-40.33334 -10.94757,-79.93334 -12.01367,-88 -6.4661,-48.924888 -8.58086,-61.207797 -10.94336,-63.570317 -2.3076,-2.30762 -15.55481,-2.407983 -318.82031,-2.439453 z m 176.68164,1.537109 c 131.17467,-0.0035 139.30839,0.475638 140.85937,2.189453 1.49276,1.649485 3.2198,10.007353 5.57813,27.003907 3.62371,26.116121 7.91933,57.374281 16.66797,121.279301 5.9754,43.6477 10.32234,75.27531 19.33203,140.66796 3.33424,24.2 7.54449,54.8 9.35547,68 1.81099,13.2 6.01276,43.8 9.33789,68 3.32514,24.2 7.52383,54.8 9.33203,68 12.31862,89.92702 20.98333,152.89176 30.04101,218.33594 3.73017,26.9515 6.59297,50.9502 6.36328,53.33203 l -0.41796,4.33203 -424.91993,0.33399 c -269.04672,0.21236 -425.20846,-0.13079 -425.70703,-0.9375 -0.43302,-0.70074 -0.46145,-2.65222 -0.0625,-4.33594 0.39894,-1.68373 3.74437,-25.56055 7.4336,-53.06055 3.68922,-27.5 7.55698,-56.3 8.5957,-64 9.57587,-70.98594 13.24643,-98.0394 16.64062,-122.66796 2.17287,-15.76667 6.67421,-49.06667 10.00391,-74 3.32969,-24.93334 6.63939,-49.23334 7.35352,-54 0.71412,-4.76667 4.94651,-35.65856 9.40625,-68.64844 4.45973,-32.9899 8.41743,-60.28925 8.79492,-60.66602 L 246.51562,48.666016 561.71484,48.330078 c 75.38044,-0.08038 132.77706,-0.135561 176.50196,-0.136719 z m 136.0039,8.333985 c -2.93977,0.558832 -62.33559,53.127026 -61.79687,54.757816 0.25922,0.78474 6.74774,1.67025 15.01562,2.04882 L 842,114 l 0.98633,8 c 0.54247,4.4 3.11527,26.27886 5.71679,48.61914 2.98892,25.66655 5.32396,40.99717 6.34571,41.64648 2.22176,1.41194 39.28995,1.34527 40.16601,-0.0723 0.38781,-0.62751 -0.16267,-7.67881 -1.22265,-15.66797 -2.71156,-20.43752 -11.96938,-88.72321 -17.74219,-130.861328 -0.62804,-4.584316 -1.49899,-8.690407 -1.93359,-9.125 -0.0177,-0.01775 -0.049,-0.02059 -0.0957,-0.01172 z M 544.89648,120.16992 c -12.19478,-0.13091 -25.4787,1.9743 -46.11718,6.69531 l -7.62696,1.7461 c -2.98492,0.32877 -5.55275,0.3959 -8.0664,0.20703 l -6.30664,-1.84961 c -28.38038,-8.32153 -46.70681,-8.85583 -74.7793,-2.17969 -19.57356,4.65489 -23.14264,4.65383 -40,-0.0156 -16.67155,-4.618 -32.50268,-5.19467 -43.33398,-1.57813 -30.39674,10.1494 -42.08661,37.16236 -30.76758,71.09961 5.88235,17.63672 5.64928,25.43386 -1.20899,40.32227 -7.10276,15.4192 -8.84375,27.5242 -6.05468,42.09961 3.78985,19.80552 2.54225,30.26709 -5.81446,48.75781 -4.07598,9.01902 -5.77272,23.30556 -4.06054,34.18945 3.24723,20.64169 3.25672,20.48575 -1.89258,30.45117 -7.16014,13.85696 -8.73738,19.43452 -10.375,36.6836 -1.14673,12.07875 -1.11292,19.12995 0.14843,30.15039 3.4237,29.91219 3.50744,28.24352 -2.00976,40.46289 -7.48673,16.5814 -9.61868,31.2376 -7.58398,52.13477 0.88106,9.04898 2.33262,21.14616 3.2246,26.88281 1.63301,10.50243 1.27539,13.33642 -3.58203,28.40625 -0.78008,2.42009 -0.45845,2.75971 2.19727,2.3125 C 252.59876,606.86016 263,607.08506 274,607.6465 l 20,1.01954 1.93359,-4 c 2.74407,-5.6781 3.38925,-27.13053 1.22266,-40.66602 -0.99774,-6.23333 -1.81536,-17.93333 -1.81836,-26 -0.004,-14.14168 0.19653,-15.16715 5.62109,-28.66602 6.97091,-17.34686 7.89918,-24.84053 5.15821,-41.65234 C 304.95275,460.53953 304,447.39438 304,438.4707 v -16.22461 l 6.48047,-16.12304 c 8.02586,-19.96976 8.99516,-26.57385 5.92969,-40.35547 -2.99817,-13.47912 -2.64164,-20.23198 1.54687,-29.38086 7.87195,-17.1946 10.38524,-37.86437 6.86914,-56.49024 -3.07797,-16.30496 -2.77677,-20.06202 2.59571,-32.28125 8.76951,-19.94549 9.25824,-42.79601 1.33789,-62.59375 -5.39588,-13.48758 -5.62209,-16.28025 -1.63672,-20.26562 4.62498,-4.62497 10.72642,-4.4776 30.0957,0.72656 18.47267,4.96325 29.42028,5.26514 44.78125,1.23633 28.40951,-7.45112 38.11615,-7.56707 62.66602,-0.75 7.0589,1.96014 13.00597,3.03233 19.45312,3.19336 0.87374,0.0945 1.64974,0.15929 2.19336,0.1582 0.63784,-0.001 1.68324,-0.092 2.89648,-0.22265 6.98568,-0.31558 14.92622,-1.58795 25.58008,-3.85938 22.01717,-4.69412 36.13862,-5.30944 45.21094,-1.96875 3.3,1.21515 9.30065,3.38371 13.33398,4.81836 4.03334,1.43462 7.93269,2.82448 8.66602,3.08984 0.73333,0.26537 1.63333,0.45824 2,0.42774 0.36667,-0.0306 2.05631,0.68717 3.75391,1.5957 5.73409,3.06879 8.27358,2.90041 9.61914,-0.63867 0.69151,-1.81881 1.18555,-4.63903 1.09765,-6.26758 -0.0878,-1.62853 0.58048,-9.47242 1.48438,-17.42969 0.95382,-8.39672 1.14805,-14.96327 0.46289,-15.64843 -2.17559,-2.17559 -19.82009,-7.71027 -33.39453,-10.47657 -7.8859,-1.60704 -14.81009,-2.49176 -22.12696,-2.57031 z m 222.32227,4.22461 c -10.14292,-0.0947 -20.68209,1.18389 -24.64453,3.69141 -1.17572,0.74402 7.81618,1.17354 23.42578,1.11914 23.37097,-0.0815 24.98812,-0.23986 20.88477,-2.03125 -4.1278,-1.80206 -11.77708,-2.70562 -19.66602,-2.7793 z M 801.06445,132 c -0.86547,0 -18.39843,33.49869 -18.39843,35.15234 0,0.28818 1.8,1.27038 4,2.18164 4.55996,1.8888 4.804,3.47671 1.98632,12.96485 -2.39351,8.0598 -8.85418,14.39255 -16.29101,15.96875 -2.76568,0.58616 -15.82735,1.03118 -29.02735,0.98828 -23.4958,-0.0764 -24.39346,-0.18392 -42.66796,-5.13477 -15.25802,-4.13364 -18.99972,-4.8595 -27.43946,-4.49023 -0.61332,0.0212 -1.26802,0.0573 -1.91797,0.0996 -0.44691,0.025 -0.83196,0.0392 -1.30859,0.0684 -28.47461,1.7439 -50.3923,18.66863 -59.45898,45.91406 -2.92403,8.78668 -2.94905,9.52386 -2.15625,65.36133 0.47005,33.10529 1.33441,57.12173 2.08984,58.03516 0.70879,0.85703 2.36095,9.85697 3.66992,20.00195 l 2.37891,18.44531 5.40429,-0.73242 c 2.97256,-0.40343 12.60095,-1.40813 21.39454,-2.23242 8.7936,-0.82429 16.4436,-1.77917 17,-2.12305 1.57475,-0.97324 1.19721,-11.24196 -0.93555,-25.47656 -2.25804,-15.07071 -4.16014,-42.73083 -5.66016,-82.32617 -1.24701,-32.91694 -1.04788,-37.12874 1.98828,-42.33399 3.48841,-5.9806 15.95469,-11.43697 18.1211,-7.93164 0.36247,0.58648 -0.73329,5.99595 -2.4336,12.02149 -2.99436,10.61129 -3.05692,11.88609 -1.98437,40.5996 2.74521,73.49383 4.11285,105.62068 4.51172,106.01954 0.23687,0.23686 2.70663,-3.63924 5.48828,-8.61329 4.84628,-8.66603 5.0471,-9.5182 4.80469,-20.40234 -0.35384,-15.88812 -2.71528,-66.93835 -4.78125,-103.35937 -1.57304,-27.73128 -1.2811,-43.26968 0.85351,-45.4043 0.42769,-0.4277 31.89544,-0.71688 69.92774,-0.64258 54.43843,0.10635 69.59415,-0.22989 71.24414,-1.57617 3.90455,-3.18582 9.20545,-18.36953 10.76758,-30.84375 1.82988,-14.61226 0.88141,-21.99388 -3.95118,-30.76172 -3.05536,-5.54342 -5.36832,-7.5633 -14.89453,-13 C 807.18543,134.89724 801.63929,132 801.06445,132 Z m 95.08594,88.75977 c -1.40026,-0.86542 -65.7804,38.13024 -66.49609,40.27734 -0.4062,1.21858 3.17818,1.62891 14.20898,1.62891 14.21737,0 14.77626,0.1088 15.40234,3 0.94749,4.37513 2.80601,19.06328 6.79102,53.66796 1.94234,16.86667 9.93381,85.25457 17.75977,151.97461 l 14.23047,121.31055 23.97656,9.57617 c 13.18735,5.26731 24.72591,9.62871 25.64258,9.69141 2.31621,0.15828 2.30127,-0.0332 -3.65625,-43.96289 -7.21247,-53.18342 -14.5471,-107.63796 -21.99024,-163.25781 -1.86457,-13.93334 -4.56412,-34.03269 -5.99805,-44.66602 -3.41428,-25.31851 -8.43577,-62.77396 -13.40625,-100 -5.02419,-37.62823 -5.15511,-38.43078 -6.46484,-39.24023 z m -119.5332,55.48242 c -1.90024,0.0203 -3.7922,0.12441 -5.66602,0.3164 -11.18104,1.14553 -31.30311,7.63716 -39.20508,12.64844 -11.80635,7.48736 -24.38508,27.28739 -30.15039,47.45899 -1.46717,5.13333 -3.59204,16.39199 -4.72265,25.01757 -2.29352,17.49765 -1.81605,20.5142 4.70312,29.71485 5.18458,7.31711 10.49114,10.15789 20.24414,10.83398 6.7825,0.47018 9.08054,0.0408 13.45117,-2.50781 5.75052,-3.35329 14.0625,-13.28571 14.0625,-16.80469 0,-1.32446 -1.3502,-0.21792 -3.3789,2.76758 -1.85829,2.73473 -5.86404,6.23808 -8.90039,7.78711 -15.38098,7.8468 -34.37972,-3.87006 -34.38672,-21.20703 -0.006,-16.59251 18.56702,-27.0335 33.67969,-18.9336 2.73649,1.46667 5.2123,2.66602 5.5,2.66602 0.28772,0 0.91704,-2.10711 1.40039,-4.68359 1.33262,-7.10348 7.99282,-20.92913 11.75,-24.39258 3.89597,-3.5914 15.13776,-6.8855 23.58007,-6.90821 7.48702,-0.02 17.2236,4.54078 18.01758,8.43946 0.32243,1.58323 0.86375,8.2789 1.20313,14.8789 0.33938,6.6 2.17821,18.3 4.08594,26 4.94041,19.94062 6.1951,33.27993 4.77343,50.77149 -2.05984,25.3432 1.44451,43.69019 12.11524,63.42578 8.20869,15.18205 9.99481,24.58446 5.16015,27.17187 -6.90542,3.69567 -32.48634,-1.88797 -52.8457,-11.53515 -11.08678,-5.25342 -16.3435,-10.75756 -22.9668,-24.04688 C 740.75751,460.3465 728.15572,441.69792 721.69141,436.00781 709.403,425.19112 695.65622,420 679.29883,420 c -9.70116,0 -16.8906,2.12515 -52.63281,15.56055 -30.44962,11.44592 -39.97301,16.48661 -47.85157,25.32617 -12.00667,13.47116 -21.48047,37.33867 -21.48047,54.11523 0,7.59608 4.79245,24.1338 9.66602,33.35547 7.84388,14.84203 26.21548,31.72983 40.69727,37.41016 3.13393,1.22925 11.53522,3.46955 18.66796,4.97656 18.54084,3.91732 35.34883,9.74065 47.55079,16.47461 5.82034,3.21209 11.22034,5.63176 12,5.37695 0.77965,-0.25481 25.00601,7.66128 55.07268,6.87983 30.06667,-0.78145 59.22296,-10.56359 63.55622,-11.02631 6.89562,-0.73635 7.58266,-1.05812 5.50391,-2.57813 -8.36213,-6.11455 -45.74247,-15.19679 -62.61524,-15.21289 -17.31919,-0.0165 -22.03535,-1.6174 -36.30664,-12.33398 -7.22005,-5.42166 -15.84751,-11.41128 -19.17187,-13.31055 -11.55517,-6.60168 -29.80788,-13.27281 -46.81446,-17.10742 -9.4093,-2.1216 -19.08339,-4.6825 -21.49804,-5.69141 -10.82019,-4.52097 -20.62121,-20.38271 -19.16406,-31.01367 0.90449,-6.59904 5.98044,-17.4287 9.71093,-20.71875 1.3626,-1.20171 4.57787,-2.61783 7.14453,-3.14648 6.82314,-1.40536 35.44818,-12.41487 44.23633,-17.01367 9.92203,-5.19216 17.70578,-6.00817 23.37305,-2.44922 3.36186,2.11117 6.41971,7.07792 14.28516,23.20312 11.38327,23.3372 19.85915,34.0081 29.77148,37.48438 3.11667,1.09297 5.6768,1.56434 5.6875,1.04687 0.0112,-0.51747 0.46123,-0.30601 1,0.46875 1.31243,1.88728 21.69456,10.05073 23.03125,9.22461 0.57942,-0.35809 1.2627,-0.0205 1.51953,0.75 0.25683,0.7705 1.80814,1.50153 3.44727,1.625 1.63914,0.12347 2.98047,0.76224 2.98047,1.41797 0,0.65574 0.9,0.84595 2,0.42383 1.1,-0.42211 2,-0.15009 2,0.60351 0,0.7536 0.55952,1.02348 1.24218,0.60157 0.68266,-0.42192 1.62379,-0.14593 2.0918,0.61132 0.46801,0.75726 1.40914,1.0313 2.0918,0.60938 0.68266,-0.4219 1.24218,-0.0972 1.24218,0.72266 0,0.81991 0.55759,1.14653 1.24024,0.7246 0.68267,-0.42192 1.62378,-0.14787 2.0918,0.60938 0.46801,0.75725 1.41108,1.0313 2.09375,0.60938 0.68265,-0.42193 1.24023,-0.0953 1.24023,0.7246 0,0.81992 0.55758,1.14456 1.24023,0.72266 0.68267,-0.42192 1.62574,-0.14788 2.09375,0.60938 0.46802,0.75716 1.36802,1.05855 2,0.66796 0.63199,-0.39058 1.53199,-0.0912 2,0.66602 0.46802,0.75725 1.40913,1.0313 2.0918,0.60938 0.68265,-0.42193 1.24024,-0.0317 1.24024,0.86718 0,0.89884 0.39638,1.24034 0.8789,0.75782 0.48253,-0.48253 1.68189,-0.20934 2.66602,0.60742 0.98415,0.81676 1.78906,1.08969 1.78906,0.60742 0,-0.48225 1.35,-0.13376 3,0.77344 4.62719,2.54412 6.3323,2.83471 15.94141,2.71484 16.47326,-0.20554 36.13945,-11.97634 44.39453,-26.57031 10.19166,-18.01763 8.00481,-43.66797 -5.87891,-68.96485 -7.81235,-14.23447 -8.55827,-18.3063 -8.25976,-45.0664 0.29971,-26.86704 -1.04337,-39.38907 -6.47266,-60.33594 -2.21095,-8.53015 -4.14687,-20.24532 -4.62695,-28 -0.6334,-10.23085 -1.58186,-14.88457 -4.07422,-20 -9.34187,-19.17363 -34.94925,-33.30156 -59.50391,-33.75 -0.63503,-0.0116 -1.26893,-0.0146 -1.90234,-0.008 z m -65.35547,75.80664 c 0.0966,0.003 0.16761,0.0277 0.21289,0.0703 0.0905,0.0852 0.0805,0.24503 -0.0176,0.46289 -0.24523,0.54465 -1.04531,1.45203 -2.22656,2.4668 -0.40222,0.34553 -0.7886,0.70081 -1.1582,1.06445 -0.14221,0.13991 -0.27079,0.28724 -0.40821,0.42969 -0.22671,0.23505 -0.45621,0.4673 -0.66992,0.70898 -0.12379,0.13995 -0.23601,0.28566 -0.35547,0.42774 -0.2078,0.24724 -0.4166,0.49463 -0.61133,0.74804 -0.1258,0.16363 -0.24094,0.33197 -0.36132,0.49805 -0.17263,0.23832 -0.34631,0.47564 -0.50782,0.71875 -0.12666,0.19051 -0.2434,0.38483 -0.36328,0.57813 -0.13568,0.21898 -0.27338,0.43777 -0.40039,0.66015 -0.1333,0.23316 -0.25509,0.47036 -0.37891,0.70703 -0.0965,0.18474 -0.19633,0.36794 -0.2871,0.55469 -0.12349,0.25369 -0.2367,0.51041 -0.34961,0.76758 -0.0818,0.18644 -0.16402,0.3724 -0.24024,0.56055 -0.1081,0.26641 -0.20762,0.53511 -0.30469,0.80468 -0.0617,0.17158 -0.12247,0.34287 -0.17968,0.51563 -0.0968,0.29152 -0.18538,0.58432 -0.26953,0.87891 -0.0432,0.15148 -0.0871,0.30285 -0.12696,0.45507 -0.0864,0.32921 -0.1634,0.65991 -0.23437,0.99219 -0.024,0.11258 -0.0481,0.225 -0.0703,0.33789 -0.0709,0.35934 -0.13239,0.71994 -0.18554,1.08203 -0.014,0.0957 -0.0283,0.19121 -0.041,0.28711 -0.0484,0.36236 -0.0883,0.72553 -0.11914,1.08985 -0.009,0.10934 -0.0158,0.21864 -0.0234,0.32812 -0.0265,0.37708 -0.0449,0.75454 -0.0527,1.13281 -10e-4,0.0645 -10e-4,0.12887 -0.002,0.19336 -0.005,0.41084 -9.8e-4,0.82118 0.0156,1.23242 0.002,0.0436 0.004,0.0872 0.006,0.13086 0.0198,0.43139 0.0483,0.86226 0.0918,1.29297 0.002,0.0183 0.006,0.0364 0.008,0.0547 0.0467,0.45235 0.10517,0.90313 0.17773,1.35352 1.1541,7.16341 5.55349,14.00307 12.70899,18.10351 0.0932,0.0534 0.19105,0.10184 0.28516,0.1543 0.38367,0.21388 0.77087,0.42515 1.16992,0.62304 0.002,10e-4 0.004,0.003 0.006,0.004 0.5346,0.26496 1.08265,0.51523 1.64453,0.75 6.6192,2.76572 12.47264,2.55754 19.65234,-0.69922 l 5.96289,-2.70508 -0.0684,0.0723 -1.45703,1.55273 -1.63281,1.73829 c -2.9833,3.17556 -7.14683,5.01614 -14.76563,6.52734 -1.2195,0.24188 -3.52174,0.0768 -5.92382,-0.35938 -0.003,-4.6e-4 -0.006,-10e-4 -0.01,-0.002 -0.54277,-0.0986 -1.08943,-0.21354 -1.63086,-0.33789 -0.0971,-0.0225 -0.19438,-0.0451 -0.29101,-0.0684 -0.56088,-0.13416 -1.1158,-0.27883 -1.64649,-0.43945 -0.61176,-0.18517 -1.20672,-0.39775 -1.79297,-0.62305 -0.12506,-0.0479 -0.24914,-0.0968 -0.37304,-0.14648 -0.54872,-0.22062 -1.08919,-0.45325 -1.61524,-0.70703 -0.0211,-0.0102 -0.0434,-0.0191 -0.0645,-0.0293 -0.0539,-0.0262 -0.10842,-0.0516 -0.16211,-0.0781 -3.80141,-1.87911 -6.97204,-4.61718 -9.36719,-7.88476 -0.006,-0.007 -0.01,-0.0145 -0.0156,-0.0215 -1.97664,-2.70288 -3.42016,-5.76803 -4.2461,-9.01562 -0.81114,-3.18877 -1.02852,-6.55032 -0.5664,-9.91602 -1.4e-4,0.007 1.3e-4,0.0147 0,0.0215 0.0712,-0.52193 0.16016,-1.04488 0.26367,-1.56641 0.0133,-0.0665 0.0292,-0.13274 0.043,-0.19922 0.0914,-0.44233 0.19522,-0.88321 0.31054,-1.32422 0.029,-0.11002 0.0574,-0.22017 0.0879,-0.33007 0.11606,-0.42114 0.24614,-0.84078 0.38477,-1.25977 0.0352,-0.10602 0.0668,-0.2125 0.10352,-0.31836 0.17642,-0.51099 0.36694,-1.02103 0.57812,-1.52734 2.2014,-5.27812 9.52133,-13.65408 11.86133,-13.57422 z m 186.30078,263.1582 c -2.2522,-0.0167 -2.16223,0.59088 1.72461,1.56641 2.74752,0.68959 3.43937,1.52376 2.91797,3.51758 -0.37585,1.4373 1.07265,17.4095 3.2207,35.49414 2.14807,18.08463 5.08269,42.78086 6.51953,54.88086 7.16527,60.34062 8.38156,71.89551 7.74414,73.55664 -0.57847,1.50736 -59.33124,1.75002 -360.37304,1.49414 -197.82506,-0.16814 -359.91575,-0.53879 -360.20118,-0.82422 -0.28543,-0.28542 0.40235,-8.25239 1.5293,-17.70508 5.96559,-50.03832 6.42259,-55.32155 4.9082,-56.83594 -0.82911,-0.82916 -1.70983,-1.24748 -1.95507,-0.92968 -0.24524,0.31776 -6.76175,10.77747 -14.48243,23.24414 -25.67597,41.45929 -37.34231,59.96659 -39.94335,63.36523 -1.41625,1.85053 -2.93738,5.60118 -3.38086,8.33398 l -0.80664,4.96875 H 560.49219 C 897.72007,809.33398 976,809.0115 976,807.62305 c 0,-0.94092 -1.81796,-15.19222 -4.03906,-31.66797 -2.22111,-16.47576 -7.35452,-54.55443 -11.40821,-84.6211 -4.05371,-30.06666 -7.7233,-57.54248 -8.15429,-61.05664 -0.49059,-4 -1.61696,-6.83648 -3.01367,-7.58398 -1.22704,-0.65669 -10.41932,-2.14275 -20.42774,-3.30274 -10.0084,-1.15997 -21.31618,-2.69918 -25.12695,-3.42187 -2.7218,-0.51618 -4.91626,-0.7517 -6.26758,-0.76172 z m -211.64648,-2.61133 9.41796,8.80862 4.66602,3.91992 c 7.24549,6.08609 18.45551,9.25101 38,10.72461 26.35933,1.98743 39.34034,4.62819 50.66602,10.30664 17.12584,8.58655 44.66796,33.01724 44.66796,39.62305 0,6.06727 -12.06835,17.23225 -21.33398,19.73828 -30.78749,8.32695 -56.59405,7.45821 -89.95117,-3.03125 -25.42576,-7.99537 -33.47787,-8.07924 -56.04883,-0.58594 -23.76593,7.89003 -40.23504,10.58621 -62,10.1543 -15.68003,-0.31116 -29.1293,-2.95272 -50.66602,-9.95508 -20.89917,-6.79506 -32.77748,-7.19014 -50.66796,-1.68164 -21.10459,6.4981 -24.47018,7.26944 -41.15235,9.41992 -24.04693,3.09987 -42.60164,0.95104 -71.51367,-8.28125 -14.22492,-4.54236 -29.52604,-5.94083 -39.51172,-3.61133 -4.2261,0.98588 -13.39729,4.16969 -20.38086,7.07617 C 318.24236,710.15879 299.87692,716 296.21484,716 c -3.34851,0 -4.63234,-7.72488 -4.87695,-29.33398 -0.17474,-15.43432 -0.95872,-25.18271 -2.62695,-32.66602 -1.6304,-7.31352 -2.15501,-13.60067 -1.66992,-20 L 294,608.66602 c -12.06868,-2.14691 -32.34433,-4.29382 -36.20604,-6.44073 -12.58068,0.63602 -16.05088,24.99015 -16.36427,25.27862 -0.59052,0.54359 -0.56474,6.16529 0.26953,59.83007 0.57153,36.7634 1.14177,41.26852 6.50976,51.44532 6.11621,11.59528 16.49757,21.00286 27.3711,24.80078 8.11962,2.83602 10.85986,3.11927 25.7539,2.66992 17.95759,-0.54179 22.6653,-1.84429 48.66602,-13.45508 12.37184,-5.52472 16.61284,-5.84317 26.2832,-1.97656 20.36111,8.14122 43.07694,12.18015 68.38282,12.15625 22.68472,-0.0213 39.18987,-2.66636 61.83007,-9.9043 19.16007,-6.12536 20.29931,-6.10482 39.50391,0.70508 41.56053,14.73727 84.00858,14.55523 128.8125,-0.55469 17.56785,-5.92468 22.05283,-6.28378 30.52148,-2.4375 15.88151,7.21306 44.29282,12.23927 69.33204,12.26368 43.13016,0.042 73.08903,-10.26509 90.5371,-31.14649 18.86118,-22.57253 23.38875,-42.39057 14.53907,-63.64844 -3.8194,-9.17461 -8.15909,-9.68132 -19,-24.72656 -10.08733,-13.9994 -44.24937,-37.08048 -50.69336,-37.6543 -61.06663,0.91706 -72.28329,8.70024 -124.13281,6.72461 z" style="fill:#702322"/>
 <path d="m 561.53516,46.65625 c -252.6372,-0.02621 -317.12234,0.306056 -319.92774,1.654297 -3.5038,1.683883 -3.53163,1.822127 -9.83203,49.023437 -3.475,26.033336 -6.85948,48.232036 -7.52148,49.332036 l -1.58789,10.56054 v 3.63672 c 0,3.55956 -6.10213,49.99245 -15.48243,117.80078 -2.6944,19.47753 -5.44485,34.85303 -6.43945,36 -0.9549,1.10112 -1.76849,3.8147 -1.80859,6.0293 -0.064,3.52582 -6.78067,54.41674 -15.04297,113.97266 -1.4752,10.63333 -3.22613,23.53462 -3.89063,28.66796 -0.6644,5.13333 -4.55804,33.93333 -8.65234,64 -6.6595,48.90512 -10.42583,76.65355 -24.61133,181.33204 -12.3421,91.07451 -14.57551,108.87648 -13.88281,110.68164 0.6755,1.76036 50.04458,1.9509 426.95508,1.65429 L 986,820.66602 l 0.39453,-6.03125 c 0.2168,-3.31786 -2.60784,-27.91917 -6.27734,-54.66797 -3.6695,-26.7488 -14.80996,-108.03282 -24.75586,-180.63282 -9.9458,-72.6 -19.86261,-144.6 -22.03711,-160 -2.1746,-15.4 -7.54991,-54.4013 -11.94531,-86.66796 -4.3954,-32.26667 -12.52511,-91.66667 -18.06641,-132 -5.5413,-40.33334 -10.94757,-79.93334 -12.01367,-88 -6.4661,-48.924878 -8.58086,-61.207805 -10.94336,-63.570317 -2.3076,-2.307628 -15.55481,-2.407989 -318.82031,-2.439453 z m 176.68164,1.537109 c 131.17467,-0.0035 139.30839,0.475637 140.85937,2.189453 1.49276,1.649485 3.2198,10.007353 5.57813,27.003907 3.62371,26.116121 7.91933,57.374281 16.66797,121.279301 5.9754,43.6477 10.32234,75.27531 19.33203,140.66796 3.33424,24.2 7.54449,54.8 9.35547,68 1.81099,13.2 6.01276,43.8 9.33789,68 3.32514,24.2 7.52383,54.8 9.33203,68 12.31862,89.92702 20.98333,152.89176 30.04101,218.33594 3.73017,26.9515 6.59297,50.9502 6.36328,53.33203 l -0.41796,4.33203 -424.91993,0.33399 c -269.04672,0.21236 -425.20846,-0.13079 -425.70703,-0.9375 -0.43302,-0.70074 -0.46145,-2.65222 -0.0625,-4.33594 0.39894,-1.68373 3.74437,-25.56055 7.4336,-53.06055 3.68922,-27.5 7.55698,-56.3 8.5957,-64 9.57587,-70.98594 13.24643,-98.0394 16.64062,-122.66796 2.17287,-15.76667 6.67421,-49.06667 10.00391,-74 3.32969,-24.93334 6.63939,-49.23334 7.35352,-54 0.71412,-4.76667 4.94651,-35.65856 9.40625,-68.64844 4.45973,-32.9899 8.41743,-60.28925 8.79492,-60.66602 L 246.51562,48.666016 561.71484,48.330078 c 75.38044,-0.08038 132.77706,-0.135561 176.50196,-0.136719 z m 136.0039,8.333985 c -2.93977,0.558832 -62.33559,53.127026 -61.79687,54.757816 0.25922,0.78474 6.74774,1.67025 15.01562,2.04882 L 842,114 l 0.98633,8 c 0.54247,4.4 3.11526,26.27886 5.71679,48.61914 2.98891,25.66655 5.32396,40.99717 6.34571,41.64648 2.22176,1.41194 39.28995,1.34523 40.16601,-0.0723 0.38781,-0.62751 -0.16267,-7.67881 -1.22265,-15.66797 -2.71156,-20.43752 -11.96938,-88.72321 -17.74219,-130.861328 -0.62804,-4.584316 -1.49899,-8.690407 -1.93359,-9.125 -0.0177,-0.01775 -0.049,-0.02059 -0.0957,-0.01172 z m 21.92969,164.232426 c -1.40026,-0.86542 -65.7804,38.13024 -66.49609,40.27734 -0.4062,1.21858 3.17818,1.62891 14.20898,1.62891 14.21737,0 14.77625,0.1088 15.40234,3 0.94748,4.37513 2.80601,19.06328 6.79102,53.66796 1.94234,16.86667 9.93381,85.25457 17.75977,151.97461 l 14.23047,121.31055 23.97656,9.57617 c 13.18735,5.26731 24.72591,9.62871 25.64258,9.69141 2.31621,0.15828 2.30127,-0.0332 -3.65625,-43.96289 -7.21247,-53.18342 -14.5471,-107.63796 -21.99024,-163.25781 -1.86457,-13.93334 -4.56412,-34.03269 -5.99805,-44.66602 -3.41428,-25.31851 -8.43577,-62.77396 -13.40625,-100 -5.02419,-37.62823 -5.15511,-38.43078 -6.46484,-39.24023 z m 1.41211,394.44726 c -2.2522,-0.0167 -2.16223,0.59088 1.72461,1.56641 2.74752,0.68959 3.43937,1.52376 2.91797,3.51758 -0.37585,1.4373 1.07265,17.4095 3.2207,35.49414 2.14807,18.08463 5.08269,42.78086 6.51953,54.88086 7.16527,60.34062 8.38156,71.89551 7.74414,73.55664 -0.57847,1.50736 -59.33124,1.75002 -360.37304,1.49414 -197.82506,-0.16814 -359.91575,-0.53879 -360.20118,-0.82422 -0.28543,-0.28542 0.40235,-8.25239 1.5293,-17.70508 5.96559,-50.03832 6.42259,-55.32155 4.9082,-56.83594 -0.82911,-0.82916 -1.70983,-1.24747 -1.95507,-0.92968 -0.24524,0.31777 -6.76175,10.77747 -14.48243,23.24414 -25.67597,41.45929 -37.34231,59.96659 -39.94335,63.36523 -1.41625,1.85053 -2.93738,5.60118 -3.38086,8.33398 l -0.80664,4.96875 H 560.49219 C 897.72007,809.33398 976,809.0115 976,807.62305 c 0,-0.94092 -1.81796,-15.19222 -4.03906,-31.66797 -2.22111,-16.47576 -7.35452,-54.55443 -11.40821,-84.6211 -4.05371,-30.06666 -7.7233,-57.54248 -8.15429,-61.05664 -0.49059,-4 -1.61696,-6.83648 -3.01367,-7.58398 -1.22704,-0.65669 -10.41932,-2.14275 -20.42774,-3.30274 -10.0084,-1.15997 -21.31618,-2.69918 -25.12695,-3.42187 -2.7218,-0.51618 -4.91626,-0.7517 -6.26758,-0.76172 z" style="fill:#264a6d"/>
 <path style="fill:#0f1114" d="M 0,420 V 0 h 560 560 V 420 840 H 560 0 Z m 986.39411,394.63417 c 0.21674,-3.31786 -2.60823,-27.91786 -6.27774,-54.66666 -3.66952,-26.7488 -14.80937,-108.03418 -24.75525,-180.63418 -9.94588,-72.6 -19.8626,-144.6 -22.03715,-160 -2.17456,-15.4 -7.54998,-54.4 -11.94538,-86.66666 -4.39542,-32.26667 -12.52546,-91.66667 -18.06675,-132 -5.54131,-40.33334 -10.94736,-79.93334 -12.01348,-88 -6.46604,-48.924877 -8.58044,-61.208014 -10.94296,-63.570526 -2.30763,-2.307628 -15.55541,-2.409037 -318.82092,-2.440501 -252.63716,-0.02621 -317.12144,0.307524 -319.92683,1.655765 -3.50376,1.683883 -3.53118,1.820615 -9.83161,49.021925 -3.47493,26.033337 -6.85967,48.233337 -7.52165,49.333337 l -1.58772,10.55991 v 3.63603 c 0,3.55956 -6.10304,49.99363 -15.48326,117.80196 -2.6944,19.47753 -5.44456,34.85303 -6.43918,36 -0.95486,1.10112 -1.76888,3.81397 -1.80894,6.02857 -0.0637,3.52582 -6.78086,54.41755 -15.04312,113.97347 -1.47517,10.63333 -3.22574,23.53333 -3.89017,28.66667 -0.66443,5.13333 -4.55791,33.93333 -8.65219,64 -6.65957,48.90512 -10.4259,76.65484 -24.61148,181.33333 -12.34204,91.07451 -14.57465,108.87511 -13.88195,110.68027 0.67551,1.76036 50.04319,1.95173 426.95373,1.65512 L 986,820.66667 Z M 715.83279,400.54951 c -14.7125,-4.4531 -22.36107,-20.70998 -16.43188,-34.92567 2.20144,-5.27812 9.5206,-13.65575 11.86065,-13.57589 0.77281,0.0264 -0.14124,1.37637 -2.03123,3 -13.27344,11.4028 -8.74568,33.05293 8.41171,40.22174 6.61928,2.76572 12.47372,2.55738 19.6534,-0.69938 l 5.96211,-2.70447 -3.15818,3.36172 c -2.98329,3.17556 -7.14718,5.01624 -14.76604,6.52744 -1.83333,0.36364 -6.10857,-0.17883 -9.50054,-1.20549 z"/>
</svg>
