<svg xmlns="http://www.w3.org/2000/svg" width="1514.667" height="853.333" version="1.1" viewBox="0 0 1514.67 853.33">
 <path style="fill:#12715F" d="m468.8392 176.8139c-1.36963 0.12645-3.53681 2.08364-6.49886 5.87491-10.71532 13.71499-25.34383 26.35125-50.75036 43.84042-26.02222 17.91299-35.43543 27.02635-45.29629 43.85264-3.40194 5.80495-6.34493 8.29059-13.64125 11.51737-49.50706 21.89438-81.55265 98.48629-87.01772 207.98566-1.08799 21.79925-2.91201 39.69825-5.07479 49.78629-3.87007 18.05162-4.35444 29.55774-1.2895 30.65673 5.2915 1.89734 7.6596-2.37319 12.05569-21.73548 2.455-10.81288 5.88132-24.17058 7.61218-29.68287 5.69007-18.1213 9.9876-39.79439 11.59323-58.46286 6.72235-78.1594 18.64454-111.80479 50.70876-143.08265 11.53732-11.25438 12.50543-11.49093 19.24945-4.74692 2.75614 2.75614 6.67579 5.01117 8.71083 5.01117 2.03503 0 6.96294 3.00507 10.9497 6.67994 9.29822 8.57081 19.73742 9.45362 26.91792 2.27313 5.7384-5.73842 1.82821-9.60044-11.2996-11.15524-14.01573-1.65995-16.85771-6.43685-8.81849-14.82798 12.10731-12.63732 27.5989-1.78828 28.22699 19.76819 0.3106 10.65981 5.84864 34.75886 10.98151 47.78965 2.57977 6.54927 5.49239 5.90947 3.79753-0.83438-0.75039-2.98582-1.48551-19.33477-1.6345-36.33099-0.38196-43.56244-4.14026-51.17325-26.32334-53.29998-17.24049-1.65284-12.63285-10.76697 15.46171-30.58577 29.101-20.52878 50.23494-45.27237 52.69806-61.6976 0.88346-5.89139 0.44209-8.75598-1.31886-8.59338zm656.0426 114.31981c-10.224-0.19386-13.3287 6.04108-7.1399 17.33111 2.9222 5.3309 3.7504 9.98342 4.1597 23.36019 0.6538 21.36561 1.6749 27.07958 5.2044 29.13723 5.3689 3.1299 9.385 0.0502 11.2924-8.657 1.0518-4.80219 4.204-13.28029 7.5118-20.90843 2.2954 2.72951 6.1346 5.31552 11.8305 8.44166 12.8603 7.05813 75.8205 31.65057 77.5289 38.45733 2.2477 8.95572-35.9547 67.82095-49.0254 75.54193-2.5038 1.47908-6.2615 5.29812-8.351 8.48572-5.0882 7.76208-7.5061 8.36009-14.0255 3.47456-16.9729-12.71913-26.7727-1.80065-23.0544 25.68469 3.0021 22.19071 7.6553 26.33511 17.6541 15.73332 6.3503-6.73331 8.6627-7.13192 14.5442-2.50559 2.3358 1.83744 4.9742 3.34241 5.8628 3.34241 0.8884 0 6.409 4.69636 12.266 10.43833s13.9519 12.06797 17.9894 14.0572c29.8843 14.72356 35.4506 29.19191 19.8195 51.50644-19.2352 27.45961-60.3731 71.50108-68.7519 73.60402-7.3561 1.84626-7.8539-0.68398-6.746-34.34904 0.8976-27.2778 1.8506-37.33691 5.2681-55.60736 1.3469-7.2009-3.3184-11.20908-13.0491-11.20908-10.9246 0-10.6818-1.09252-10.1937 45.93494 0.5664 54.57942-1.7743 74.48145-9.4669 80.50173-7.7502 6.06542-6.311 14.2363 3.1174 17.70304 5.9125 2.17408 10.4609 0.70222 22.281-7.20356 6.8971-4.6131 16.5879-10.17728 21.5324-12.36399 4.9445-2.18672 17.3548-9.49837 27.5785-16.24961 10.2238-6.75124 24.0872-15.77831 30.8085-20.05937 30.2378-19.25955 70.8044-58.97023 74.2451-72.67912 4.5931-18.29974-20.0127-40.29001-74.9693-66.99505-35.7123-17.35361-35.0536-16.41371-20.8816-29.67798 51.8176-48.49825 69.2418-67.58527 79.5108-87.09358 2.5063-7.26073 1.3866-11.42903-1.5611-19.53819-11.5334-31.72857-92.3216-66.98658-128.9202-67.61656-1.0532-0.0181-2.0149 0.1011-2.9069 0.3499-2.8568-2.22929-7.9813-4.35256-15.8214-7.10812-6.0507-2.12666-11.1404-3.18828-15.1412-3.26412zm-140.66756 1.45588c-8.47852-0.0838-21.19553 2.3914-23.94742 5.14329-4.43437 4.43437-4.00044 8.50309 1.82046 17.12804 10.9847 16.27624 15.74344 30.5843 15.64522 47.03112-0.26023 43.56244-2.79906 95.34959-4.79095 97.71785-6.58743 7.83223-0.39869 20.04469 10.15692 20.04469 9.24425 0 27.92743-28.95509 24.87963-38.55765-3.2871-10.35681-1.5098-73.31182 2.4885-88.1604 3.0909-11.47855 20.2738-4.99926 40.3389 15.20968 17.8017 17.92927 18.6082 22.70735 8.1187 48.14445-2.7309 6.62284-4.9647 13.75908-4.9647 15.8581s-2.6407 7.06917-5.8675 11.04514c-3.2268 3.97596-7.1731 9.4043-8.7696 12.06303-1.5964 2.65872-7.695 11.20622-13.5531 18.99253-6.4915 8.62818-12.8095 19.50942-16.1787 27.86485-3.0404 7.54013-7.4561 17.33431-9.81188 21.76484-4.58735 8.62759-5.32166 14.19155-2.55451 19.36201 4.83759 9.03923 17.26149 2.64361 24.25079-12.48389 3.1443-6.80541 7.5396-13.75922 9.7679-15.45193 2.2426-1.70351 10.2078-15.38403 17.84-30.63959 13.2697-26.52415 25.2296-45.8827 38.1785-61.80283 3.3625-4.13422 7.9078-10.14925 10.1006-13.36474 2.1928-3.21552 6.8528-9.33306 10.3575-13.59478 16.7479-20.36464-2.5355-46.4356-55.4311-74.94246-9.6465-5.19875-19.7942-10.70477-22.5503-12.2343-5.3752-2.98291-34.29117-14.15031-40.50534-15.64278-1.3309-0.31966-3.06193-0.47495-5.01852-0.49427zm-606.95127 47.00664c-1.69254 0.008-3.45636 0.92695-6.13428 2.63038-5.77777 3.67525-6.98357 5.41055-7.01515 10.0982-0.014 2.08764-2.8992 6.97516-6.41078 10.85917-21.18683 23.43395-29.60798 51.51716-33.71284 112.42349-1.91625 28.43222-3.08334 31.76715-20.41418 58.39189-23.27945 35.76334-30.66789 57.08237-32.45517 93.65117-0.80743 16.52072-0.56404 22.19454 0.99343 23.15709 3.33814 2.06308 5.56968-1.68883 6.91973-11.63727 0.94957-6.99739 2.29363-10.13009 5.38554-12.56218 2.42173-1.90492 4.59895-5.83288 5.28522-9.53298 1.96129-10.57426 10.52314-29.17895 17.88655-38.86595 41.3997-54.46378 46.57705-69.22225 39.84714-113.58818-7.89842-52.06906 10.11457-121.40612 20.93779-80.59472 3.44154 12.97713 12.16953 32.354 20.37012 45.2229 3.11643 4.89044 6.41703 11.04228 7.33324 13.67061 0.91626 2.62832 3.45996 5.95308 5.65225 7.38952 7.57303 4.96206 17.91385 22.48224 24.06489 40.77205 8.31793 24.73289 10.00003 43.79142 3.33261 37.75751-6.02142-5.44928-7.09673-1.62914-5.8749 20.84727 1.23324 22.68663-0.27913 37.04784-5.79418 55.00787-6.32186 20.58751-4.03213 35.73682 8.37072 55.36269 3.94484 6.24221 5.0901 10.63398 6.74845 25.89268 3.70676 34.10635 8.13912 47.35113 19.60669 58.57296 9.90606 9.69379 35.23835 26.01789 48.03923 30.9577 15.19169 5.86242 22.46978 6.08903 27.39017 0.85151 4.73939-5.04486 2.18875-17.26799-3.8636-18.51296-1.91552-0.39403-9.87193-1.93446-17.68102-3.42316-36.33352-6.92654-53.8159-24.71612-59.30213-60.34205-1.67398-10.87035 2.23778-10.81358 18.5619 0.26426 25.59218 17.36734 65.7961 12.36791 65.7961-8.1823 0-12.72855-7.41643-14.90872-14.4683-4.25264-11.45659 17.31208-30.69739 14.09611-56.39525-9.42285-24.32768-22.26495-25.1249-24.52256-24.60565-69.71842 0.28639-24.92651 1.11529-39.68473 2.35389-41.93675 5.53846-10.07016 6.00464-34.86526 1.08151-57.49391-1.93123-8.87668-4.11157-20.64954-4.84479-26.16184-2.09157-15.72438-9.34074-32.23767-23.3822-53.25349-2.52862-3.78454-5.15263-8.67146-5.82842-10.86161-0.67581-2.19017-3.74822-8.28404-6.82919-13.54094-10.88549-18.57325-11.18583-28.93235-0.92002-31.69664 7.09579-1.91069 15.24149-9.93514 15.24149-15.01394 0-4.68125-4.15107-7.33705-8.13582-5.20448-6.08094 3.25443-13.14496 2.0661-19.17114-3.22495-3.72642-3.27185-5.78351-4.76708-7.95965-4.75671zm58.26222 43.90159c-1.38712 0.34306-0.37035 9.91015 2.41505 25.55257-2.53753 4.21937-1.55493 21.7836 3.1956 35.41098 1.38228 3.96521 3.41951 5.34743 4.85457 3.99573 5.10437 16.63206 11.47819 35.11252 19.23477 54.73139 3.67383 9.29228 7.41301 18.2203 11.16259 26.74175 1.32671 3.0108 2.65315 5.95086 3.97615 8.8454-0.91213 0.75575-1.84013 1.58816-2.79432 2.59122-22.73734 23.90193-16.29431 46.06167 17.68592 60.82897 15.43074 6.70597 18.14518 6.8286 18.84083 0.84906 0.0279-0.24036 0.0261-0.44805 0.039-0.67044 2.846 4.36012 5.11777 7.43761 6.60653 8.98487 0.62637 0.91374 1.14169 1.38681 1.4877 1.28217 0.34651-0.10487 0.5101-0.78416 0.46733-2.08473-1.60458-8.3034-17.01759-41.46552-35.10021-85.40035-3.49579-8.48614-7.05128-17.26373-10.67566-26.41632-7.87139-19.87764-14.58388-37.75809-20.67104-54.34233-10.17-36.73427-18.41737-61.47062-20.72491-60.89994zm-43.76946 74.4433c-4.21539 0-6.07421 4.77094-11.14301 28.62095-5.42913 25.54551-5.56507 30.91728-2.14345 84.43384 3.588 56.11846-22.06514 107.37851-66.16313 132.20636-5.05292 2.84487-15.40196 10.8309-22.99559 17.74707-23.10276 21.04169-47.96089 29.28355-50.25119 16.66068-0.3214-1.77135-2.00233-4.75919-3.73391-6.64077-7.28757-7.91892-4.13722-23.93263 10.37224-52.7372 13.57886-26.95706 16.70106-79.24937 4.45085-74.54853-1.70929 0.65592-2.80639 4.3297-3.44764 11.54675-1.39066 15.65156-14.7974 55.82627-27.36081 81.99431-16.355 34.06549-14.71063 43.59359 9.04361 52.4191 6.86958 2.55227 25.3046 1.83351 35.41342-1.38002 9.90778-3.14962 23.33508-12.39146 42.62921-29.34277 1.81921-1.5983 8.20681-6.45008 14.19671-10.78331 13.6449-9.87102 24.05237-17.69187 30.38511-22.83166 6.03503-4.89817 17.2298-21.15662 21.78686-31.64525 1.86401-4.29028 5.24776-10.28658 7.51919-13.32316 5.70435-7.6259 11.85657-27.87966 14.81331-48.76595 2.31007-16.3183-0.13536-91.53761-3.44762-106.04208-0.41625-1.82272 0.34953-8.08908 1.70301-13.92509 2.52892-10.90452 2.20107-13.66327-1.62717-13.66327zm96.99114 98.5033c8.12989 16.53599 15.7031 30.2375 21.64003 39.96214-1.01478-0.692-2.24777-1.44746-3.80731-2.3441-17.45628-10.0362-22.75657-20.71763-17.83272-37.61804zm509.82061 52.33347c-4.91875-0.3181-11.42434 5.54006-11.42434 10.68788 0 1.45917-2.79938 5.07378-6.21992 8.03061-5.94863 5.14219-6.12222 5.58501-3.99573 10.19852 1.54684 3.35593 2.46576 41.05941 3.01699 66.62803 0.73978 34.31444 1.01492 36.94142 4.17922 39.67096 5.44773 4.69924 14.86384 3.76291 22.4157-2.22909 8.5429-6.77828 8.4386-6.18452 7.1473-39.94746-0.615-16.07751-1.2026-60.89895-1.3042-68.97947-0.2038-16.22027-3.009-21.44241-12.85337-23.91318-0.31145-0.0782-0.63365-0.12562-0.96165-0.1468z"/>
 <path style="fill:#D41919" d="m488.29664 45.564268c-3.91669-0.127075-9.70259 1.337402-17.62718 4.203707-17.89442 6.472371-22.84504 15.421847-31.22685 56.451525-4.20547 20.5861-2.74895 19.31309-22.08537 19.31309-30.90074 0-37.18957 13.82261-9.00444 19.79021 22.01873 4.66202 22.30772 5.15732 19.3302 33.02528-2.19631 20.55619-1.87848 22.35208 3.94923 22.35208 5.02974 0 7.55226-3.19848 8.772-11.12588 1.3933-9.05556 3.41123-12.25878 7.72474-12.25878 5.20324 0 10.83835-4.3145 11.47332-8.78422 1.13087-7.9602 28.59246-1.22558 53.95574 13.23263 33.20479 18.92824 46.60474 50.08201 53.41254 124.17086 1.72674 18.79193 7.29099 64.67453 10.99131 90.64153 4.03304 28.30197 4.06026 30.82912 0.35234 31.98048-9.22401 2.86415-52.75069 6.10994-76.84612 5.73053-35.02658-0.55139-32.86087-2.54324-31.25132 28.69681 1.37537 26.69435 3.31169 31.35026 12.21474 29.3819 27.88855-6.16581 104.98858-13.95647 107.90901-10.90321 1.3042 1.36349 5.49771 21.62343 9.88778 47.77496 4.19239 24.97405 9.48783 53.53937 11.76696 63.47648 10.81936 47.17282 16.21169 74.18376 20.94512 104.9263 2.8291 18.3743 7.74881 45.43463 10.93503 60.13406 3.18624 14.69943 5.80605 29.89526 5.82108 33.76668 0.0242 6.24442 0.73107 7.5171 6.26152 11.27514 16.68189 11.33564 35.25702 1.89419 28.94392-14.71054-5.07506-13.34842-4.15299-24.35689 2.26334-27.03781 8.0369-3.35804 8.60845-5.42007 5.45162-19.69234-1.45935-6.59781-3.1118-17.2595-3.67273-23.6905-1.33422-15.29647-8.40318-65.03679-12.69922-89.36428-1.86575-10.56523-4.12336-23.72035-5.01607-29.23264-0.89271-5.5123-4.16645-20.18123-7.27696-32.59709-7.67258-30.62551-18.36486-90.87502-16.62643-93.68787 1.56097-2.52567 8.16514-4.7134 24.94821-8.25815 8.26843-1.74638 18.79351-4.35379 23.38708-5.79661 4.59358-1.44285 13.48478-3.27973 19.75841-4.08138 23.76571-3.03685 25.71381-20.87503 2.58879-23.70518-5.85983-0.71717-14.03862-2.04781-18.17284-2.95826-4.13421-0.91048-18.08325-1.68739-30.99928-1.72749-27.4198-0.0849-28.44198-0.53131-30.75706-13.43572-11.75861-65.54347-16.36702-100.52113-20.03-152.00635-6.14147-86.32147-11.95101-102.58999-42.95953-120.33174-16.61925-9.50877-48.7794-16.51463-76.22708-16.60685-12.37392-0.0415-16.17621-2.03045-16.17621-8.46124 0-9.55863 5.162-36.933016 9.50118-50.38577 4.25559-13.193601 3.58681-19.241756-3.89052-19.484352zm698.55936 230.28878c-6.4669-0.0892-14.071 4.87251-21.1508 15.29778-4.8533 7.14732-7.1453 5.52827-9.599 9.22711-15.8003 23.8176-22.506 52.67903-30.7082 80.05886-12.4969 41.71747-27.784 108.54333-27.9847 127.61604-0.13 12.36315-6.6906 21.88132-11.0108 15.97311-1.0387-1.42042-2.3016-12.14955-2.8066-23.84222-1.0378-24.03006-3.5928-28.88029-15.2121-28.88029-8.0293 0-10.4014 2.70019-16.1346 18.37348-10.3509 28.29731-55.95637 106.90581-62.02302 106.90581-2.38561 0 0.4444-19.28982 2.60594-28.62338 7.95028-34.33016 15.41498-71.45707 37.67188-98.77734 7.5032-9.2102 21.0276-15.2926 30.045-19.16871 9.0169-3.8761-2.4329-17.82701-11.2066-22.8855-11.7968-2.90808-13.4464-2.80936-21.5496 1.29684-4.5574 2.30945-7.5201 4.00899-10.5509 6.92706-19.63758 18.90759-35.43018 42.14324-47.43967 66.6158-7.16824 14.6072-22.11492 40.4728-14.12573 46.72527 6.545 5.12224 5.40366 8.94705-6.76312 22.69707-9.02719 10.20186-13.55316 10.75884-13.55316 1.66877 0-10.90702-5.41425-41.37837-10.06639-56.65463-6.63325-21.78151-11.41552-40.25298-14.22362-54.92958-3.57456-18.68258-11.13684-26.89965-24.76222-26.91302-12.32333 0.16781-45.03965 45.40973-58.80053 56.15056-10.82588 8.2573-10.98029 14.54012-0.49182 19.96394 6.36873 3.29338 12.21141 2.00655 15.80917-3.48434 2.21991-3.38801 14.10244-14.17221 20.15969-14.17221 8.89716 0 22.39453 3.16745 26.60472 25.35927 3.525 18.57983 12.54728 50.63264 15.56694 61.91048 3.98635 15.06764 4.18549 38.2082-3.32773 51.25441-4.7585 10.26015-19.88014 9.91533-31.05068 2.59612-4.9127-3.21891-4.195-22.90742 1.30174-35.68013 5.28403-12.27846 1.88857-18.58146-10.01256-18.58146-4.75921 0-7.10509-0.9453-8.84295-3.56263-3.44722-5.19179-7.63656-3.11941-18.19732 8.9971-28.04934 32.18159-26.85608 32.59982-26.57046-9.34457 0.11814-25.50986-3.31685-58.77411-6.72886-90.27694-0.008-28.43582-9.23799-52.00025-20.72003-51.13695-38.18215 2.87079-58.30155 40.63346-95.20248 76.10717-7.93228 7.62551-10.94009 8.92045-6.94908 15.0115 5.09866 7.78155 11.98027 5.73277 23.48498-6.99069 11.8973-12.97914 20.60377-19.34077 39.96947-26.58026 12.01406-4.49122 20.56092-7.21699 29.16414 20.94759 2.21881 7.26374 4.18529 17.55468 5.11884 22.12697 7.69425 37.68487 17.03318 94.2686-16.62398 94.46841-10.76668 1.25873-13.38448-10.21578-6.67994-29.29137 5.22339-14.86149 1.0335-17.86429-21.87738-15.67705-21.19051 2.02302-21.42763 2.42002-12.45942 20.91822 8.14959 16.80968 13.92616 22.94128 31.45929 33.40211 27.99593 16.70324 35.9028 18.25363 48.93233 9.63574 15.75376-10.22133 19.51324-24.36504 34.76747-37.01612 1.13113 0 5.01879 4.60746 8.63986 10.24011 6.37255 9.91264 24.67934 25.73171 37.37826 32.29857 6.81543 3.52439 15.68083 3.20835 23.62443-0.84417 6.92928-3.53504 7.98528-4.85248 26.06886-32.50655 18.67392-28.55687 22.09016-30.68381 21.83091-13.58498-0.28912 19.06478 14.0545 25.14855 26.5362 26.99133 5.87752 0.86777 11.34099-4.45108 15.63541-8.55667 8.94632-8.55291 6.79102-13.5057 19.27152-31.73824 18.044-26.36012 34.0957-55.04068 39.9523-71.38474 7.2611-20.26309 10.1242-19.81725 14.3606 2.234 3.4891 18.16119 6.134 22.60334 15.0384 25.27117 17.6844 5.29839 11.1134 15.67917-23.4139 36.99166-11.7398 7.24645-13.1891 9.62621-9.396 15.41522 3.4635 5.28603 7.4725 5.28053 23.7395-0.0293 7.063-2.30561 16.1012-7.39294 16.4723-7.02194 0.371 0.37099-2.0108 25.49172-1.6811 51.54258 0.3296 26.05088 1.0112 51.87639 1.5146 57.38869 0.5034 5.51228 1.7673 20.16996 2.8091 32.5726 2.0852 24.82593 2.0405 24.6589 7.1545 26.77356 5.7526 2.37869 11.5429 0.30557 17.3678-6.21747 6.449-7.22191 6.4379-6.97259 1.7301-32.81486-3.9614-21.74442-5.6063-117.56432-2.4078-140.30057 0.581-4.12906 1.6073-6.33119 3.9385-8.59883 15.0894-14.67819 31.7545-25.57101 52.2805-30.09088 8.006-1.76292 10.0225-3.69307 10.0225-10.0297 0-11.01211 1.5651-16.30777 5.268-16.4429 0.9915-0.17688 1.6679 0.46773 1.9942 0.35969 4.8489-1.9091-2.8683-16.27115-16.0538-14.97953-0.5744 0.0563-1.084 0.04-1.5611-0.0126-1.4725 3.16576-21.0043 19.45323-31.4617 26.21811-13.615 8.80746-18.0798 9.09366-16.6362 2.41751 8.9442-41.36471 19.3152-62.89288 29.8582-84.90846 8.4301-17.60387 14.1468-37.4136 21.9336-53.80403 16.8175-35.3987 22.8983-67.03071 25.0343-92.03905s-6.1337-26.15631-14.0771-26.57298zm-4.9128 46.62495c1.5977 0.0892 0.8446 6.46846-3.3743 19.07572-2.2062 6.593-4.8953 15.28978-5.9752 19.32531-1.08 4.03553-4.948 13.61939-8.5958 21.29749-3.6479 7.67808-6.9739 13.95934-7.3897 13.95934-3.3274 0 5.3034-32.51166 14.5982-54.9932 5.1897-12.55303 9.139-18.75393 10.7368-18.66466z"/>
</svg>
